<svg width="534" height="187" viewBox="0 0 534 187" fill="none" xmlns="http://www.w3.org/2000/svg">
<path d="M10.6593 158.548L15.3473 158.138L20.0352 157.727L19.6251 153.039L19.215 148.351L18.8048 143.663L18.3947 138.976L17.9845 134.288L17.5744 129.6L17.1642 124.912L16.7541 120.224L16.3439 115.536L15.9338 110.848L15.5237 106.16L15.1135 101.472L19.8015 101.062L24.4895 100.651L24.0793 95.9634L23.6692 91.2755L18.9812 91.6856L14.2932 92.0958L13.8831 87.4078L13.4729 82.7198L8.78496 83.13L4.09698 83.5401L4.50713 88.2281L4.91727 92.916L5.32742 97.604L5.73756 102.292L6.14771 106.98L6.55785 111.668L6.96799 116.356L7.37814 121.044L7.78828 125.732L8.19843 130.42L8.60857 135.108L9.01872 139.796L9.42886 144.484L9.83901 149.172L10.2492 153.86L10.6593 158.548ZM48.1631 155.267L52.8511 154.856L57.539 154.446L57.1289 149.758L56.7188 145.07L56.3086 140.382L55.8985 135.694L55.4883 131.006L55.0782 126.318L54.668 121.63L54.2579 116.942L53.8477 112.254L53.4376 107.567L53.0275 102.879L52.6173 98.1906L57.3053 97.7804L61.9933 97.3703L61.5831 92.6823L61.173 87.9943L56.485 88.4045L51.797 88.8146L47.109 89.2247L42.4211 89.6349L42.8312 94.3229L43.2414 99.0108L43.6515 103.699L44.0617 108.387L44.4718 113.075L44.8819 117.763L45.2921 122.451L45.7022 127.139L46.1124 131.827L46.5225 136.515L46.9327 141.203L47.3428 145.891L47.753 150.579L48.1631 155.267ZM85.6669 151.985L90.3549 151.575L95.0428 151.165L94.6327 146.477L94.2226 141.789L93.8124 137.101L93.4023 132.413L92.9921 127.725L92.582 123.037L92.1718 118.349L91.7617 113.661L91.3515 108.973L90.9414 104.285L90.5313 99.5974L90.1211 94.9094L89.711 90.2214L89.3008 85.5334L84.6129 85.9436L79.9249 86.3537L80.335 91.0417L80.7452 95.7297L81.1553 100.418L81.5655 105.106L81.9756 109.794L82.3857 114.482L82.7959 119.17L83.206 123.858L83.6162 128.546L84.0263 133.233L84.4365 137.921L84.8466 142.609L85.2568 147.297L85.6669 151.985ZM23.6692 91.2755L28.3571 90.8653L33.0451 90.4552L37.7331 90.045L42.4211 89.6349L42.0109 84.9469L41.6008 80.2589L36.9128 80.6691L32.2248 81.0792L27.5369 81.4894L22.8489 81.8995L23.259 86.5875L23.6692 91.2755ZM61.173 87.9943L65.8609 87.5842L70.5489 87.174L75.2369 86.7639L79.9249 86.3537L79.5147 81.6658L79.1046 76.9778L74.4166 77.3879L69.7286 77.7981L65.0407 78.2082L60.3527 78.6184L60.7628 83.3063L61.173 87.9943ZM102.256 178.877L106.944 178.467L111.632 178.057L116.32 177.647L121.008 177.237L125.696 176.826L130.384 176.416L129.973 171.728L129.563 167.04L134.251 166.63L133.841 161.942L133.431 157.254L138.119 156.844L137.709 152.156L137.299 147.468L141.987 147.058L141.577 142.37L141.166 137.682L145.854 137.272L145.444 132.584L145.034 127.896L149.722 127.486L149.312 122.798L148.902 118.11L153.59 117.7L153.18 113.012L152.769 108.324L152.359 103.636L151.949 98.9479L151.539 94.2599L151.129 89.5719L150.719 84.8839L150.309 80.196L149.898 75.508L149.488 70.82L144.8 71.2301L140.112 71.6403L140.522 76.3283L140.933 81.0162L141.343 85.7042L141.753 90.3922L142.163 95.0802L142.573 99.7681L142.983 104.456L143.394 109.144L143.804 113.832L144.214 118.52L139.526 118.93L139.936 123.618L140.346 128.306L135.658 128.716L136.068 133.404L136.478 138.092L131.79 138.502L127.102 138.913L126.692 134.225L126.282 129.537L121.594 129.947L121.184 125.259L120.774 120.571L116.086 120.981L115.676 116.293L115.266 111.605L114.856 106.917L114.445 102.229L114.035 97.541L113.625 92.8531L113.215 88.1651L112.805 83.4771L112.395 78.7891L111.984 74.1012L107.297 74.5113L102.609 74.9215L103.019 79.6094L103.429 84.2974L103.839 88.9854L104.249 93.6734L104.659 98.3613L105.069 103.049L105.48 107.737L105.89 112.425L106.3 117.113L106.71 121.801L111.398 121.391L111.808 126.079L112.218 130.767L116.906 130.357L117.316 135.045L117.727 139.733L122.414 139.323L122.825 144.011L123.235 148.699L127.923 148.288L128.333 152.976L128.743 157.664L124.055 158.075L124.465 162.763L124.875 167.451L120.187 167.861L115.499 168.271L110.811 168.681L106.123 169.091L101.435 169.501L101.846 174.189L102.256 178.877ZM198.224 142.138L202.912 141.728L207.6 141.318L207.19 136.63L206.78 131.942L211.468 131.532L216.156 131.121L215.746 126.433L215.335 121.745L210.647 122.156L205.959 122.566L205.549 117.878L205.139 113.19L204.729 108.502L204.319 103.814L203.909 99.1258L203.499 94.4379L203.088 89.7499L202.678 85.0619L207.366 84.6518L212.054 84.2416L211.644 79.5536L211.234 74.8657L206.546 75.2758L201.858 75.686L201.448 70.998L201.038 66.31L200.628 61.622L200.217 56.9341L199.807 52.2461L199.397 47.5581L198.987 42.8701L198.577 38.1822L198.167 33.4942L197.757 28.8062L193.069 29.2164L188.381 29.6265L188.791 34.3145L189.201 39.0025L189.611 43.6904L190.021 48.3784L190.431 53.0664L190.841 57.7544L191.252 62.4423L191.662 67.1303L192.072 71.8183L192.482 76.5063L192.892 81.1942L193.302 85.8822L193.712 90.5702L194.123 95.2582L194.533 99.9461L194.943 104.634L195.353 109.322L195.763 114.01L196.173 118.698L196.583 123.386L196.994 128.074L197.404 132.762L197.814 137.45L198.224 142.138ZM216.976 140.497L221.664 140.087L226.352 139.677L231.04 139.267L235.728 138.857L235.318 134.169L234.908 129.481L230.22 129.891L225.532 130.301L220.844 130.711L216.156 131.121L216.566 135.809L216.976 140.497ZM234.908 129.481L239.596 129.071L244.284 128.661L243.873 123.973L243.463 119.285L243.053 114.597L242.643 109.909L242.233 105.221L241.823 100.533L241.413 95.8447L241.002 91.1567L240.592 86.4687L240.182 81.7808L239.772 77.0928L239.362 72.4048L234.674 72.815L229.986 73.2251L230.396 77.9131L230.806 82.601L231.216 87.289L231.626 91.977L232.037 96.665L232.447 101.353L232.857 106.041L233.267 110.729L233.677 115.417L234.087 120.105L234.497 124.793L234.908 129.481ZM211.234 74.8657L215.922 74.4555L220.61 74.0454L225.298 73.6352L229.986 73.2251L229.576 68.5371L229.166 63.8491L224.478 64.2593L219.79 64.6694L215.102 65.0796L210.414 65.4897L210.824 70.1777L211.234 74.8657ZM263.911 136.391L268.599 135.981L273.287 135.571L272.876 130.883L272.466 126.195L272.056 121.507L271.646 116.819L271.236 112.131L270.826 107.443L270.416 102.755L270.005 98.067L269.595 93.379L269.185 88.691L268.775 84.0031L268.365 79.3151L267.955 74.6271L267.545 69.9391L267.134 65.2512L266.724 60.5632L266.314 55.8752L265.904 51.1872L265.494 46.4993L265.084 41.8113L264.674 37.1233L264.263 32.4353L263.853 27.7474L263.443 23.0594L258.755 23.4695L254.067 23.8797L254.477 28.5676L254.887 33.2556L255.298 37.9436L255.708 42.6316L256.118 47.3195L256.528 52.0075L256.938 56.6955L257.348 61.3835L257.758 66.0714L258.169 70.7594L258.579 75.4474L258.989 80.1354L259.399 84.8233L259.809 89.5113L260.219 94.1993L260.63 98.8873L261.04 103.575L261.45 108.263L261.86 112.951L262.27 117.639L262.68 122.327L263.09 127.015L263.501 131.703L263.911 136.391ZM301.46 133.106L306.148 132.696L310.836 132.286L315.524 131.875L320.212 131.465L324.9 131.055L329.588 130.645L329.178 125.957L328.768 121.269L324.08 121.679L319.392 122.089L314.704 122.5L310.016 122.91L305.328 123.32L300.64 123.73L301.05 128.418L301.46 133.106ZM291.264 124.55L295.952 124.14L300.64 123.73L300.23 119.042L299.82 114.354L299.41 109.666L298.999 104.978L298.589 100.29L298.179 95.6021L297.769 90.9141L297.359 86.2262L296.949 81.5382L296.539 76.8502L296.128 72.1622L295.718 67.4743L291.03 67.8844L286.342 68.2945L286.752 72.9825L287.163 77.6705L287.573 82.3585L287.983 87.0465L288.393 91.7344L288.803 96.4224L289.213 101.11L289.623 105.798L290.034 110.486L290.444 115.174L290.854 119.862L291.264 124.55ZM328.768 121.269L333.456 120.859L338.144 120.449L337.734 115.761L337.323 111.073L336.913 106.385L336.503 101.697L336.093 97.0089L335.683 92.321L335.273 87.633L334.863 82.945L334.452 78.257L334.042 73.5691L333.632 68.8811L333.222 64.1931L328.534 64.6032L323.846 65.0134L324.256 69.7014L324.666 74.3893L325.076 79.0773L325.487 83.7653L325.897 88.4533L326.307 93.1412L326.717 97.8292L327.127 102.517L327.537 107.205L327.948 111.893L328.358 116.581L328.768 121.269ZM295.718 67.4743L300.406 67.0641L305.094 66.654L309.782 66.2438L314.47 65.8337L319.158 65.4235L323.846 65.0134L323.436 60.3254L323.026 55.6374L318.338 56.0476L313.65 56.4577L308.962 56.8679L304.274 57.278L299.586 57.6882L294.898 58.0983L295.308 62.7863L295.718 67.4743ZM360.232 156.307L364.92 155.897L369.608 155.487L374.296 155.077L378.984 154.667L383.672 154.256L388.36 153.846L393.048 153.436L397.736 153.026L397.325 148.338L396.915 143.65L392.227 144.06L387.539 144.47L382.851 144.881L378.163 145.291L373.475 145.701L368.787 146.111L364.099 146.521L359.411 146.931L359.822 151.619L360.232 156.307ZM396.915 143.65L401.603 143.24L406.291 142.83L405.881 138.142L405.471 133.454L405.061 128.766L404.651 124.078L399.963 124.488L395.275 124.898L395.685 129.586L396.095 134.274L396.505 138.962L396.915 143.65ZM367.147 127.359L371.835 126.949L376.523 126.539L381.211 126.129L385.899 125.719L390.587 125.308L395.275 124.898L394.865 120.21L394.454 115.522L389.766 115.932L385.078 116.343L380.39 116.753L375.702 117.163L375.292 112.475L374.882 107.787L379.57 107.377L384.258 106.967L388.946 106.556L393.634 106.146L393.224 101.458L392.814 96.7704L388.126 97.1805L383.438 97.5907L378.75 98.0008L374.062 98.4109L369.374 98.8211L364.686 99.2312L365.096 103.919L365.506 108.607L365.916 113.295L366.327 117.983L366.737 122.671L367.147 127.359ZM355.31 100.052L359.998 99.6414L364.686 99.2312L364.276 94.5433L363.866 89.8553L363.456 85.1673L363.045 80.4793L362.635 75.7914L362.225 71.1034L361.815 66.4154L361.405 61.7274L356.717 62.1376L352.029 62.5477L352.439 67.2357L352.849 71.9237L353.259 76.6116L353.669 81.2996L354.08 85.9876L354.49 90.6756L354.9 95.3635L355.31 100.052ZM392.814 96.7704L397.502 96.3602L402.19 95.9501L401.78 91.2621L401.369 86.5741L400.959 81.8861L400.549 77.1982L400.139 72.5102L399.729 67.8222L399.319 63.1342L398.909 58.4463L394.221 58.8564L389.533 59.2666L389.943 63.9545L390.353 68.6425L390.763 73.3305L391.173 78.0185L391.583 82.7064L391.994 87.3944L392.404 92.0824L392.814 96.7704ZM361.405 61.7274L366.093 61.3173L370.781 60.9071L375.469 60.497L380.157 60.0868L384.845 59.6767L389.533 59.2666L389.123 54.5786L388.712 49.8906L384.024 50.3008L379.336 50.7109L374.648 51.121L369.96 51.5312L365.272 51.9413L360.585 52.3515L360.995 57.0395L361.405 61.7274ZM388.712 49.8906L393.4 49.4805L398.088 49.0703L397.678 44.3823L397.268 39.6944L392.58 40.1045L387.892 40.5147L388.302 45.2026L388.712 49.8906ZM480.607 126.88L485.295 126.47L489.983 126.06L489.573 121.372L489.162 116.684L493.85 116.274L493.44 111.586L493.03 106.898L492.62 102.21L492.21 97.5221L491.8 92.8341L491.389 88.1461L486.701 88.5563L482.014 88.9664L482.424 93.6544L482.834 98.3423L483.244 103.03L483.654 107.718L484.064 112.406L484.474 117.094L479.786 117.504L480.197 122.192L480.607 126.88ZM480.373 70.2145L485.061 69.8044L489.749 69.3942L489.339 64.7062L488.929 60.0183L488.518 55.3303L488.108 50.6423L483.42 51.0524L478.732 51.4626L479.143 56.1506L479.553 60.8385L479.963 65.5265L480.373 70.2145ZM498.937 11.9041L503.625 11.4939L508.313 11.0838L513.001 10.6736L513.411 15.3616L513.821 20.0496L514.231 24.7376L514.641 29.4255L515.052 34.1135L515.462 38.8015L515.872 43.4895L516.282 48.1774L516.692 52.8654L517.102 57.5534L517.512 62.2414L517.923 66.9293L518.333 71.6173L518.743 76.3053L519.153 80.9933L519.563 85.6812L519.973 90.3692L520.383 95.0572L520.794 99.7452L521.204 104.433L521.614 109.121L522.024 113.809L522.434 118.497L522.844 123.185L523.254 127.873L523.665 132.561L518.977 132.971L514.289 133.381L509.601 133.791L510.011 138.479L510.421 143.167L515.109 142.757L519.797 142.347L524.485 141.937L529.173 141.527L528.763 136.839L528.353 132.151L533.04 131.741L532.63 127.053L532.22 122.365L531.81 117.677L531.4 112.989L530.99 108.301L530.58 103.613L530.169 98.9249L529.759 94.2369L529.349 89.5489L528.939 84.8609L528.529 80.173L528.119 75.485L527.709 70.797L527.298 66.109L526.888 61.4211L526.478 56.7331L526.068 52.0451L525.658 47.3571L525.248 42.6692L524.838 37.9812L524.427 33.2932L524.017 28.6052L523.607 23.9173L523.197 19.2293L522.787 14.5413L522.377 9.85334L517.689 10.2635L517.279 5.57551L516.868 0.887541L512.18 1.29769L507.493 1.70783L502.805 2.11797L498.117 2.52812L498.527 7.21609L498.937 11.9041Z" fill="#9CD08F"/>
</svg>
