<svg width="1268" height="160" viewBox="0 0 1268 160" fill="none" xmlns="http://www.w3.org/2000/svg">
<path d="M130.2 0.999993C114 0.999993 106.6 9.8 106.6 20.8C106.6 27 110.2 33.4 116.4 40.6L125 50.4C128.8 54.6 132.8 57 131.4 63.6C130.2 69.4 125.8 71.4 117.6 71.4H32.6C25.8 71.4 21 68.6 21 63.2C21 59.4 22 56.4 28 53L50.8 40C57.8 36 62.8 28.4 62.8 19.4C62.8 8.59999 55 0.999993 41.4 0.999993C20 0.999993 14.4 20 12.8 34.4L2.2 133C0.200001 152 11 159 22.4 159C34.4 159 46 150 46 138.4C46 132 42.6 124.8 36.2 117.8C31.2 112.4 25.8 108.8 25.8 104C25.8 101 27.4 98.8 36.2 97L112.2 82C119 80.4 126.2 80.8 126.2 86.4C126.2 89.6 124.6 94.2 120.2 98.2L101.6 115.8C92.2 124.6 90.6 132 90.6 138.4C90.6 148.6 97.8 159 111.2 159C132.6 159 137.6 146 139.2 131.6L151.2 20.4C152.4 8.39999 141.6 0.999993 130.2 0.999993ZM297.642 33C312.642 34.4 316.042 28.4 316.042 22C316.042 9.39999 303.842 1.19999 268.042 1.19999C216.842 1.19999 173.242 21.8 173.242 58.2C173.242 76.4 190.242 86 209.842 78L249.842 61.6C259.042 57.8 263.042 65.2 255.042 70.8L195.442 112.2C186.442 118.6 181.442 125.8 181.442 133.2C181.442 153.2 205.442 159.2 232.042 159.2C258.842 159.4 288.842 154.8 300.442 149.4C311.042 144.4 316.642 138 316.042 126.6C315.442 114.6 306.442 109.8 289.242 115.8L207.442 144.4C197.642 147.8 192.242 139.6 192.242 135.2C192.242 130.2 193.842 126.2 203.242 123.2L281.242 98.4C298.842 92.8 301.642 83.4 301.642 76C301.642 66.4 296.442 57.2 281.242 55.4L209.642 46.6C197.442 45 192.842 41 192.842 35.2C192.842 29.6 198.042 24.2 209.642 25.2L297.642 33ZM416.709 109.4L365.109 110.6C347.509 111 333.109 117.6 333.109 133.6C333.109 152.4 346.109 159 357.709 159C374.109 159 388.909 144.2 398.109 136.4L417.709 119.6C424.709 113.6 430.509 115 430.509 126V136.4C430.509 148.6 438.309 159 454.709 159C475.309 159 482.109 141.8 477.909 119.4L459.709 23.2C457.109 9.59999 448.909 0.999993 436.909 0.999993C423.909 0.999993 416.709 6.2 399.309 20L359.109 52C349.909 59.4 343.909 67.2 343.909 75.8C343.909 88.2 353.509 98 365.309 98C372.709 98 383.909 95.4 390.309 82.2L414.509 32.6C417.509 26.4 424.709 11.2 433.109 9.59999C441.509 8 446.909 15 445.509 26L436.909 96.8C435.709 107 428.109 109.2 416.709 109.4ZM587.67 3.99999H518.27C505.07 3.99999 498.07 14.6 498.07 25C498.07 34.2 503.27 41.8 514.47 43.8C523.47 45.4 526.47 48.4 523.07 55.4L515.67 70.4C495.87 110.6 506.27 158.6 557.87 158.8C618.87 159 648.07 132.4 648.07 81C648.07 32 631.07 3.99999 587.67 3.99999ZM622.27 53.2L587.67 136.6C581.47 151.4 559.27 155.2 553.47 134.6L532.87 62.2C529.07 48.6 534.87 39.6 551.87 36.4L601.87 26.8C617.07 23.8 630.27 33.8 622.27 53.2ZM684.717 32.6L672.917 117.2C672.317 121.2 672.117 124.8 672.117 128C672.117 148.6 677.917 156 699.717 156H739.517C760.517 156 769.117 144.6 769.117 133.2C769.117 121.8 760.317 110.4 747.117 110.4C741.117 110.4 734.117 112.8 726.517 118.6L708.117 132.8C697.917 140.6 692.117 145 687.917 145C684.517 145 680.117 141.6 680.117 136.4C680.117 132.4 682.517 127 685.917 120.8L728.117 42.4C731.917 35.2 733.517 29 733.517 23.8C733.517 8.59999 720.717 0.999993 709.317 0.999993C695.717 0.999993 687.717 11.2 684.717 32.6ZM912.486 33C927.486 34.4 930.886 28.4 930.886 22C930.886 9.39999 918.686 1.19999 882.886 1.19999C831.686 1.19999 788.086 21.8 788.086 58.2C788.086 76.4 805.086 86 824.686 78L864.686 61.6C873.886 57.8 877.886 65.2 869.886 70.8L810.286 112.2C801.286 118.6 796.286 125.8 796.286 133.2C796.286 153.2 820.286 159.2 846.886 159.2C873.686 159.4 903.686 154.8 915.286 149.4C925.886 144.4 931.486 138 930.886 126.6C930.286 114.6 921.286 109.8 904.086 115.8L822.286 144.4C812.486 147.8 807.086 139.6 807.086 135.2C807.086 130.2 808.686 126.2 818.086 123.2L896.086 98.4C913.686 92.8 916.486 83.4 916.486 76C916.486 66.4 911.286 57.2 896.086 55.4L824.486 46.6C812.286 45 807.686 41 807.686 35.2C807.686 29.6 812.886 24.2 824.486 25.2L912.486 33ZM1014.75 158.8C1060.55 158.8 1096.75 130.8 1096.75 103C1096.75 93.4 1091.15 85.4 1079.75 83.4L977.953 65C971.553 63.8 968.953 62 968.353 57.6C967.753 53.4 969.753 49.6 978.353 47.8L1064.55 29.2C1071.15 27.8 1075.35 27.6 1078.55 29.8C1080.55 31.2 1081.15 34.8 1078.75 38.4L1069.95 51.6C1059.15 67.8 1070.95 75.4 1078.75 75.4C1090.55 75.4 1095.95 65.6 1095.95 51.4C1095.95 15.4 1061.75 0.599998 1027.15 0.599998C991.953 0.599998 956.353 19.6 956.353 54.4C956.353 62.6 961.753 70.6 969.953 72.6L982.553 75.6C990.553 77.4 993.753 78.4 993.953 85.8L994.153 93.4C994.553 107.8 1007.55 120.6 1026.55 111.8L1068.95 92.2C1075.75 89 1081.95 90 1083.95 97.4C1085.95 104.8 1078.75 108 1070.35 112L1000.35 145.8C988.353 151.6 982.353 146.6 982.353 137V103C982.353 94.6 976.353 86.4 966.753 86.4C954.753 86.4 950.353 99.2 950.353 110.2C950.353 133.4 966.753 158.8 1014.75 158.8ZM1202.75 1.19999C1156.95 1.19999 1120.75 29.2 1120.75 57C1120.75 66.6 1126.35 74.6 1137.75 76.6L1239.55 95C1245.95 96.2 1248.55 98 1249.15 102.4C1249.75 106.6 1247.75 110.4 1239.15 112.2L1152.95 130.8C1146.35 132.2 1142.15 132.4 1138.95 130.2C1136.95 128.8 1136.35 125.2 1138.75 121.6L1147.55 108.4C1158.35 92.2 1146.55 84.6 1138.75 84.6C1126.95 84.6 1121.55 94.4 1121.55 108.6C1121.55 144.6 1155.75 159.4 1190.35 159.4C1225.55 159.4 1261.15 140.4 1261.15 105.6C1261.15 97.4 1255.75 89.4 1247.55 87.4L1234.95 84.4C1226.95 82.6 1223.75 81.6 1223.55 74.2L1223.35 66.6C1222.95 52.2 1209.95 39.4 1190.95 48.2L1148.55 67.8C1141.75 71 1135.55 70 1133.55 62.6C1131.55 55.2 1138.75 52 1147.15 48L1217.15 14.2C1229.15 8.39999 1235.15 13.4 1235.15 23V57C1235.15 65.4 1241.15 73.6 1250.75 73.6C1262.75 73.6 1267.15 60.8 1267.15 49.8C1267.15 26.6 1250.75 1.19999 1202.75 1.19999Z" fill="#9CD08F"/>
</svg>
