<svg width="967" height="237" viewBox="0 0 967 237" fill="none" xmlns="http://www.w3.org/2000/svg">
<path d="M0 4.26H7.83V24H11.22V4.26H19.08V1.5H0V4.26ZM21.334 1.5V24H24.754V14.01H35.224V24H38.644V1.5H35.224V11.22H24.754V1.5H21.334ZM45.8067 1.5H42.3867V24H45.8067V1.5ZM55.1986 13.05C56.1286 13.26 57.0886 13.44 58.0486 13.65C60.5686 14.22 63.2086 15.03 63.2086 17.67C63.2086 20.07 61.1086 20.91 58.7086 20.91C55.2286 20.91 52.7086 18.51 52.7086 15.21V14.22L49.6786 17.07V17.34C50.7586 21.75 54.0586 24 58.7686 24C63.0286 24 66.6286 22.05 66.6286 17.58C66.6286 13.5 63.7786 11.97 60.3286 11.13C59.2486 10.89 58.0786 10.71 56.9986 10.5C54.9886 10.11 52.9786 9.21 52.9786 7.23C52.9786 5.07 55.1386 3.99 57.2986 3.99C60.5686 3.99 63.0286 6.18 63.0286 9.27V10.29L66.1786 7.29V7.08C65.9086 5.28 64.5586 3.57 63.0286 2.58C61.0786 1.32 59.1286 0.96 56.8486 0.96C53.0086 0.96 49.5586 3.54 49.5586 7.38C49.5586 10.74 52.1086 12.36 55.1986 13.05ZM81.2852 1.5H77.8652V24H81.2852V1.5ZM90.6771 13.05C91.6071 13.26 92.5671 13.44 93.5271 13.65C96.0471 14.22 98.6871 15.03 98.6871 17.67C98.6871 20.07 96.5871 20.91 94.1871 20.91C90.7071 20.91 88.1871 18.51 88.1871 15.21V14.22L85.1571 17.07V17.34C86.2371 21.75 89.5371 24 94.2471 24C98.5071 24 102.107 22.05 102.107 17.58C102.107 13.5 99.2571 11.97 95.8071 11.13C94.7271 10.89 93.5571 10.71 92.4771 10.5C90.4671 10.11 88.4571 9.21 88.4571 7.23C88.4571 5.07 90.6171 3.99 92.7771 3.99C96.0471 3.99 98.5071 6.18 98.5071 9.27V10.29L101.657 7.29V7.08C101.387 5.28 100.037 3.57 98.5071 2.58C96.5571 1.32 94.6071 0.96 92.3271 0.96C88.4871 0.96 85.0371 3.54 85.0371 7.38C85.0371 10.74 87.5871 12.36 90.6771 13.05ZM111.844 24H115.264V8.52H115.564L120.544 22.23H124.714L129.724 8.46H130.024V24H133.444V1.5H129.304L122.794 19.29H122.494L115.954 1.5H111.844V24ZM142.321 12.3V24H145.711C145.711 24 145.651 12.36 145.711 12.3C145.711 12.27 153.091 1.5 153.091 1.5H149.401L144.211 8.79H143.911L138.691 1.5H134.941C134.941 1.5 142.321 12.27 142.321 12.3Z" fill="#A5A7AB"/>
<path d="M184.71 24C188.91 24 191.7 21.72 191.7 17.67C191.7 15.39 190.62 12.99 187.71 12.27V11.97C189.87 11.13 190.83 9.39 190.83 7.14C190.83 3.09 187.59 1.5 183.84 1.5H175.5V24H184.71ZM184.71 13.77C187.23 13.77 188.61 15.48 188.61 17.79C188.61 20.07 187.14 21.24 184.71 21.24H178.92V13.77H184.71ZM183.84 4.26C186.21 4.26 187.71 5.31 187.71 7.53C187.71 9.78 186.21 10.71 183.84 10.71H178.92V4.26H183.84ZM194.689 24H208.099V21.09H198.109V1.5H194.689V24ZM210.346 12.54C210.346 18.75 213.646 24 220.966 24C228.286 24 231.886 18.72 231.886 12.42C231.886 6.18 228.376 0.96 221.116 0.96C213.766 0.96 210.346 6.27 210.346 12.54ZM213.766 12.63C213.766 7.83 215.656 4.29 221.116 4.29C226.516 4.29 228.436 7.74 228.436 12.48C228.436 17.31 226.426 20.67 220.966 20.67C215.596 20.67 213.766 17.4 213.766 12.63ZM244.515 24H246.465L251.025 19.41H251.325V23.97H254.595V11.28H242.085V14.25H251.085C250.635 17.85 248.265 20.76 244.515 20.76C238.665 20.76 237.555 16.77 237.555 12.9C237.555 9.09 238.755 4.47 244.665 4.47C248.715 4.47 250.695 6.42 251.415 9.33L251.535 9.84L254.535 6.87L254.475 6.75C252.885 3.33 249.645 1.2 244.665 1.2C236.505 1.2 234.135 7.92 234.135 12.81C234.135 17.7 236.445 24 244.515 24Z" fill="#9CD08F"/>
<path d="M5.67 49.5H2.25V72H5.67V49.5ZM22.5619 61.05C23.4919 61.26 24.4519 61.44 25.4119 61.65C27.9319 62.22 30.5719 63.03 30.5719 65.67C30.5719 68.07 28.4719 68.91 26.0719 68.91C22.5919 68.91 20.0719 66.51 20.0719 63.21V62.22L17.0419 65.07V65.34C18.1219 69.75 21.4219 72 26.1319 72C30.3919 72 33.9919 70.05 33.9919 65.58C33.9919 61.5 31.1419 59.97 27.6919 59.13C26.6119 58.89 25.4419 58.71 24.3619 58.5C22.3519 58.11 20.3419 57.21 20.3419 55.23C20.3419 53.07 22.5019 51.99 24.6619 51.99C27.9319 51.99 30.3919 54.18 30.3919 57.27V58.29L33.5419 55.29V55.08C33.2719 53.28 31.9219 51.57 30.3919 50.58C28.4419 49.32 26.4919 48.96 24.2119 48.96C20.3719 48.96 16.9219 51.54 16.9219 55.38C16.9219 58.74 19.4719 60.36 22.5619 61.05ZM36.9785 49.5V72H40.3985V62.01H50.8685V72H54.2885V49.5H50.8685V59.22H40.3985V49.5H36.9785ZM59.3813 72L61.9013 65.01H69.5813L72.1313 72H75.7313L67.6013 49.5H63.9113L55.7812 72H59.3813ZM62.8913 62.25L65.5913 53.97H65.8913L68.5913 62.25H62.8913ZM77.9941 72H81.4141V61.47H86.0341C88.4341 61.47 89.6041 62.52 89.6041 64.77V72H93.0241V63.45C93.0241 63.45 89.6941 60.93 89.3641 60.78V60.48C92.4841 59.88 93.3241 57.57 93.3241 55.14C93.3241 51.09 90.0841 49.5 86.3341 49.5H77.9941V72ZM81.4141 52.56H86.3341C88.6141 52.56 90.2041 53.34 90.2041 55.53C90.2041 57.81 88.7341 58.71 86.3341 58.71H81.4141V52.56ZM111.184 72V69.09H99.754V61.77H109.984V58.98H99.754V52.41H111.184V49.5H96.334V72H111.184ZM120.176 49.5L125.066 72H128.606L133.226 55.44H133.526L138.296 72H141.746L146.636 49.5H143.216L139.766 65.79H139.466L135.716 52.35H131.066L127.346 65.79H127.046L123.596 49.5H120.176ZM148.893 49.5V72H152.313V62.01H162.783V72H166.203V49.5H162.783V59.22H152.313V49.5H148.893ZM171.295 72L173.815 65.01H181.495L184.045 72H187.645L179.515 49.5H175.825L167.695 72H171.295ZM174.805 62.25L177.505 53.97H177.805L180.505 62.25H174.805ZM188.408 52.26H196.238V72H199.628V52.26H207.488V49.5H188.408V52.26ZM221.412 49.5H217.992V72H221.412V49.5ZM233.414 72H246.824V69.09H236.834V49.5H233.414V72ZM253.99 49.5H250.57V72H253.99V49.5ZM258.492 72H261.912V65.04L264.252 62.46L271.962 72H276.372L266.352 59.91L274.722 50.1H270.582L262.212 60.21H261.912V49.5H258.492V72ZM294.231 72V69.09H282.801V61.77H293.031V58.98H282.801V52.41H294.231V49.5H279.381V72H294.231ZM308.893 49.5H305.473V72H308.893V49.5ZM312.645 72H316.065V55.2H316.365L326.505 72H330.255V49.5L326.835 49.68V66.69H326.535L316.125 49.5H312.645V72ZM339.258 52.26H347.088V72H350.478V52.26H358.338V49.5H339.258V52.26ZM360.592 49.5V72H364.012V62.01H374.482V72H377.902V49.5H374.482V59.22H364.012V49.5H360.592ZM395.745 72V69.09H384.315V61.77H394.545V58.98H384.315V52.41H395.745V49.5H380.895V72H395.745ZM404.736 49.5L409.626 72H413.166L417.786 55.44H418.086L422.856 72H426.306L431.196 49.5H427.776L424.326 65.79H424.026L420.276 52.35H415.626L411.906 65.79H411.606L408.156 49.5H404.736ZM432.703 60.54C432.703 66.75 436.003 72 443.323 72C450.643 72 454.243 66.72 454.243 60.42C454.243 54.18 450.733 48.96 443.473 48.96C436.123 48.96 432.703 54.27 432.703 60.54ZM436.123 60.63C436.123 55.83 438.013 52.29 443.473 52.29C448.873 52.29 450.793 55.74 450.793 60.48C450.793 65.31 448.783 68.67 443.323 68.67C437.953 68.67 436.123 65.4 436.123 60.63ZM457.242 72H460.662V61.47H465.282C467.682 61.47 468.852 62.52 468.852 64.77V72H472.272V63.45C472.272 63.45 468.942 60.93 468.612 60.78V60.48C471.732 59.88 472.572 57.57 472.572 55.14C472.572 51.09 469.332 49.5 465.582 49.5H457.242V72ZM460.662 52.56H465.582C467.862 52.56 469.452 53.34 469.452 55.53C469.452 57.81 467.982 58.71 465.582 58.71H460.662V52.56ZM475.582 72H488.992V69.09H479.002V49.5H475.582V72ZM500.028 72C507.168 72 510.648 66.84 510.648 60.69C510.648 54.6 507.258 49.5 500.178 49.5H491.988V72H500.028ZM495.408 68.64V52.86H500.178C505.368 52.86 507.258 56.13 507.258 60.75C507.258 65.46 505.278 68.64 500.028 68.64H495.408ZM520.389 60.54C520.389 66.75 523.689 72 531.009 72C538.329 72 541.929 66.72 541.929 60.42C541.929 54.18 538.419 48.96 531.159 48.96C523.809 48.96 520.389 54.27 520.389 60.54ZM523.809 60.63C523.809 55.83 525.699 52.29 531.159 52.29C536.559 52.29 538.479 55.74 538.479 60.48C538.479 65.31 536.469 68.67 531.009 68.67C525.639 68.67 523.809 65.4 523.809 60.63ZM544.928 49.5V72H548.348V59.85H558.578V57.06H548.348V52.41H559.778V49.5H544.928ZM574.427 61.05C575.357 61.26 576.317 61.44 577.277 61.65C579.797 62.22 582.437 63.03 582.437 65.67C582.437 68.07 580.337 68.91 577.937 68.91C574.457 68.91 571.937 66.51 571.937 63.21V62.22L568.907 65.07V65.34C569.987 69.75 573.287 72 577.997 72C582.257 72 585.857 70.05 585.857 65.58C585.857 61.5 583.007 59.97 579.557 59.13C578.477 58.89 577.307 58.71 576.227 58.5C574.217 58.11 572.207 57.21 572.207 55.23C572.207 53.07 574.367 51.99 576.527 51.99C579.797 51.99 582.257 54.18 582.257 57.27V58.29L585.407 55.29V55.08C585.137 53.28 583.787 51.57 582.257 50.58C580.307 49.32 578.357 48.96 576.077 48.96C572.237 48.96 568.787 51.54 568.787 55.38C568.787 58.74 571.337 60.36 574.427 61.05ZM588.094 60.54C588.094 66.75 591.394 72 598.714 72C606.034 72 609.634 66.72 609.634 60.42C609.634 54.18 606.124 48.96 598.864 48.96C591.514 48.96 588.094 54.27 588.094 60.54ZM591.514 60.63C591.514 55.83 593.404 52.29 598.864 52.29C604.264 52.29 606.184 55.74 606.184 60.48C606.184 65.31 604.174 68.67 598.714 68.67C593.344 68.67 591.514 65.4 591.514 60.63ZM612.633 49.5V72H616.053V59.85H626.283V57.06H616.053V52.41H627.483V49.5H612.633ZM628.242 52.26H636.072V72H639.462V52.26H647.322V49.5H628.242V52.26ZM648.076 49.5L652.966 72H656.506L661.126 55.44H661.426L666.196 72H669.646L674.536 49.5H671.116L667.666 65.79H667.366L663.616 52.35H658.966L655.246 65.79H654.946L651.496 49.5H648.076ZM678.893 72L681.413 65.01H689.093L691.643 72H695.243L687.113 49.5H683.423L675.293 72H678.893ZM682.403 62.25L685.103 53.97H685.403L688.103 62.25H682.403ZM697.506 72H700.926V61.47H705.546C707.946 61.47 709.116 62.52 709.116 64.77V72H712.536V63.45C712.536 63.45 709.206 60.93 708.876 60.78V60.48C711.996 59.88 712.836 57.57 712.836 55.14C712.836 51.09 709.596 49.5 705.846 49.5H697.506V72ZM700.926 52.56H705.846C708.126 52.56 709.716 53.34 709.716 55.53C709.716 57.81 708.246 58.71 705.846 58.71H700.926V52.56ZM730.696 72V69.09H719.266V61.77H729.496V58.98H719.266V52.41H730.696V49.5H715.846V72H730.696ZM749.228 72C756.368 72 759.848 66.84 759.848 60.69C759.848 54.6 756.458 49.5 749.378 49.5H741.188V72H749.228ZM744.608 68.64V52.86H749.378C754.568 52.86 756.458 56.13 756.458 60.75C756.458 65.46 754.478 68.64 749.228 68.64H744.608ZM777.688 72V69.09H766.258V61.77H776.488V58.98H766.258V52.41H777.688V49.5H762.838V72H777.688ZM787.13 72H791L799.7 49.5H796.04L789.26 67.71H788.96L782.15 49.5H778.43L787.13 72ZM816.038 72V69.09H804.608V61.77H814.837V58.98H804.608V52.41H816.038V49.5H801.188V72H816.038ZM819.029 72H832.439V69.09H822.449V49.5H819.029V72ZM834.686 60.54C834.686 66.75 837.986 72 845.306 72C852.626 72 856.226 66.72 856.226 60.42C856.226 54.18 852.716 48.96 845.456 48.96C838.106 48.96 834.686 54.27 834.686 60.54ZM838.106 60.63C838.106 55.83 839.996 52.29 845.456 52.29C850.856 52.29 852.776 55.74 852.776 60.48C852.776 65.31 850.766 68.67 845.306 68.67C839.936 68.67 838.106 65.4 838.106 60.63ZM862.645 72V61.77H867.565C871.765 61.77 874.555 59.49 874.555 55.44C874.555 51.48 871.405 49.5 867.565 49.5H859.225V72H862.645ZM867.565 52.26C869.935 52.26 871.435 53.31 871.435 55.53C871.435 57.87 870.025 58.98 867.565 58.98H862.645V52.26H867.565ZM876.053 72H879.473V56.52H879.773L884.753 70.23H888.923L893.933 56.46H894.233V72H897.653V49.5H893.513L887.003 67.29H886.703L880.163 49.5H876.053V72ZM915.5 72V69.09H904.07V61.77H914.3V58.98H904.07V52.41H915.5V49.5H900.65V72H915.5ZM917.742 72H921.162V55.2H921.462L931.602 72H935.352V49.5L931.932 49.68V66.69H931.632L921.222 49.5H917.742V72ZM936.855 52.26H944.685V72H948.075V52.26H955.935V49.5H936.855V52.26ZM959.839 75.96L959.989 75.9C962.149 75.33 963.139 72.84 963.139 71.01C963.139 70.08 962.959 68.97 962.539 68.13H959.209V71.97H960.559C960.559 73.11 960.019 74.37 958.789 74.64L958.189 74.79L959.839 75.96ZM9.54 105C16.68 105 20.16 99.84 20.16 93.69C20.16 87.6 16.77 82.5 9.69 82.5H1.5V105H9.54ZM4.92 101.64V85.86H9.69C14.88 85.86 16.77 89.13 16.77 93.75C16.77 98.46 14.79 101.64 9.54 101.64H4.92ZM38.0004 105V102.09H26.5704V94.77H36.8004V91.98H26.5704V85.41H38.0004V82.5H23.1504V105H38.0004ZM45.8822 94.05C46.8122 94.26 47.7722 94.44 48.7322 94.65C51.2522 95.22 53.8922 96.03 53.8922 98.67C53.8922 101.07 51.7922 101.91 49.3922 101.91C45.9122 101.91 43.3922 99.51 43.3922 96.21V95.22L40.3622 98.07V98.34C41.4422 102.75 44.7422 105 49.4522 105C53.7122 105 57.3122 103.05 57.3122 98.58C57.3122 94.5 54.4622 92.97 51.0122 92.13C49.9322 91.89 48.7622 91.71 47.6822 91.5C45.6722 91.11 43.6622 90.21 43.6622 88.23C43.6622 86.07 45.8222 84.99 47.9822 84.99C51.2522 84.99 53.7122 87.18 53.7122 90.27V91.29L56.8622 88.29V88.08C56.5922 86.28 55.2422 84.57 53.7122 83.58C51.7622 82.32 49.8122 81.96 47.5322 81.96C43.6922 81.96 40.2422 84.54 40.2422 88.38C40.2422 91.74 42.7922 93.36 45.8822 94.05ZM64.4688 82.5H61.0488V105H64.4688V82.5ZM78.6007 105H80.5507L85.1107 100.41H85.4107V104.97H88.6807V92.28H76.1707V95.25H85.1707C84.7207 98.85 82.3507 101.76 78.6007 101.76C72.7507 101.76 71.6407 97.77 71.6407 93.9C71.6407 90.09 72.8407 85.47 78.7507 85.47C82.8007 85.47 84.7807 87.42 85.5007 90.33L85.6207 90.84L88.6207 87.87L88.5607 87.75C86.9707 84.33 83.7307 82.2 78.7507 82.2C70.5907 82.2 68.2207 88.92 68.2207 93.81C68.2207 98.7 70.5307 105 78.6007 105ZM90.9258 105H94.3458V88.2H94.6458L104.786 105H108.536V82.5L105.116 82.68V99.69H104.816L94.4058 82.5H90.9258V105ZM121.139 105L123.659 98.01H131.339L133.889 105H137.489L129.359 82.5H125.669L117.539 105H121.139ZM124.649 95.25L127.349 86.97H127.649L130.349 95.25H124.649ZM139.002 105H142.422V88.2H142.722L152.862 105H156.612V82.5L153.192 82.68V99.69H152.892L142.482 82.5H139.002V105ZM167.655 105C174.795 105 178.275 99.84 178.275 93.69C178.275 87.6 174.885 82.5 167.805 82.5H159.615V105H167.655ZM163.035 101.64V85.86H167.805C172.995 85.86 174.885 89.13 174.885 93.75C174.885 98.46 172.905 101.64 167.655 101.64H163.035ZM187.266 85.26H195.096V105H198.486V85.26H206.346V82.5H187.266V85.26ZM223.45 105V102.09H212.02V94.77H222.25V91.98H212.02V85.41H223.45V82.5H208.6V105H223.45ZM236.221 105C241.051 105 243.511 103.08 245.311 99.99L245.401 99.87L242.641 97.14L242.461 97.5C241.351 99.96 239.791 101.76 236.221 101.76C230.881 101.76 229.111 97.56 229.111 93.6C229.111 89.82 230.851 85.17 236.071 85.17C241.531 85.17 243.661 89.34 243.661 92.7L246.481 90C246.361 89.25 246.121 88.53 245.791 87.84C244.291 84.51 241.051 81.9 236.071 81.9C228.601 81.9 225.691 88.83 225.691 93.69C225.691 98.73 228.691 105 236.221 105ZM248.736 82.5V105H252.156V95.01H262.626V105H266.046V82.5H262.626V92.22H252.156V82.5H248.736ZM269.039 104.97H272.369V101.13H269.039V104.97ZM288.531 82.5H285.111V105H288.531V82.5ZM292.283 83.58L292.943 83.7C294.023 83.91 294.683 85.11 294.683 86.16V86.34H293.363V90.21H296.573L296.663 90.03C297.053 89.19 297.293 88.26 297.293 87.3C297.293 85.56 296.273 82.92 294.113 82.44L293.993 82.41L292.283 83.58ZM298.787 105H302.207V89.52H302.507L307.487 103.23H311.657L316.667 89.46H316.967V105H320.387V82.5H316.247L309.737 100.29H309.437L302.897 82.5H298.787V105ZM332.985 105L335.505 98.01H343.185L345.735 105H349.335L341.205 82.5H337.515L329.385 105H332.985ZM336.495 95.25L339.195 86.97H339.495L342.195 95.25H336.495ZM362.518 105V94.77H367.438C371.638 94.77 374.428 92.49 374.428 88.44C374.428 84.48 371.278 82.5 367.438 82.5H359.098V105H362.518ZM367.438 85.26C369.808 85.26 371.308 86.31 371.308 88.53C371.308 90.87 369.898 91.98 367.438 91.98H362.518V85.26H367.438ZM391.526 105V102.09H380.096V94.77H390.326V91.98H380.096V85.41H391.526V82.5H376.676V105H391.526ZM394.518 105H397.938V94.47H402.558C404.958 94.47 406.128 95.52 406.128 97.77V105H409.548V96.45C409.548 96.45 406.218 93.93 405.888 93.78V93.48C409.008 92.88 409.848 90.57 409.848 88.14C409.848 84.09 406.608 82.5 402.858 82.5H394.518V105ZM397.938 85.56H402.858C405.138 85.56 406.728 86.34 406.728 88.53C406.728 90.81 405.258 91.71 402.858 91.71H397.938V85.56ZM416.277 105V94.77H421.197C425.397 94.77 428.187 92.49 428.187 88.44C428.187 84.48 425.037 82.5 421.197 82.5H412.857V105H416.277ZM421.197 85.26C423.567 85.26 425.067 86.31 425.067 88.53C425.067 90.87 423.657 91.98 421.197 91.98H416.277V85.26H421.197ZM445.286 105V102.09H433.856V94.77H444.086V91.98H433.856V85.41H445.286V82.5H430.436V105H445.286ZM446.777 85.26H454.607V105H457.997V85.26H465.857V82.5H446.777V85.26ZM468.111 82.5V95.94C468.111 101.1 470.901 105 476.811 105C482.751 105 485.451 101.07 485.451 95.94V82.5H482.031V95.94C482.031 99.3 480.681 101.94 476.811 101.94C472.821 101.94 471.531 99.45 471.531 95.94V82.5H468.111ZM490.543 105L493.063 98.01H500.743L503.293 105H506.893L498.763 82.5H495.073L486.943 105H490.543ZM494.053 95.25L496.753 86.97H497.053L499.753 95.25H494.053ZM509.156 105H522.566V102.09H512.576V82.5H509.156V105ZM533.063 105H546.473V102.09H536.483V82.5H533.063V105ZM564.319 105V102.09H552.889V94.77H563.119V91.98H552.889V85.41H564.319V82.5H549.469V105H564.319ZM569.411 105L571.931 98.01H579.611L582.161 105H585.761L577.631 82.5H573.941L565.811 105H569.411ZM572.921 95.25L575.621 86.97H575.921L578.621 95.25H572.921ZM588.023 105H591.443V94.47H596.063C598.463 94.47 599.633 95.52 599.633 97.77V105H603.053V96.45C603.053 96.45 599.723 93.93 599.393 93.78V93.48C602.513 92.88 603.353 90.57 603.353 88.14C603.353 84.09 600.113 82.5 596.363 82.5H588.023V105ZM591.443 85.56H596.363C598.643 85.56 600.233 86.34 600.233 88.53C600.233 90.81 598.763 91.71 596.363 91.71H591.443V85.56ZM605.613 105H609.033V88.2H609.333L619.473 105H623.223V82.5L619.803 82.68V99.69H619.503L609.093 82.5H605.613V105ZM641.077 105V102.09H629.647V94.77H639.877V91.98H629.647V85.41H641.077V82.5H626.227V105H641.077ZM644.068 105H647.488V94.47H652.108C654.508 94.47 655.678 95.52 655.678 97.77V105H659.098V96.45C659.098 96.45 655.768 93.93 655.438 93.78V93.48C658.558 92.88 659.398 90.57 659.398 88.14C659.398 84.09 656.158 82.5 652.408 82.5H644.068V105ZM647.488 85.56H652.408C654.688 85.56 656.278 86.34 656.278 88.53C656.278 90.81 654.808 91.71 652.408 91.71H647.488V85.56ZM672.008 105L674.528 98.01H682.208L684.758 105H688.358L680.228 82.5H676.538L668.408 105H672.008ZM675.518 95.25L678.218 86.97H678.518L681.218 95.25H675.518ZM689.871 105H693.291V88.2H693.591L703.731 105H707.481V82.5L704.061 82.68V99.69H703.761L693.351 82.5H689.871V105ZM718.524 105C725.664 105 729.144 99.84 729.144 93.69C729.144 87.6 725.754 82.5 718.674 82.5H710.484V105H718.524ZM713.904 101.64V85.86H718.674C723.864 85.86 725.754 89.13 725.754 93.75C725.754 98.46 723.774 101.64 718.524 101.64H713.904ZM741.735 105L744.255 98.01H751.935L754.485 105H758.085L749.955 82.5H746.265L738.135 105H741.735ZM745.245 95.25L747.945 86.97H748.245L750.945 95.25H745.245ZM760.348 105H773.758V102.09H763.768V82.5H760.348V105ZM775.254 82.5L780.144 105H783.684L788.304 88.44H788.604L793.374 105H796.824L801.714 82.5H798.294L794.844 98.79H794.544L790.794 85.35H786.144L782.424 98.79H782.124L778.674 82.5H775.254ZM806.071 105L808.591 98.01H816.271L818.821 105H822.421L814.291 82.5H810.601L802.471 105H806.071ZM809.581 95.25L812.281 86.97H812.581L815.281 95.25H809.581ZM830.564 93.3V105H833.954C833.954 105 833.894 93.36 833.954 93.3C833.954 93.27 841.334 82.5 841.334 82.5H837.644L832.454 89.79H832.154L826.934 82.5H823.184C823.184 82.5 830.564 93.27 830.564 93.3ZM847.738 94.05C848.668 94.26 849.628 94.44 850.588 94.65C853.108 95.22 855.748 96.03 855.748 98.67C855.748 101.07 853.648 101.91 851.248 101.91C847.768 101.91 845.248 99.51 845.248 96.21V95.22L842.218 98.07V98.34C843.298 102.75 846.598 105 851.308 105C855.568 105 859.168 103.05 859.168 98.58C859.168 94.5 856.318 92.97 852.868 92.13C851.788 91.89 850.618 91.71 849.538 91.5C847.528 91.11 845.518 90.21 845.518 88.23C845.518 86.07 847.678 84.99 849.838 84.99C853.108 84.99 855.568 87.18 855.568 90.27V91.29L858.718 88.29V88.08C858.448 86.28 857.098 84.57 855.568 83.58C853.618 82.32 851.668 81.96 849.388 81.96C845.548 81.96 842.098 84.54 842.098 88.38C842.098 91.74 844.648 93.36 847.738 94.05ZM1.5 138H4.92V131.04L7.26 128.46L14.97 138H19.38L9.36 125.91L17.73 116.1H13.59L5.22 126.21H4.92V115.5H1.5V138ZM37.2387 138V135.09H25.8087V127.77H36.0387V124.98H25.8087V118.41H37.2387V115.5H22.3887V138H37.2387ZM55.0805 138V135.09H43.6505V127.77H53.8805V124.98H43.6505V118.41H55.0805V115.5H40.2305V138H55.0805ZM57.3223 138H60.7423V121.2H61.0423L71.1823 138H74.9323V115.5L71.5123 115.68V132.69H71.2123L60.8023 115.5H57.3223V138ZM83.9355 118.26H91.7655V138H95.1555V118.26H103.016V115.5H83.9355V118.26ZM104.52 126.54C104.52 132.75 107.82 138 115.14 138C122.46 138 126.06 132.72 126.06 126.42C126.06 120.18 122.55 114.96 115.29 114.96C107.94 114.96 104.52 120.27 104.52 126.54ZM107.94 126.63C107.94 121.83 109.83 118.29 115.29 118.29C120.69 118.29 122.61 121.74 122.61 126.48C122.61 131.31 120.6 134.67 115.14 134.67C109.77 134.67 107.94 131.4 107.94 126.63ZM151.409 138V135.09H139.979V127.77H150.209V124.98H139.979V118.41H151.409V115.5H136.559V138H151.409ZM161.66 126.81L154.49 138H158.36L163.52 129.99H163.82L169.01 138H172.88L166.07 127.38L173.69 115.5H169.85L164.18 124.2H163.88L158.24 115.5H154.4L161.66 126.81ZM180.115 138V127.77H185.035C189.235 127.77 192.025 125.49 192.025 121.44C192.025 117.48 188.875 115.5 185.035 115.5H176.695V138H180.115ZM185.035 118.26C187.405 118.26 188.905 119.31 188.905 121.53C188.905 123.87 187.495 124.98 185.035 124.98H180.115V118.26H185.035ZM194.273 138H207.683V135.09H197.693V115.5H194.273V138ZM209.93 126.54C209.93 132.75 213.23 138 220.55 138C227.87 138 231.47 132.72 231.47 126.42C231.47 120.18 227.96 114.96 220.7 114.96C213.35 114.96 209.93 120.27 209.93 126.54ZM213.35 126.63C213.35 121.83 215.24 118.29 220.7 118.29C226.1 118.29 228.02 121.74 228.02 126.48C228.02 131.31 226.01 134.67 220.55 134.67C215.18 134.67 213.35 131.4 213.35 126.63ZM234.469 138H237.889V127.47H242.509C244.909 127.47 246.079 128.52 246.079 130.77V138H249.499V129.45C249.499 129.45 246.169 126.93 245.839 126.78V126.48C248.959 125.88 249.799 123.57 249.799 121.14C249.799 117.09 246.559 115.5 242.809 115.5H234.469V138ZM237.889 118.56H242.809C245.089 118.56 246.679 119.34 246.679 121.53C246.679 123.81 245.209 124.71 242.809 124.71H237.889V118.56ZM267.659 138V135.09H256.229V127.77H266.459V124.98H256.229V118.41H267.659V115.5H252.809V138H267.659ZM277.4 138H280.82V121.2H281.12L291.26 138H295.01V115.5L291.59 115.68V132.69H291.29L280.88 115.5H277.4V138ZM312.864 138V135.09H301.434V127.77H311.664V124.98H301.434V118.41H312.864V115.5H298.014V138H312.864ZM314.355 115.5L319.245 138H322.785L327.405 121.44H327.705L332.475 138H335.925L340.815 115.5H337.395L333.945 131.79H333.645L329.895 118.35H325.245L321.525 131.79H321.225L317.775 115.5H314.355ZM354.742 115.5H351.322V138H354.742V115.5ZM367.284 138C374.424 138 377.904 132.84 377.904 126.69C377.904 120.6 374.514 115.5 367.434 115.5H359.244V138H367.284ZM362.664 134.64V118.86H367.434C372.624 118.86 374.514 122.13 374.514 126.75C374.514 131.46 372.534 134.64 367.284 134.64H362.664ZM395.745 138V135.09H384.315V127.77H394.545V124.98H384.315V118.41H395.745V115.5H380.895V138H395.745ZM400.836 138L403.356 131.01H411.036L413.586 138H417.186L409.056 115.5H405.366L397.236 138H400.836ZM404.346 128.25L407.046 119.97H407.346L410.046 128.25H404.346ZM424.339 127.05C425.269 127.26 426.229 127.44 427.189 127.65C429.709 128.22 432.349 129.03 432.349 131.67C432.349 134.07 430.249 134.91 427.849 134.91C424.369 134.91 421.849 132.51 421.849 129.21V128.22L418.819 131.07V131.34C419.899 135.75 423.199 138 427.909 138C432.169 138 435.769 136.05 435.769 131.58C435.769 127.5 432.919 125.97 429.469 125.13C428.389 124.89 427.219 124.71 426.139 124.5C424.129 124.11 422.119 123.21 422.119 121.23C422.119 119.07 424.279 117.99 426.439 117.99C429.709 117.99 432.169 120.18 432.169 123.27V124.29L435.319 121.29V121.08C435.049 119.28 433.699 117.57 432.169 116.58C430.219 115.32 428.269 114.96 425.989 114.96C422.149 114.96 418.699 117.54 418.699 121.38C418.699 124.74 421.249 126.36 424.339 127.05ZM440.406 141.96L440.556 141.9C442.716 141.33 443.706 138.84 443.706 137.01C443.706 136.08 443.526 134.97 443.106 134.13H439.776V137.97H441.126C441.126 139.11 440.586 140.37 439.356 140.64L438.756 140.79L440.406 141.96ZM457.819 138L460.339 131.01H468.019L470.569 138H474.169L466.039 115.5H462.349L454.219 138H457.819ZM461.329 128.25L464.029 119.97H464.329L467.029 128.25H461.329ZM475.682 138H479.102V121.2H479.402L489.542 138H493.292V115.5L489.872 115.68V132.69H489.572L479.162 115.5H475.682V138ZM504.335 138C511.475 138 514.955 132.84 514.955 126.69C514.955 120.6 511.565 115.5 504.485 115.5H496.295V138H504.335ZM499.715 134.64V118.86H504.485C509.675 118.86 511.565 122.13 511.565 126.75C511.565 131.46 509.585 134.64 504.335 134.64H499.715ZM525.445 138H538.855V135.09H528.865V115.5H525.445V138ZM543.952 138L546.472 131.01H554.152L556.702 138H560.302L552.172 115.5H548.482L540.352 138H543.952ZM547.462 128.25L550.162 119.97H550.462L553.162 128.25H547.462ZM561.064 118.26H568.894V138H572.284V118.26H580.144V115.5H561.064V118.26ZM597.248 138V135.09H585.818V127.77H596.048V124.98H585.818V118.41H597.248V115.5H582.398V138H597.248ZM605.13 127.05C606.06 127.26 607.02 127.44 607.98 127.65C610.5 128.22 613.14 129.03 613.14 131.67C613.14 134.07 611.04 134.91 608.64 134.91C605.16 134.91 602.64 132.51 602.64 129.21V128.22L599.61 131.07V131.34C600.69 135.75 603.99 138 608.7 138C612.96 138 616.56 136.05 616.56 131.58C616.56 127.5 613.71 125.97 610.26 125.13C609.18 124.89 608.01 124.71 606.93 124.5C604.92 124.11 602.91 123.21 602.91 121.23C602.91 119.07 605.07 117.99 607.23 117.99C610.5 117.99 612.96 120.18 612.96 123.27V124.29L616.11 121.29V121.08C615.84 119.28 614.49 117.57 612.96 116.58C611.01 115.32 609.06 114.96 606.78 114.96C602.94 114.96 599.49 117.54 599.49 121.38C599.49 124.74 602.04 126.36 605.13 127.05ZM618.047 118.26H625.877V138H629.267V118.26H637.127V115.5H618.047V118.26ZM645.381 118.26H653.211V138H656.601V118.26H664.461V115.5H645.381V118.26ZM666.715 138H670.135V127.47H674.755C677.155 127.47 678.325 128.52 678.325 130.77V138H681.745V129.45C681.745 129.45 678.415 126.93 678.085 126.78V126.48C681.205 125.88 682.045 123.57 682.045 121.14C682.045 117.09 678.805 115.5 675.055 115.5H666.715V138ZM670.135 118.56H675.055C677.335 118.56 678.925 119.34 678.925 121.53C678.925 123.81 677.455 124.71 675.055 124.71H670.135V118.56ZM699.905 138V135.09H688.475V127.77H698.705V124.98H688.475V118.41H699.905V115.5H685.055V138H699.905ZM702.146 138H705.566V121.2H705.866L716.006 138H719.756V115.5L716.336 115.68V132.69H716.036L705.626 115.5H702.146V138ZM730.8 138C737.94 138 741.42 132.84 741.42 126.69C741.42 120.6 738.03 115.5 730.95 115.5H722.76V138H730.8ZM726.18 134.64V118.86H730.95C736.14 118.86 738.03 122.13 738.03 126.75C738.03 131.46 736.05 134.64 730.8 134.64H726.18ZM749.3 127.05C750.23 127.26 751.19 127.44 752.15 127.65C754.67 128.22 757.31 129.03 757.31 131.67C757.31 134.07 755.21 134.91 752.81 134.91C749.33 134.91 746.81 132.51 746.81 129.21V128.22L743.78 131.07V131.34C744.86 135.75 748.16 138 752.87 138C757.13 138 760.73 136.05 760.73 131.58C760.73 127.5 757.88 125.97 754.43 125.13C753.35 124.89 752.18 124.71 751.1 124.5C749.09 124.11 747.08 123.21 747.08 121.23C747.08 119.07 749.24 117.99 751.4 117.99C754.67 117.99 757.13 120.18 757.13 123.27V124.29L760.28 121.29V121.08C760.01 119.28 758.66 117.57 757.13 116.58C755.18 115.32 753.23 114.96 750.95 114.96C747.11 114.96 743.66 117.54 743.66 121.38C743.66 124.74 746.21 126.36 749.3 127.05ZM763.717 137.97H767.047V134.13H763.717V137.97ZM5.67 148.5H2.25V171H5.67V148.5ZM9.42188 171H12.8419V155.52H13.1419L18.1219 169.23H22.2919L27.3019 155.46H27.6019V171H31.0219V148.5H26.8819L20.3719 166.29H20.0719L13.5319 148.5H9.42188V171ZM40.7695 171H44.1895V154.2H44.4895L54.6295 171H58.3795V148.5L54.9595 148.68V165.69H54.6595L44.2495 148.5H40.7695V171ZM60.6328 159.54C60.6328 165.75 63.9328 171 71.2528 171C78.5728 171 82.1728 165.72 82.1728 159.42C82.1728 153.18 78.6628 147.96 71.4028 147.96C64.0528 147.96 60.6328 153.27 60.6328 159.54ZM64.0528 159.63C64.0528 154.83 65.9428 151.29 71.4028 151.29C76.8028 151.29 78.7228 154.74 78.7228 159.48C78.7228 164.31 76.7128 167.67 71.2528 167.67C65.8828 167.67 64.0528 164.4 64.0528 159.63ZM107.522 171V168.09H96.0919V160.77H106.322V157.98H96.0919V151.41H107.522V148.5H92.6719V171H107.522ZM117.774 159.81L110.604 171H114.474L119.634 162.99H119.934L125.124 171H128.994L122.184 160.38L129.804 148.5H125.964L120.294 157.2H119.994L114.354 148.5H110.514L117.774 159.81ZM136.229 171V160.77H141.149C145.349 160.77 148.139 158.49 148.139 154.44C148.139 150.48 144.989 148.5 141.149 148.5H132.809V171H136.229ZM141.149 151.26C143.519 151.26 145.019 152.31 145.019 154.53C145.019 156.87 143.609 157.98 141.149 157.98H136.229V151.26H141.149ZM165.237 171V168.09H153.807V160.77H164.037V157.98H153.807V151.41H165.237V148.5H150.387V171H165.237ZM168.229 171H171.649V160.47H176.269C178.669 160.47 179.839 161.52 179.839 163.77V171H183.259V162.45C183.259 162.45 179.929 159.93 179.599 159.78V159.48C182.719 158.88 183.559 156.57 183.559 154.14C183.559 150.09 180.319 148.5 176.569 148.5H168.229V171ZM171.649 151.56H176.569C178.849 151.56 180.439 152.34 180.439 154.53C180.439 156.81 178.969 157.71 176.569 157.71H171.649V151.56ZM185.068 151.26H192.898V171H196.288V151.26H204.148V148.5H185.068V151.26ZM206.402 170.97H209.732V167.13H206.402V170.97ZM221.725 148.5V171H225.145V161.01H235.615V171H239.035V148.5H235.615V158.22H225.145V148.5H221.725ZM244.127 171L246.647 164.01H254.327L256.877 171H260.477L252.347 148.5H248.657L240.527 171H244.127ZM247.637 161.25L250.337 152.97H250.637L253.337 161.25H247.637ZM269.19 171H273.06L281.76 148.5H278.1L271.32 166.71H271.02L264.21 148.5H260.49L269.19 171ZM298.098 171V168.09H286.668V160.77H296.898V157.98H286.668V151.41H298.098V148.5H283.248V171H298.098ZM310.69 171L313.21 164.01H320.89L323.44 171H327.04L318.91 148.5H315.22L307.09 171H310.69ZM314.2 161.25L316.9 152.97H317.2L319.9 161.25H314.2ZM336.803 171H350.213V168.09H340.223V148.5H336.803V171ZM352.459 159.54C352.459 165.75 355.759 171 363.079 171C370.399 171 373.999 165.72 373.999 159.42C373.999 153.18 370.489 147.96 363.229 147.96C355.879 147.96 352.459 153.27 352.459 159.54ZM355.879 159.63C355.879 154.83 357.769 151.29 363.229 151.29C368.629 151.29 370.549 154.74 370.549 159.48C370.549 164.31 368.539 167.67 363.079 167.67C357.709 167.67 355.879 164.4 355.879 159.63ZM376.248 159.54C376.248 165.75 379.548 171 386.868 171C394.188 171 397.788 165.72 397.788 159.42C397.788 153.18 394.278 147.96 387.018 147.96C379.668 147.96 376.248 153.27 376.248 159.54ZM379.668 159.63C379.668 154.83 381.558 151.29 387.018 151.29C392.418 151.29 394.338 154.74 394.338 159.48C394.338 164.31 392.328 167.67 386.868 167.67C381.498 167.67 379.668 164.4 379.668 159.63ZM400.787 171H404.207V164.04L406.547 161.46L414.257 171H418.667L408.647 158.91L417.017 149.1H412.877L404.507 159.21H404.207V148.5H400.787V171Z" fill="#A5A7AB"/>
<path d="M363 208.26H370.83V228H374.22V208.26H382.08V205.5H363V208.26ZM384.334 205.5V228H387.754V218.01H398.224V228H401.644V205.5H398.224V215.22H387.754V205.5H384.334ZM406.737 228L409.257 221.01H416.937L419.487 228H423.087L414.957 205.5H411.267L403.137 228H406.737ZM410.247 218.25L412.947 209.97H413.247L415.947 218.25H410.247ZM424.6 228H428.02V211.2H428.32L438.46 228H442.21V205.5L438.79 205.68V222.69H438.49L428.08 205.5H424.6V228ZM445.213 228H448.633V221.04L450.973 218.46L458.683 228H463.093L453.073 215.91L461.443 206.1H457.303L448.933 216.21H448.633V205.5H445.213V228ZM470.992 217.05C471.922 217.26 472.882 217.44 473.842 217.65C476.362 218.22 479.002 219.03 479.002 221.67C479.002 224.07 476.902 224.91 474.502 224.91C471.022 224.91 468.502 222.51 468.502 219.21V218.22L465.472 221.07V221.34C466.552 225.75 469.852 228 474.562 228C478.822 228 482.422 226.05 482.422 221.58C482.422 217.5 479.572 215.97 476.122 215.13C475.042 214.89 473.872 214.71 472.792 214.5C470.782 214.11 468.772 213.21 468.772 211.23C468.772 209.07 470.932 207.99 473.092 207.99C476.362 207.99 478.822 210.18 478.822 213.27V214.29L481.972 211.29V211.08C481.702 209.28 480.352 207.57 478.822 206.58C476.872 205.32 474.922 204.96 472.642 204.96C468.802 204.96 465.352 207.54 465.352 211.38C465.352 214.74 467.902 216.36 470.992 217.05Z" fill="#9CD08F"/>
</svg>
