<svg width="1306" height="382" viewBox="0 0 1306 382" fill="none" xmlns="http://www.w3.org/2000/svg">
<path d="M18.08 79.64C14.88 79.64 12.4133 78.7467 10.68 76.96C8.97333 75.1733 8.12 72.6 8.12 69.24V44.44H3.24C2.81333 44.44 2.45333 44.32 2.16 44.08C1.86667 43.8133 1.72 43.4133 1.72 42.88V40.04L8.36 39.2L10 26.68C10.08 26.28 10.2533 25.96 10.52 25.72C10.8133 25.4533 11.1867 25.32 11.64 25.32H15.24V39.28H26.96V44.44H15.24V68.76C15.24 70.4667 15.6533 71.7333 16.48 72.56C17.3067 73.3867 18.3733 73.8 19.68 73.8C20.4267 73.8 21.0667 73.7067 21.6 73.52C22.16 73.3067 22.64 73.08 23.04 72.84C23.44 72.6 23.7733 72.3867 24.04 72.2C24.3333 71.9867 24.5867 71.88 24.8 71.88C25.1733 71.88 25.5067 72.1067 25.8 72.56L27.88 75.96C26.6533 77.1067 25.1733 78.0133 23.44 78.68C21.7067 79.32 19.92 79.64 18.08 79.64ZM41.4719 43.88C43.2052 42.04 45.1252 40.5733 47.2319 39.48C49.3385 38.3867 51.7652 37.84 54.5119 37.84C56.7252 37.84 58.6719 38.2133 60.3519 38.96C62.0585 39.68 63.4719 40.72 64.5919 42.08C65.7385 43.4133 66.6052 45.0267 67.1919 46.92C67.7785 48.8133 68.0719 50.9067 68.0719 53.2V79H60.9119V53.2C60.9119 50.1333 60.2052 47.76 58.7919 46.08C57.4052 44.3733 55.2852 43.52 52.4319 43.52C50.3252 43.52 48.3519 44.0267 46.5119 45.04C44.6985 46.0533 43.0185 47.4267 41.4719 49.16V79H34.3119V20.08H41.4719V43.88ZM86.4413 38.48V79H79.3213V38.48H86.4413ZM87.9613 25.76C87.9613 26.4533 87.8146 27.1067 87.5213 27.72C87.2546 28.3067 86.8813 28.84 86.4013 29.32C85.9479 29.7733 85.4013 30.1333 84.7613 30.4C84.1479 30.6667 83.4946 30.8 82.8013 30.8C82.1079 30.8 81.4546 30.6667 80.8413 30.4C80.2546 30.1333 79.7346 29.7733 79.2813 29.32C78.8279 28.84 78.4679 28.3067 78.2013 27.72C77.9346 27.1067 77.8013 26.4533 77.8013 25.76C77.8013 25.0667 77.9346 24.4133 78.2013 23.8C78.4679 23.16 78.8279 22.6133 79.2813 22.16C79.7346 21.68 80.2546 21.3067 80.8413 21.04C81.4546 20.7733 82.1079 20.64 82.8013 20.64C83.4946 20.64 84.1479 20.7733 84.7613 21.04C85.4013 21.3067 85.9479 21.68 86.4013 22.16C86.8813 22.6133 87.2546 23.16 87.5213 23.8C87.8146 24.4133 87.9613 25.0667 87.9613 25.76ZM121.74 45.16C121.42 45.7467 120.927 46.04 120.26 46.04C119.86 46.04 119.407 45.8933 118.9 45.6C118.393 45.3067 117.767 44.9867 117.02 44.64C116.3 44.2667 115.433 43.9333 114.42 43.64C113.407 43.32 112.207 43.16 110.82 43.16C109.62 43.16 108.54 43.32 107.58 43.64C106.62 43.9333 105.793 44.3467 105.1 44.88C104.433 45.4133 103.913 46.04 103.54 46.76C103.193 47.4533 103.02 48.2133 103.02 49.04C103.02 50.08 103.313 50.9467 103.9 51.64C104.513 52.3333 105.313 52.9333 106.3 53.44C107.287 53.9467 108.407 54.4 109.66 54.8C110.913 55.1733 112.193 55.5867 113.5 56.04C114.833 56.4667 116.127 56.9467 117.38 57.48C118.633 58.0133 119.753 58.68 120.74 59.48C121.727 60.28 122.513 61.2667 123.1 62.44C123.713 63.5867 124.02 64.9733 124.02 66.6C124.02 68.4667 123.687 70.2 123.02 71.8C122.353 73.3733 121.367 74.7467 120.06 75.92C118.753 77.0667 117.153 77.9733 115.26 78.64C113.367 79.3067 111.18 79.64 108.7 79.64C105.873 79.64 103.313 79.1867 101.02 78.28C98.7267 77.3467 96.78 76.16 95.18 74.72L96.86 72C97.0733 71.6533 97.3267 71.3867 97.62 71.2C97.9133 71.0133 98.2867 70.92 98.74 70.92C99.22 70.92 99.7267 71.1067 100.26 71.48C100.793 71.8533 101.433 72.2667 102.18 72.72C102.953 73.1733 103.887 73.5867 104.98 73.96C106.073 74.3333 107.433 74.52 109.06 74.52C110.447 74.52 111.66 74.3467 112.7 74C113.74 73.6267 114.607 73.1333 115.3 72.52C115.993 71.9067 116.5 71.2 116.82 70.4C117.167 69.6 117.34 68.7467 117.34 67.84C117.34 66.72 117.033 65.8 116.42 65.08C115.833 64.3333 115.047 63.7067 114.06 63.2C113.073 62.6667 111.94 62.2133 110.66 61.84C109.407 61.44 108.113 61.0267 106.78 60.6C105.473 60.1733 104.18 59.6933 102.9 59.16C101.647 58.6 100.527 57.9067 99.54 57.08C98.5533 56.2533 97.7533 55.24 97.14 54.04C96.5533 52.8133 96.26 51.3333 96.26 49.6C96.26 48.0533 96.58 46.5733 97.22 45.16C97.86 43.72 98.7933 42.4667 100.02 41.4C101.247 40.3067 102.753 39.44 104.54 38.8C106.327 38.16 108.367 37.84 110.66 37.84C113.327 37.84 115.713 38.2667 117.82 39.12C119.953 39.9467 121.793 41.0933 123.34 42.56L121.74 45.16ZM160.738 38.48V79H153.618V38.48H160.738ZM162.258 25.76C162.258 26.4533 162.111 27.1067 161.818 27.72C161.551 28.3067 161.178 28.84 160.698 29.32C160.245 29.7733 159.698 30.1333 159.058 30.4C158.445 30.6667 157.791 30.8 157.098 30.8C156.405 30.8 155.751 30.6667 155.138 30.4C154.551 30.1333 154.031 29.7733 153.578 29.32C153.125 28.84 152.765 28.3067 152.498 27.72C152.231 27.1067 152.098 26.4533 152.098 25.76C152.098 25.0667 152.231 24.4133 152.498 23.8C152.765 23.16 153.125 22.6133 153.578 22.16C154.031 21.68 154.551 21.3067 155.138 21.04C155.751 20.7733 156.405 20.64 157.098 20.64C157.791 20.64 158.445 20.7733 159.058 21.04C159.698 21.3067 160.245 21.68 160.698 22.16C161.178 22.6133 161.551 23.16 161.818 23.8C162.111 24.4133 162.258 25.0667 162.258 25.76ZM196.037 45.16C195.717 45.7467 195.224 46.04 194.557 46.04C194.157 46.04 193.704 45.8933 193.197 45.6C192.69 45.3067 192.064 44.9867 191.317 44.64C190.597 44.2667 189.73 43.9333 188.717 43.64C187.704 43.32 186.504 43.16 185.117 43.16C183.917 43.16 182.837 43.32 181.877 43.64C180.917 43.9333 180.09 44.3467 179.397 44.88C178.73 45.4133 178.21 46.04 177.837 46.76C177.49 47.4533 177.317 48.2133 177.317 49.04C177.317 50.08 177.61 50.9467 178.197 51.64C178.81 52.3333 179.61 52.9333 180.597 53.44C181.584 53.9467 182.704 54.4 183.957 54.8C185.21 55.1733 186.49 55.5867 187.797 56.04C189.13 56.4667 190.424 56.9467 191.677 57.48C192.93 58.0133 194.05 58.68 195.037 59.48C196.024 60.28 196.81 61.2667 197.397 62.44C198.01 63.5867 198.317 64.9733 198.317 66.6C198.317 68.4667 197.984 70.2 197.317 71.8C196.65 73.3733 195.664 74.7467 194.357 75.92C193.05 77.0667 191.45 77.9733 189.557 78.64C187.664 79.3067 185.477 79.64 182.997 79.64C180.17 79.64 177.61 79.1867 175.317 78.28C173.024 77.3467 171.077 76.16 169.477 74.72L171.157 72C171.37 71.6533 171.624 71.3867 171.917 71.2C172.21 71.0133 172.584 70.92 173.037 70.92C173.517 70.92 174.024 71.1067 174.557 71.48C175.09 71.8533 175.73 72.2667 176.477 72.72C177.25 73.1733 178.184 73.5867 179.277 73.96C180.37 74.3333 181.73 74.52 183.357 74.52C184.744 74.52 185.957 74.3467 186.997 74C188.037 73.6267 188.904 73.1333 189.597 72.52C190.29 71.9067 190.797 71.2 191.117 70.4C191.464 69.6 191.637 68.7467 191.637 67.84C191.637 66.72 191.33 65.8 190.717 65.08C190.13 64.3333 189.344 63.7067 188.357 63.2C187.37 62.6667 186.237 62.2133 184.957 61.84C183.704 61.44 182.41 61.0267 181.077 60.6C179.77 60.1733 178.477 59.6933 177.197 59.16C175.944 58.6 174.824 57.9067 173.837 57.08C172.85 56.2533 172.05 55.24 171.437 54.04C170.85 52.8133 170.557 51.3333 170.557 49.6C170.557 48.0533 170.877 46.5733 171.517 45.16C172.157 43.72 173.09 42.4667 174.317 41.4C175.544 40.3067 177.05 39.44 178.837 38.8C180.624 38.16 182.664 37.84 184.957 37.84C187.624 37.84 190.01 38.2667 192.117 39.12C194.25 39.9467 196.09 41.0933 197.637 42.56L196.037 45.16Z" fill="#37393A"/>
<path d="M225.64 79V38.48H229.92C230.933 38.48 231.56 38.9733 231.8 39.96L232.32 44.12C233.813 42.28 235.493 40.7733 237.36 39.6C239.227 38.4267 241.387 37.84 243.84 37.84C246.56 37.84 248.76 38.6 250.44 40.12C252.147 41.64 253.373 43.6933 254.12 46.28C254.707 44.8133 255.453 43.5467 256.36 42.48C257.293 41.4133 258.333 40.5333 259.48 39.84C260.627 39.1467 261.84 38.64 263.12 38.32C264.427 38 265.747 37.84 267.08 37.84C269.213 37.84 271.107 38.1867 272.76 38.88C274.44 39.5467 275.853 40.5333 277 41.84C278.173 43.1467 279.067 44.76 279.68 46.68C280.293 48.5733 280.6 50.7467 280.6 53.2V79H273.44V53.2C273.44 50.0267 272.747 47.6267 271.36 46C269.973 44.3467 267.973 43.52 265.36 43.52C264.187 43.52 263.067 43.7333 262 44.16C260.96 44.56 260.04 45.16 259.24 45.96C258.44 46.76 257.8 47.7733 257.32 49C256.867 50.2 256.64 51.6 256.64 53.2V79H249.48V53.2C249.48 49.9467 248.827 47.52 247.52 45.92C246.213 44.32 244.307 43.52 241.8 43.52C240.04 43.52 238.413 44 236.92 44.96C235.427 45.8933 234.053 47.1733 232.8 48.8V79H225.64ZM325.366 38.48L302.766 90.96C302.526 91.4933 302.219 91.92 301.846 92.24C301.499 92.56 300.952 92.72 300.206 92.72H294.926L302.326 76.64L285.606 38.48H291.766C292.379 38.48 292.859 38.64 293.206 38.96C293.579 39.2533 293.832 39.5867 293.966 39.96L304.806 65.48C305.232 66.6 305.592 67.7733 305.886 69C306.259 67.7467 306.659 66.56 307.086 65.44L317.606 39.96C317.766 39.5333 318.032 39.1867 318.406 38.92C318.806 38.6267 319.246 38.48 319.726 38.48H325.366ZM357.331 69.24C358.638 71 360.065 72.24 361.611 72.96C363.185 73.68 364.905 74.04 366.771 74.04C370.585 74.04 373.505 72.6933 375.531 70C377.558 67.3067 378.571 63.2933 378.571 57.96C378.571 53 377.665 49.36 375.851 47.04C374.065 44.6933 371.505 43.52 368.171 43.52C365.851 43.52 363.825 44.0533 362.091 45.12C360.385 46.1867 358.798 47.6933 357.331 49.64V69.24ZM357.331 44.32C359.038 42.3467 360.958 40.7733 363.091 39.6C365.251 38.4267 367.731 37.84 370.531 37.84C372.905 37.84 375.038 38.2933 376.931 39.2C378.851 40.1067 380.478 41.4267 381.811 43.16C383.145 44.8667 384.158 46.9467 384.851 49.4C385.571 51.8533 385.931 54.6133 385.931 57.68C385.931 60.96 385.531 63.9467 384.731 66.64C383.931 69.3333 382.771 71.64 381.251 73.56C379.758 75.4533 377.931 76.9333 375.771 78C373.611 79.04 371.185 79.56 368.491 79.56C365.825 79.56 363.571 79.0667 361.731 78.08C359.918 77.0667 358.331 75.64 356.971 73.8L356.611 77.48C356.398 78.4933 355.785 79 354.771 79H350.171V20.08H357.331V44.32ZM402.297 20.08V79H395.177V20.08H402.297ZM430.923 37.84C433.883 37.84 436.55 38.3333 438.923 39.32C441.296 40.3067 443.323 41.7067 445.003 43.52C446.683 45.3333 447.963 47.5333 448.843 50.12C449.75 52.68 450.203 55.5467 450.203 58.72C450.203 61.92 449.75 64.8 448.843 67.36C447.963 69.92 446.683 72.1067 445.003 73.92C443.323 75.7333 441.296 77.1333 438.923 78.12C436.55 79.08 433.883 79.56 430.923 79.56C427.936 79.56 425.243 79.08 422.843 78.12C420.47 77.1333 418.443 75.7333 416.763 73.92C415.083 72.1067 413.79 69.92 412.883 67.36C412.003 64.8 411.563 61.92 411.563 58.72C411.563 55.5467 412.003 52.68 412.883 50.12C413.79 47.5333 415.083 45.3333 416.763 43.52C418.443 41.7067 420.47 40.3067 422.843 39.32C425.243 38.3333 427.936 37.84 430.923 37.84ZM430.923 74C434.923 74 437.91 72.6667 439.883 70C441.856 67.3067 442.843 63.56 442.843 58.76C442.843 53.9333 441.856 50.1733 439.883 47.48C437.91 44.7867 434.923 43.44 430.923 43.44C428.896 43.44 427.123 43.7867 425.603 44.48C424.11 45.1733 422.856 46.1733 421.843 47.48C420.856 48.7867 420.11 50.4 419.603 52.32C419.123 54.2133 418.883 56.36 418.883 58.76C418.883 63.56 419.87 67.3067 421.843 70C423.843 72.6667 426.87 74 430.923 74ZM473.119 59.2C474.559 59.2 475.826 59 476.919 58.6C478.013 58.2 478.933 57.64 479.679 56.92C480.426 56.2 480.986 55.3467 481.359 54.36C481.733 53.3467 481.919 52.24 481.919 51.04C481.919 48.56 481.159 46.5867 479.639 45.12C478.146 43.6533 475.973 42.92 473.119 42.92C470.239 42.92 468.039 43.6533 466.519 45.12C465.026 46.5867 464.279 48.56 464.279 51.04C464.279 52.24 464.466 53.3467 464.839 54.36C465.239 55.3467 465.813 56.2 466.559 56.92C467.306 57.64 468.226 58.2 469.319 58.6C470.413 59 471.679 59.2 473.119 59.2ZM485.959 81.2C485.959 80.2133 485.679 79.4133 485.119 78.8C484.559 78.1867 483.799 77.7067 482.839 77.36C481.906 77.0133 480.813 76.7733 479.559 76.64C478.306 76.48 476.973 76.36 475.559 76.28C474.173 76.2 472.759 76.12 471.319 76.04C469.879 75.96 468.493 75.8267 467.159 75.64C465.666 76.3333 464.439 77.2133 463.479 78.28C462.546 79.32 462.079 80.5467 462.079 81.96C462.079 82.8667 462.306 83.7067 462.759 84.48C463.239 85.28 463.959 85.96 464.919 86.52C465.879 87.1067 467.079 87.56 468.519 87.88C469.986 88.2267 471.706 88.4 473.679 88.4C475.599 88.4 477.319 88.2267 478.839 87.88C480.359 87.5333 481.639 87.04 482.679 86.4C483.746 85.76 484.559 85 485.119 84.12C485.679 83.24 485.959 82.2667 485.959 81.2ZM493.199 40.08V42.72C493.199 43.6 492.639 44.16 491.519 44.4L486.919 45C487.826 46.76 488.279 48.7067 488.279 50.84C488.279 52.8133 487.893 54.6133 487.119 56.24C486.373 57.84 485.333 59.2133 483.999 60.36C482.666 61.5067 481.066 62.3867 479.199 63C477.333 63.6133 475.306 63.92 473.119 63.92C471.226 63.92 469.439 63.6933 467.759 63.24C466.906 63.7733 466.253 64.3467 465.799 64.96C465.346 65.5467 465.119 66.1467 465.119 66.76C465.119 67.72 465.506 68.4533 466.279 68.96C467.079 69.44 468.119 69.7867 469.399 70C470.679 70.2133 472.133 70.3467 473.759 70.4C475.413 70.4533 477.093 70.5467 478.799 70.68C480.533 70.7867 482.213 70.9867 483.839 71.28C485.493 71.5733 486.959 72.0533 488.239 72.72C489.519 73.3867 490.546 74.3067 491.319 75.48C492.119 76.6533 492.519 78.1733 492.519 80.04C492.519 81.7733 492.079 83.4533 491.199 85.08C490.346 86.7067 489.106 88.1467 487.479 89.4C485.853 90.68 483.853 91.6933 481.479 92.44C479.133 93.2133 476.479 93.6 473.519 93.6C470.559 93.6 467.973 93.3067 465.759 92.72C463.546 92.1333 461.706 91.3467 460.239 90.36C458.773 89.3733 457.666 88.2267 456.919 86.92C456.199 85.64 455.839 84.2933 455.839 82.88C455.839 80.88 456.466 79.1867 457.719 77.8C458.973 76.4133 460.693 75.3067 462.879 74.48C461.679 73.9467 460.719 73.24 459.999 72.36C459.306 71.4533 458.959 70.24 458.959 68.72C458.959 68.1333 459.066 67.5333 459.279 66.92C459.493 66.28 459.813 65.6533 460.239 65.04C460.693 64.4 461.239 63.8 461.879 63.24C462.519 62.68 463.266 62.1867 464.119 61.76C462.119 60.64 460.559 59.16 459.439 57.32C458.319 55.4533 457.759 53.2933 457.759 50.84C457.759 48.8667 458.133 47.08 458.879 45.48C459.653 43.8533 460.719 42.48 462.079 41.36C463.439 40.2133 465.053 39.3333 466.919 38.72C468.813 38.1067 470.879 37.8 473.119 37.8C474.879 37.8 476.519 38 478.039 38.4C479.559 38.7733 480.946 39.3333 482.199 40.08H493.199ZM499.362 74.6C499.362 73.9067 499.482 73.2533 499.722 72.64C499.989 72.0267 500.335 71.4933 500.762 71.04C501.215 70.5867 501.749 70.2267 502.362 69.96C502.975 69.6933 503.629 69.56 504.322 69.56C505.015 69.56 505.669 69.6933 506.282 69.96C506.895 70.2267 507.429 70.5867 507.882 71.04C508.335 71.4933 508.695 72.0267 508.962 72.64C509.229 73.2533 509.362 73.9067 509.362 74.6C509.362 75.32 509.229 75.9867 508.962 76.6C508.695 77.1867 508.335 77.7067 507.882 78.16C507.429 78.6133 506.895 78.96 506.282 79.2C505.669 79.4667 505.015 79.6 504.322 79.6C503.629 79.6 502.975 79.4667 502.362 79.2C501.749 78.96 501.215 78.6133 500.762 78.16C500.335 77.7067 499.989 77.1867 499.722 76.6C499.482 75.9867 499.362 75.32 499.362 74.6Z" fill="#9CD08F"/>
<path d="M547.629 38.48V79H540.509V38.48H547.629ZM549.149 25.76C549.149 26.4533 549.002 27.1067 548.709 27.72C548.442 28.3067 548.069 28.84 547.589 29.32C547.135 29.7733 546.589 30.1333 545.949 30.4C545.335 30.6667 544.682 30.8 543.989 30.8C543.295 30.8 542.642 30.6667 542.029 30.4C541.442 30.1333 540.922 29.7733 540.469 29.32C540.015 28.84 539.655 28.3067 539.389 27.72C539.122 27.1067 538.989 26.4533 538.989 25.76C538.989 25.0667 539.122 24.4133 539.389 23.8C539.655 23.16 540.015 22.6133 540.469 22.16C540.922 21.68 541.442 21.3067 542.029 21.04C542.642 20.7733 543.295 20.64 543.989 20.64C544.682 20.64 545.335 20.7733 545.949 21.04C546.589 21.3067 547.135 21.68 547.589 22.16C548.069 22.6133 548.442 23.16 548.709 23.8C549.002 24.4133 549.149 25.0667 549.149 25.76ZM603.396 45.16C603.076 45.7467 602.583 46.04 601.916 46.04C601.516 46.04 601.063 45.8933 600.556 45.6C600.05 45.3067 599.423 44.9867 598.676 44.64C597.956 44.2667 597.09 43.9333 596.076 43.64C595.063 43.32 593.863 43.16 592.476 43.16C591.276 43.16 590.196 43.32 589.236 43.64C588.276 43.9333 587.45 44.3467 586.756 44.88C586.09 45.4133 585.57 46.04 585.196 46.76C584.85 47.4533 584.676 48.2133 584.676 49.04C584.676 50.08 584.97 50.9467 585.556 51.64C586.17 52.3333 586.97 52.9333 587.956 53.44C588.943 53.9467 590.063 54.4 591.316 54.8C592.57 55.1733 593.85 55.5867 595.156 56.04C596.49 56.4667 597.783 56.9467 599.036 57.48C600.29 58.0133 601.41 58.68 602.396 59.48C603.383 60.28 604.17 61.2667 604.756 62.44C605.37 63.5867 605.676 64.9733 605.676 66.6C605.676 68.4667 605.343 70.2 604.676 71.8C604.01 73.3733 603.023 74.7467 601.716 75.92C600.41 77.0667 598.81 77.9733 596.916 78.64C595.023 79.3067 592.836 79.64 590.356 79.64C587.53 79.64 584.97 79.1867 582.676 78.28C580.383 77.3467 578.436 76.16 576.836 74.72L578.516 72C578.73 71.6533 578.983 71.3867 579.276 71.2C579.57 71.0133 579.943 70.92 580.396 70.92C580.876 70.92 581.383 71.1067 581.916 71.48C582.45 71.8533 583.09 72.2667 583.836 72.72C584.61 73.1733 585.543 73.5867 586.636 73.96C587.73 74.3333 589.09 74.52 590.716 74.52C592.103 74.52 593.316 74.3467 594.356 74C595.396 73.6267 596.263 73.1333 596.956 72.52C597.65 71.9067 598.156 71.2 598.476 70.4C598.823 69.6 598.996 68.7467 598.996 67.84C598.996 66.72 598.69 65.8 598.076 65.08C597.49 64.3333 596.703 63.7067 595.716 63.2C594.73 62.6667 593.596 62.2133 592.316 61.84C591.063 61.44 589.77 61.0267 588.436 60.6C587.13 60.1733 585.836 59.6933 584.556 59.16C583.303 58.6 582.183 57.9067 581.196 57.08C580.21 56.2533 579.41 55.24 578.796 54.04C578.21 52.8133 577.916 51.3333 577.916 49.6C577.916 48.0533 578.236 46.5733 578.876 45.16C579.516 43.72 580.45 42.4667 581.676 41.4C582.903 40.3067 584.41 39.44 586.196 38.8C587.983 38.16 590.023 37.84 592.316 37.84C594.983 37.84 597.37 38.2667 599.476 39.12C601.61 39.9467 603.45 41.0933 604.996 42.56L603.396 45.16ZM621.566 43.88C623.299 42.04 625.219 40.5733 627.326 39.48C629.432 38.3867 631.859 37.84 634.606 37.84C636.819 37.84 638.766 38.2133 640.446 38.96C642.152 39.68 643.566 40.72 644.686 42.08C645.832 43.4133 646.699 45.0267 647.286 46.92C647.872 48.8133 648.166 50.9067 648.166 53.2V79H641.006V53.2C641.006 50.1333 640.299 47.76 638.886 46.08C637.499 44.3733 635.379 43.52 632.526 43.52C630.419 43.52 628.446 44.0267 626.606 45.04C624.792 46.0533 623.112 47.4267 621.566 49.16V79H614.406V20.08H621.566V43.88ZM680.975 60.76C677.695 60.8667 674.895 61.1333 672.575 61.56C670.282 61.96 668.402 62.4933 666.935 63.16C665.495 63.8267 664.442 64.6133 663.775 65.52C663.135 66.4267 662.815 67.44 662.815 68.56C662.815 69.6267 662.988 70.5467 663.335 71.32C663.682 72.0933 664.148 72.7333 664.735 73.24C665.348 73.72 666.055 74.08 666.855 74.32C667.682 74.5333 668.562 74.64 669.495 74.64C670.748 74.64 671.895 74.52 672.935 74.28C673.975 74.0133 674.948 73.64 675.855 73.16C676.788 72.68 677.668 72.1067 678.495 71.44C679.348 70.7733 680.175 70.0133 680.975 69.16V60.76ZM657.975 44.2C660.215 42.04 662.628 40.4267 665.215 39.36C667.802 38.2933 670.668 37.76 673.815 37.76C676.082 37.76 678.095 38.1333 679.855 38.88C681.615 39.6267 683.095 40.6667 684.295 42C685.495 43.3333 686.402 44.9467 687.015 46.84C687.628 48.7333 687.935 50.8133 687.935 53.08V79H684.775C684.082 79 683.548 78.8933 683.175 78.68C682.802 78.44 682.508 77.9867 682.295 77.32L681.495 73.48C680.428 74.4667 679.388 75.3467 678.375 76.12C677.362 76.8667 676.295 77.5067 675.175 78.04C674.055 78.5467 672.855 78.9333 671.575 79.2C670.322 79.4933 668.922 79.64 667.375 79.64C665.802 79.64 664.322 79.4267 662.935 79C661.548 78.5467 660.335 77.88 659.295 77C658.282 76.12 657.468 75.0133 656.855 73.68C656.268 72.32 655.975 70.72 655.975 68.88C655.975 67.28 656.415 65.7467 657.295 64.28C658.175 62.7867 659.602 61.4667 661.575 60.32C663.548 59.1733 666.122 58.24 669.295 57.52C672.468 56.7733 676.362 56.3467 680.975 56.24V53.08C680.975 49.9333 680.295 47.56 678.935 45.96C677.575 44.3333 675.588 43.52 672.975 43.52C671.215 43.52 669.735 43.7467 668.535 44.2C667.362 44.6267 666.335 45.12 665.455 45.68C664.602 46.2133 663.855 46.7067 663.215 47.16C662.602 47.5867 661.988 47.8 661.375 47.8C660.895 47.8 660.482 47.68 660.135 47.44C659.788 47.1733 659.495 46.8533 659.255 46.48L657.975 44.2ZM705.541 46.6C706.821 43.8267 708.394 41.6667 710.261 40.12C712.127 38.5467 714.407 37.76 717.101 37.76C717.954 37.76 718.767 37.8533 719.541 38.04C720.341 38.2267 721.047 38.52 721.661 38.92L721.141 44.24C720.981 44.9067 720.581 45.24 719.941 45.24C719.567 45.24 719.021 45.16 718.301 45C717.581 44.84 716.767 44.76 715.861 44.76C714.581 44.76 713.434 44.9467 712.421 45.32C711.434 45.6933 710.541 46.2533 709.741 47C708.967 47.72 708.261 48.6267 707.621 49.72C707.007 50.7867 706.447 52.0133 705.941 53.4V79H698.781V38.48H702.861C703.634 38.48 704.167 38.6267 704.461 38.92C704.754 39.2133 704.954 39.72 705.061 40.44L705.541 46.6ZM753.401 54.32C753.401 52.6667 753.161 51.16 752.681 49.8C752.227 48.4133 751.547 47.2267 750.641 46.24C749.761 45.2267 748.681 44.4533 747.401 43.92C746.121 43.36 744.667 43.08 743.041 43.08C739.627 43.08 736.921 44.08 734.921 46.08C732.947 48.0533 731.721 50.8 731.241 54.32H753.401ZM759.161 73.32C758.281 74.3867 757.227 75.32 756.001 76.12C754.774 76.8933 753.454 77.5333 752.041 78.04C750.654 78.5467 749.214 78.92 747.721 79.16C746.227 79.4267 744.747 79.56 743.281 79.56C740.481 79.56 737.894 79.0933 735.521 78.16C733.174 77.2 731.134 75.8133 729.401 74C727.694 72.16 726.361 69.8933 725.401 67.2C724.441 64.5067 723.961 61.4133 723.961 57.92C723.961 55.0933 724.387 52.4533 725.241 50C726.121 47.5467 727.374 45.4267 729.001 43.64C730.627 41.8267 732.614 40.4133 734.961 39.4C737.307 38.36 739.947 37.84 742.881 37.84C745.307 37.84 747.547 38.2533 749.601 39.08C751.681 39.88 753.467 41.0533 754.961 42.6C756.481 44.12 757.667 46.0133 758.521 48.28C759.374 50.52 759.801 53.08 759.801 55.96C759.801 57.08 759.681 57.8267 759.441 58.2C759.201 58.5733 758.747 58.76 758.081 58.76H731.001C731.081 61.32 731.427 63.5467 732.041 65.44C732.681 67.3333 733.561 68.92 734.681 70.2C735.801 71.4533 737.134 72.4 738.681 73.04C740.227 73.6533 741.961 73.96 743.881 73.96C745.667 73.96 747.201 73.76 748.481 73.36C749.787 72.9333 750.907 72.48 751.841 72C752.774 71.52 753.547 71.08 754.161 70.68C754.801 70.2533 755.347 70.04 755.801 70.04C756.387 70.04 756.841 70.2667 757.161 70.72L759.161 73.32ZM801.455 79.64C798.255 79.64 795.788 78.7467 794.055 76.96C792.348 75.1733 791.495 72.6 791.495 69.24V44.44H786.615C786.188 44.44 785.828 44.32 785.535 44.08C785.242 43.8133 785.095 43.4133 785.095 42.88V40.04L791.735 39.2L793.375 26.68C793.455 26.28 793.628 25.96 793.895 25.72C794.188 25.4533 794.562 25.32 795.015 25.32H798.615V39.28H810.335V44.44H798.615V68.76C798.615 70.4667 799.028 71.7333 799.855 72.56C800.682 73.3867 801.748 73.8 803.055 73.8C803.802 73.8 804.442 73.7067 804.975 73.52C805.535 73.3067 806.015 73.08 806.415 72.84C806.815 72.6 807.148 72.3867 807.415 72.2C807.708 71.9867 807.962 71.88 808.175 71.88C808.548 71.88 808.882 72.1067 809.175 72.56L811.255 75.96C810.028 77.1067 808.548 78.0133 806.815 78.68C805.082 79.32 803.295 79.64 801.455 79.64ZM824.847 43.88C826.58 42.04 828.5 40.5733 830.607 39.48C832.714 38.3867 835.14 37.84 837.887 37.84C840.1 37.84 842.047 38.2133 843.727 38.96C845.434 39.68 846.847 40.72 847.967 42.08C849.114 43.4133 849.98 45.0267 850.567 46.92C851.154 48.8133 851.447 50.9067 851.447 53.2V79H844.287V53.2C844.287 50.1333 843.58 47.76 842.167 46.08C840.78 44.3733 838.66 43.52 835.807 43.52C833.7 43.52 831.727 44.0267 829.887 45.04C828.074 46.0533 826.394 47.4267 824.847 49.16V79H817.687V20.08H824.847V43.88ZM869.816 38.48V79H862.696V38.48H869.816ZM871.336 25.76C871.336 26.4533 871.19 27.1067 870.896 27.72C870.63 28.3067 870.256 28.84 869.776 29.32C869.323 29.7733 868.776 30.1333 868.136 30.4C867.523 30.6667 866.87 30.8 866.176 30.8C865.483 30.8 864.83 30.6667 864.216 30.4C863.63 30.1333 863.11 29.7733 862.656 29.32C862.203 28.84 861.843 28.3067 861.576 27.72C861.31 27.1067 861.176 26.4533 861.176 25.76C861.176 25.0667 861.31 24.4133 861.576 23.8C861.843 23.16 862.203 22.6133 862.656 22.16C863.11 21.68 863.63 21.3067 864.216 21.04C864.83 20.7733 865.483 20.64 866.176 20.64C866.87 20.64 867.523 20.7733 868.136 21.04C868.776 21.3067 869.323 21.68 869.776 22.16C870.256 22.6133 870.63 23.16 870.896 23.8C871.19 24.4133 871.336 25.0667 871.336 25.76ZM888.235 44.36C889.115 43.3733 890.048 42.48 891.035 41.68C892.022 40.88 893.062 40.2 894.155 39.64C895.275 39.0533 896.448 38.6133 897.675 38.32C898.928 38 900.275 37.84 901.715 37.84C903.928 37.84 905.875 38.2133 907.555 38.96C909.262 39.68 910.675 40.72 911.795 42.08C912.942 43.4133 913.808 45.0267 914.395 46.92C914.982 48.8133 915.275 50.9067 915.275 53.2V79H908.115V53.2C908.115 50.1333 907.408 47.76 905.995 46.08C904.608 44.3733 902.488 43.52 899.635 43.52C897.528 43.52 895.555 44.0267 893.715 45.04C891.902 46.0533 890.222 47.4267 888.675 49.16V79H881.515V38.48H885.795C886.808 38.48 887.435 38.9733 887.675 39.96L888.235 44.36ZM940.244 59.2C941.684 59.2 942.951 59 944.044 58.6C945.138 58.2 946.058 57.64 946.804 56.92C947.551 56.2 948.111 55.3467 948.484 54.36C948.858 53.3467 949.044 52.24 949.044 51.04C949.044 48.56 948.284 46.5867 946.764 45.12C945.271 43.6533 943.098 42.92 940.244 42.92C937.364 42.92 935.164 43.6533 933.644 45.12C932.151 46.5867 931.404 48.56 931.404 51.04C931.404 52.24 931.591 53.3467 931.964 54.36C932.364 55.3467 932.938 56.2 933.684 56.92C934.431 57.64 935.351 58.2 936.444 58.6C937.538 59 938.804 59.2 940.244 59.2ZM953.084 81.2C953.084 80.2133 952.804 79.4133 952.244 78.8C951.684 78.1867 950.924 77.7067 949.964 77.36C949.031 77.0133 947.938 76.7733 946.684 76.64C945.431 76.48 944.098 76.36 942.684 76.28C941.298 76.2 939.884 76.12 938.444 76.04C937.004 75.96 935.618 75.8267 934.284 75.64C932.791 76.3333 931.564 77.2133 930.604 78.28C929.671 79.32 929.204 80.5467 929.204 81.96C929.204 82.8667 929.431 83.7067 929.884 84.48C930.364 85.28 931.084 85.96 932.044 86.52C933.004 87.1067 934.204 87.56 935.644 87.88C937.111 88.2267 938.831 88.4 940.804 88.4C942.724 88.4 944.444 88.2267 945.964 87.88C947.484 87.5333 948.764 87.04 949.804 86.4C950.871 85.76 951.684 85 952.244 84.12C952.804 83.24 953.084 82.2667 953.084 81.2ZM960.324 40.08V42.72C960.324 43.6 959.764 44.16 958.644 44.4L954.044 45C954.951 46.76 955.404 48.7067 955.404 50.84C955.404 52.8133 955.018 54.6133 954.244 56.24C953.498 57.84 952.458 59.2133 951.124 60.36C949.791 61.5067 948.191 62.3867 946.324 63C944.458 63.6133 942.431 63.92 940.244 63.92C938.351 63.92 936.564 63.6933 934.884 63.24C934.031 63.7733 933.378 64.3467 932.924 64.96C932.471 65.5467 932.244 66.1467 932.244 66.76C932.244 67.72 932.631 68.4533 933.404 68.96C934.204 69.44 935.244 69.7867 936.524 70C937.804 70.2133 939.258 70.3467 940.884 70.4C942.538 70.4533 944.218 70.5467 945.924 70.68C947.658 70.7867 949.338 70.9867 950.964 71.28C952.618 71.5733 954.084 72.0533 955.364 72.72C956.644 73.3867 957.671 74.3067 958.444 75.48C959.244 76.6533 959.644 78.1733 959.644 80.04C959.644 81.7733 959.204 83.4533 958.324 85.08C957.471 86.7067 956.231 88.1467 954.604 89.4C952.978 90.68 950.978 91.6933 948.604 92.44C946.258 93.2133 943.604 93.6 940.644 93.6C937.684 93.6 935.098 93.3067 932.884 92.72C930.671 92.1333 928.831 91.3467 927.364 90.36C925.898 89.3733 924.791 88.2267 924.044 86.92C923.324 85.64 922.964 84.2933 922.964 82.88C922.964 80.88 923.591 79.1867 924.844 77.8C926.098 76.4133 927.818 75.3067 930.004 74.48C928.804 73.9467 927.844 73.24 927.124 72.36C926.431 71.4533 926.084 70.24 926.084 68.72C926.084 68.1333 926.191 67.5333 926.404 66.92C926.618 66.28 926.938 65.6533 927.364 65.04C927.818 64.4 928.364 63.8 929.004 63.24C929.644 62.68 930.391 62.1867 931.244 61.76C929.244 60.64 927.684 59.16 926.564 57.32C925.444 55.4533 924.884 53.2933 924.884 50.84C924.884 48.8667 925.258 47.08 926.004 45.48C926.778 43.8533 927.844 42.48 929.204 41.36C930.564 40.2133 932.178 39.3333 934.044 38.72C935.938 38.1067 938.004 37.8 940.244 37.8C942.004 37.8 943.644 38 945.164 38.4C946.684 38.7733 948.071 39.3333 949.324 40.08H960.324ZM991.287 45.16C990.967 45.7467 990.474 46.04 989.807 46.04C989.407 46.04 988.954 45.8933 988.447 45.6C987.94 45.3067 987.314 44.9867 986.567 44.64C985.847 44.2667 984.98 43.9333 983.967 43.64C982.954 43.32 981.754 43.16 980.367 43.16C979.167 43.16 978.087 43.32 977.127 43.64C976.167 43.9333 975.34 44.3467 974.647 44.88C973.98 45.4133 973.46 46.04 973.087 46.76C972.74 47.4533 972.567 48.2133 972.567 49.04C972.567 50.08 972.86 50.9467 973.447 51.64C974.06 52.3333 974.86 52.9333 975.847 53.44C976.834 53.9467 977.954 54.4 979.207 54.8C980.46 55.1733 981.74 55.5867 983.047 56.04C984.38 56.4667 985.674 56.9467 986.927 57.48C988.18 58.0133 989.3 58.68 990.287 59.48C991.274 60.28 992.06 61.2667 992.647 62.44C993.26 63.5867 993.567 64.9733 993.567 66.6C993.567 68.4667 993.234 70.2 992.567 71.8C991.9 73.3733 990.914 74.7467 989.607 75.92C988.3 77.0667 986.7 77.9733 984.807 78.64C982.914 79.3067 980.727 79.64 978.247 79.64C975.42 79.64 972.86 79.1867 970.567 78.28C968.274 77.3467 966.327 76.16 964.727 74.72L966.407 72C966.62 71.6533 966.874 71.3867 967.167 71.2C967.46 71.0133 967.834 70.92 968.287 70.92C968.767 70.92 969.274 71.1067 969.807 71.48C970.34 71.8533 970.98 72.2667 971.727 72.72C972.5 73.1733 973.434 73.5867 974.527 73.96C975.62 74.3333 976.98 74.52 978.607 74.52C979.994 74.52 981.207 74.3467 982.247 74C983.287 73.6267 984.154 73.1333 984.847 72.52C985.54 71.9067 986.047 71.2 986.367 70.4C986.714 69.6 986.887 68.7467 986.887 67.84C986.887 66.72 986.58 65.8 985.967 65.08C985.38 64.3333 984.594 63.7067 983.607 63.2C982.62 62.6667 981.487 62.2133 980.207 61.84C978.954 61.44 977.66 61.0267 976.327 60.6C975.02 60.1733 973.727 59.6933 972.447 59.16C971.194 58.6 970.074 57.9067 969.087 57.08C968.1 56.2533 967.3 55.24 966.687 54.04C966.1 52.8133 965.807 51.3333 965.807 49.6C965.807 48.0533 966.127 46.5733 966.767 45.16C967.407 43.72 968.34 42.4667 969.567 41.4C970.794 40.3067 972.3 39.44 974.087 38.8C975.874 38.16 977.914 37.84 980.207 37.84C982.874 37.84 985.26 38.2667 987.367 39.12C989.5 39.9467 991.34 41.0933 992.887 42.56L991.287 45.16ZM1044.73 60.76C1041.45 60.8667 1038.65 61.1333 1036.33 61.56C1034.03 61.96 1032.15 62.4933 1030.69 63.16C1029.25 63.8267 1028.19 64.6133 1027.53 65.52C1026.89 66.4267 1026.57 67.44 1026.57 68.56C1026.57 69.6267 1026.74 70.5467 1027.09 71.32C1027.43 72.0933 1027.9 72.7333 1028.49 73.24C1029.1 73.72 1029.81 74.08 1030.61 74.32C1031.43 74.5333 1032.31 74.64 1033.25 74.64C1034.5 74.64 1035.65 74.52 1036.69 74.28C1037.73 74.0133 1038.7 73.64 1039.61 73.16C1040.54 72.68 1041.42 72.1067 1042.25 71.44C1043.1 70.7733 1043.93 70.0133 1044.73 69.16V60.76ZM1021.73 44.2C1023.97 42.04 1026.38 40.4267 1028.97 39.36C1031.55 38.2933 1034.42 37.76 1037.57 37.76C1039.83 37.76 1041.85 38.1333 1043.61 38.88C1045.37 39.6267 1046.85 40.6667 1048.05 42C1049.25 43.3333 1050.15 44.9467 1050.77 46.84C1051.38 48.7333 1051.69 50.8133 1051.69 53.08V79H1048.53C1047.83 79 1047.3 78.8933 1046.93 78.68C1046.55 78.44 1046.26 77.9867 1046.05 77.32L1045.25 73.48C1044.18 74.4667 1043.14 75.3467 1042.12 76.12C1041.11 76.8667 1040.05 77.5067 1038.93 78.04C1037.81 78.5467 1036.61 78.9333 1035.33 79.2C1034.07 79.4933 1032.67 79.64 1031.13 79.64C1029.55 79.64 1028.07 79.4267 1026.69 79C1025.3 78.5467 1024.09 77.88 1023.05 77C1022.03 76.12 1021.22 75.0133 1020.61 73.68C1020.02 72.32 1019.73 70.72 1019.73 68.88C1019.73 67.28 1020.17 65.7467 1021.05 64.28C1021.93 62.7867 1023.35 61.4667 1025.33 60.32C1027.3 59.1733 1029.87 58.24 1033.05 57.52C1036.22 56.7733 1040.11 56.3467 1044.73 56.24V53.08C1044.73 49.9333 1044.05 47.56 1042.69 45.96C1041.33 44.3333 1039.34 43.52 1036.73 43.52C1034.97 43.52 1033.49 43.7467 1032.29 44.2C1031.11 44.6267 1030.09 45.12 1029.21 45.68C1028.35 46.2133 1027.61 46.7067 1026.97 47.16C1026.35 47.5867 1025.74 47.8 1025.13 47.8C1024.65 47.8 1024.23 47.68 1023.89 47.44C1023.54 47.1733 1023.25 46.8533 1023 46.48L1021.73 44.2ZM1069.69 69.24C1071 71 1072.42 72.24 1073.97 72.96C1075.54 73.68 1077.26 74.04 1079.13 74.04C1082.94 74.04 1085.86 72.6933 1087.89 70C1089.92 67.3067 1090.93 63.2933 1090.93 57.96C1090.93 53 1090.02 49.36 1088.21 47.04C1086.42 44.6933 1083.86 43.52 1080.53 43.52C1078.21 43.52 1076.18 44.0533 1074.45 45.12C1072.74 46.1867 1071.16 47.6933 1069.69 49.64V69.24ZM1069.69 44.32C1071.4 42.3467 1073.32 40.7733 1075.45 39.6C1077.61 38.4267 1080.09 37.84 1082.89 37.84C1085.26 37.84 1087.4 38.2933 1089.29 39.2C1091.21 40.1067 1092.84 41.4267 1094.17 43.16C1095.5 44.8667 1096.52 46.9467 1097.21 49.4C1097.93 51.8533 1098.29 54.6133 1098.29 57.68C1098.29 60.96 1097.89 63.9467 1097.09 66.64C1096.29 69.3333 1095.13 71.64 1093.61 73.56C1092.12 75.4533 1090.29 76.9333 1088.13 78C1085.97 79.04 1083.54 79.56 1080.85 79.56C1078.18 79.56 1075.93 79.0667 1074.09 78.08C1072.28 77.0667 1070.69 75.64 1069.33 73.8L1068.97 77.48C1068.76 78.4933 1068.14 79 1067.13 79H1062.53V20.08H1069.69V44.32ZM1124.38 37.84C1127.34 37.84 1130 38.3333 1132.38 39.32C1134.75 40.3067 1136.78 41.7067 1138.46 43.52C1140.14 45.3333 1141.42 47.5333 1142.3 50.12C1143.2 52.68 1143.66 55.5467 1143.66 58.72C1143.66 61.92 1143.2 64.8 1142.3 67.36C1141.42 69.92 1140.14 72.1067 1138.46 73.92C1136.78 75.7333 1134.75 77.1333 1132.38 78.12C1130 79.08 1127.34 79.56 1124.38 79.56C1121.39 79.56 1118.7 79.08 1116.3 78.12C1113.92 77.1333 1111.9 75.7333 1110.22 73.92C1108.54 72.1067 1107.24 69.92 1106.34 67.36C1105.46 64.8 1105.02 61.92 1105.02 58.72C1105.02 55.5467 1105.46 52.68 1106.34 50.12C1107.24 47.5333 1108.54 45.3333 1110.22 43.52C1111.9 41.7067 1113.92 40.3067 1116.3 39.32C1118.7 38.3333 1121.39 37.84 1124.38 37.84ZM1124.38 74C1128.38 74 1131.36 72.6667 1133.34 70C1135.31 67.3067 1136.3 63.56 1136.3 58.76C1136.3 53.9333 1135.31 50.1733 1133.34 47.48C1131.36 44.7867 1128.38 43.44 1124.38 43.44C1122.35 43.44 1120.58 43.7867 1119.06 44.48C1117.56 45.1733 1116.31 46.1733 1115.3 47.48C1114.31 48.7867 1113.56 50.4 1113.06 52.32C1112.58 54.2133 1112.34 56.36 1112.34 58.76C1112.34 63.56 1113.32 67.3067 1115.3 70C1117.3 72.6667 1120.32 74 1124.38 74ZM1186.01 38.48V79H1181.77C1180.75 79 1180.11 78.5067 1179.85 77.52L1179.29 73.16C1177.53 75.1067 1175.55 76.68 1173.37 77.88C1171.18 79.0533 1168.67 79.64 1165.85 79.64C1163.63 79.64 1161.67 79.28 1159.97 78.56C1158.29 77.8133 1156.87 76.7733 1155.73 75.44C1154.58 74.1067 1153.71 72.4933 1153.13 70.6C1152.57 68.7067 1152.29 66.6133 1152.29 64.32V38.48H1159.41V64.32C1159.41 67.3867 1160.1 69.76 1161.49 71.44C1162.9 73.12 1165.05 73.96 1167.93 73.96C1170.03 73.96 1171.99 73.4667 1173.81 72.48C1175.65 71.4667 1177.34 70.08 1178.89 68.32V38.48H1186.01ZM1209.74 79.64C1206.54 79.64 1204.07 78.7467 1202.34 76.96C1200.63 75.1733 1199.78 72.6 1199.78 69.24V44.44H1194.9C1194.47 44.44 1194.11 44.32 1193.82 44.08C1193.52 43.8133 1193.38 43.4133 1193.38 42.88V40.04L1200.02 39.2L1201.66 26.68C1201.74 26.28 1201.91 25.96 1202.18 25.72C1202.47 25.4533 1202.84 25.32 1203.3 25.32H1206.9V39.28H1218.62V44.44H1206.9V68.76C1206.9 70.4667 1207.31 71.7333 1208.14 72.56C1208.96 73.3867 1210.03 73.8 1211.34 73.8C1212.08 73.8 1212.72 73.7067 1213.26 73.52C1213.82 73.3067 1214.3 73.08 1214.7 72.84C1215.1 72.6 1215.43 72.3867 1215.7 72.2C1215.99 71.9867 1216.24 71.88 1216.46 71.88C1216.83 71.88 1217.16 72.1067 1217.46 72.56L1219.54 75.96C1218.31 77.1067 1216.83 78.0133 1215.1 78.68C1213.36 79.32 1211.58 79.64 1209.74 79.64Z" fill="#37393A"/>
<path d="M228.52 106.48L215.4 147H209.76C209.067 147 208.587 146.547 208.32 145.64L199.36 118.16C199.147 117.547 198.973 116.933 198.84 116.32C198.707 115.68 198.573 115.053 198.44 114.44C198.307 115.053 198.173 115.68 198.04 116.32C197.907 116.933 197.733 117.56 197.52 118.2L188.4 145.64C188.16 146.547 187.627 147 186.8 147H181.44L168.32 106.48H173.92C174.48 106.48 174.947 106.627 175.32 106.92C175.72 107.213 175.987 107.56 176.12 107.96L183.88 134.04C184.333 135.96 184.693 137.773 184.96 139.48C185.2 138.6 185.44 137.707 185.68 136.8C185.947 135.893 186.227 134.973 186.52 134.04L195.08 107.8C195.213 107.4 195.44 107.067 195.76 106.8C196.107 106.533 196.52 106.4 197 106.4H200.12C200.653 106.4 201.093 106.533 201.44 106.8C201.787 107.067 202.027 107.4 202.16 107.8L210.52 134.04C210.813 134.973 211.08 135.893 211.32 136.8C211.56 137.707 211.787 138.6 212 139.48C212.133 138.6 212.293 137.72 212.48 136.84C212.693 135.933 212.92 135 213.16 134.04L221.08 107.96C221.213 107.533 221.467 107.187 221.84 106.92C222.213 106.627 222.653 106.48 223.16 106.48H228.52ZM262.026 122.32C262.026 120.667 261.786 119.16 261.306 117.8C260.852 116.413 260.172 115.227 259.266 114.24C258.386 113.227 257.306 112.453 256.026 111.92C254.746 111.36 253.292 111.08 251.666 111.08C248.252 111.08 245.546 112.08 243.546 114.08C241.572 116.053 240.346 118.8 239.866 122.32H262.026ZM267.786 141.32C266.906 142.387 265.852 143.32 264.626 144.12C263.399 144.893 262.079 145.533 260.666 146.04C259.279 146.547 257.839 146.92 256.346 147.16C254.852 147.427 253.372 147.56 251.906 147.56C249.106 147.56 246.519 147.093 244.146 146.16C241.799 145.2 239.759 143.813 238.026 142C236.319 140.16 234.986 137.893 234.026 135.2C233.066 132.507 232.586 129.413 232.586 125.92C232.586 123.093 233.012 120.453 233.866 118C234.746 115.547 235.999 113.427 237.626 111.64C239.252 109.827 241.239 108.413 243.586 107.4C245.932 106.36 248.572 105.84 251.506 105.84C253.932 105.84 256.172 106.253 258.226 107.08C260.306 107.88 262.092 109.053 263.586 110.6C265.106 112.12 266.292 114.013 267.146 116.28C267.999 118.52 268.426 121.08 268.426 123.96C268.426 125.08 268.306 125.827 268.066 126.2C267.826 126.573 267.372 126.76 266.706 126.76H239.626C239.706 129.32 240.052 131.547 240.666 133.44C241.306 135.333 242.186 136.92 243.306 138.2C244.426 139.453 245.759 140.4 247.306 141.04C248.852 141.653 250.586 141.96 252.506 141.96C254.292 141.96 255.826 141.76 257.106 141.36C258.412 140.933 259.532 140.48 260.466 140C261.399 139.52 262.172 139.08 262.786 138.68C263.426 138.253 263.972 138.04 264.426 138.04C265.012 138.04 265.466 138.267 265.786 138.72L267.786 141.32ZM284.331 137.24C285.638 139 287.065 140.24 288.611 140.96C290.185 141.68 291.905 142.04 293.771 142.04C297.585 142.04 300.505 140.693 302.531 138C304.558 135.307 305.571 131.293 305.571 125.96C305.571 121 304.665 117.36 302.851 115.04C301.065 112.693 298.505 111.52 295.171 111.52C292.851 111.52 290.825 112.053 289.091 113.12C287.385 114.187 285.798 115.693 284.331 117.64V137.24ZM284.331 112.32C286.038 110.347 287.958 108.773 290.091 107.6C292.251 106.427 294.731 105.84 297.531 105.84C299.905 105.84 302.038 106.293 303.931 107.2C305.851 108.107 307.478 109.427 308.811 111.16C310.145 112.867 311.158 114.947 311.851 117.4C312.571 119.853 312.931 122.613 312.931 125.68C312.931 128.96 312.531 131.947 311.731 134.64C310.931 137.333 309.771 139.64 308.251 141.56C306.758 143.453 304.931 144.933 302.771 146C300.611 147.04 298.185 147.56 295.491 147.56C292.825 147.56 290.571 147.067 288.731 146.08C286.918 145.067 285.331 143.64 283.971 141.8L283.611 145.48C283.398 146.493 282.785 147 281.771 147H277.171V88.08H284.331V112.32ZM368.806 116.12C367.472 114.333 366.032 113.093 364.486 112.4C362.939 111.68 361.206 111.32 359.286 111.32C355.526 111.32 352.632 112.667 350.606 115.36C348.579 118.053 347.566 121.893 347.566 126.88C347.566 129.52 347.792 131.787 348.246 133.68C348.699 135.547 349.366 137.093 350.246 138.32C351.126 139.52 352.206 140.4 353.486 140.96C354.766 141.52 356.219 141.8 357.846 141.8C360.192 141.8 362.232 141.267 363.966 140.2C365.726 139.133 367.339 137.627 368.806 135.68V116.12ZM375.926 88.08V147H371.686C370.672 147 370.032 146.507 369.766 145.52L369.126 140.6C367.392 142.68 365.419 144.36 363.206 145.64C360.992 146.92 358.432 147.56 355.526 147.56C353.206 147.56 351.099 147.12 349.206 146.24C347.312 145.333 345.699 144.013 344.366 142.28C343.032 140.547 342.006 138.387 341.286 135.8C340.566 133.213 340.206 130.24 340.206 126.88C340.206 123.893 340.606 121.12 341.406 118.56C342.206 115.973 343.352 113.733 344.846 111.84C346.339 109.947 348.166 108.467 350.326 107.4C352.512 106.307 354.966 105.76 357.686 105.76C360.166 105.76 362.286 106.187 364.046 107.04C365.832 107.867 367.419 109.027 368.806 110.52V88.08H375.926ZM414.291 122.32C414.291 120.667 414.051 119.16 413.571 117.8C413.118 116.413 412.438 115.227 411.531 114.24C410.651 113.227 409.571 112.453 408.291 111.92C407.011 111.36 405.558 111.08 403.931 111.08C400.518 111.08 397.811 112.08 395.811 114.08C393.838 116.053 392.611 118.8 392.131 122.32H414.291ZM420.051 141.32C419.171 142.387 418.118 143.32 416.891 144.12C415.665 144.893 414.345 145.533 412.931 146.04C411.545 146.547 410.105 146.92 408.611 147.16C407.118 147.427 405.638 147.56 404.171 147.56C401.371 147.56 398.785 147.093 396.411 146.16C394.065 145.2 392.025 143.813 390.291 142C388.585 140.16 387.251 137.893 386.291 135.2C385.331 132.507 384.851 129.413 384.851 125.92C384.851 123.093 385.278 120.453 386.131 118C387.011 115.547 388.265 113.427 389.891 111.64C391.518 109.827 393.505 108.413 395.851 107.4C398.198 106.36 400.838 105.84 403.771 105.84C406.198 105.84 408.438 106.253 410.491 107.08C412.571 107.88 414.358 109.053 415.851 110.6C417.371 112.12 418.558 114.013 419.411 116.28C420.265 118.52 420.691 121.08 420.691 123.96C420.691 125.08 420.571 125.827 420.331 126.2C420.091 126.573 419.638 126.76 418.971 126.76H391.891C391.971 129.32 392.318 131.547 392.931 133.44C393.571 135.333 394.451 136.92 395.571 138.2C396.691 139.453 398.025 140.4 399.571 141.04C401.118 141.653 402.851 141.96 404.771 141.96C406.558 141.96 408.091 141.76 409.371 141.36C410.678 140.933 411.798 140.48 412.731 140C413.665 139.52 414.438 139.08 415.051 138.68C415.691 138.253 416.238 138.04 416.691 138.04C417.278 138.04 417.731 138.267 418.051 138.72L420.051 141.32ZM453.037 113.16C452.717 113.747 452.224 114.04 451.557 114.04C451.157 114.04 450.704 113.893 450.197 113.6C449.69 113.307 449.064 112.987 448.317 112.64C447.597 112.267 446.73 111.933 445.717 111.64C444.704 111.32 443.504 111.16 442.117 111.16C440.917 111.16 439.837 111.32 438.877 111.64C437.917 111.933 437.09 112.347 436.397 112.88C435.73 113.413 435.21 114.04 434.837 114.76C434.49 115.453 434.317 116.213 434.317 117.04C434.317 118.08 434.61 118.947 435.197 119.64C435.81 120.333 436.61 120.933 437.597 121.44C438.584 121.947 439.704 122.4 440.957 122.8C442.21 123.173 443.49 123.587 444.797 124.04C446.13 124.467 447.424 124.947 448.677 125.48C449.93 126.013 451.05 126.68 452.037 127.48C453.024 128.28 453.81 129.267 454.397 130.44C455.01 131.587 455.317 132.973 455.317 134.6C455.317 136.467 454.984 138.2 454.317 139.8C453.65 141.373 452.664 142.747 451.357 143.92C450.05 145.067 448.45 145.973 446.557 146.64C444.664 147.307 442.477 147.64 439.997 147.64C437.17 147.64 434.61 147.187 432.317 146.28C430.024 145.347 428.077 144.16 426.477 142.72L428.157 140C428.37 139.653 428.624 139.387 428.917 139.2C429.21 139.013 429.584 138.92 430.037 138.92C430.517 138.92 431.024 139.107 431.557 139.48C432.09 139.853 432.73 140.267 433.477 140.72C434.25 141.173 435.184 141.587 436.277 141.96C437.37 142.333 438.73 142.52 440.357 142.52C441.744 142.52 442.957 142.347 443.997 142C445.037 141.627 445.904 141.133 446.597 140.52C447.29 139.907 447.797 139.2 448.117 138.4C448.464 137.6 448.637 136.747 448.637 135.84C448.637 134.72 448.33 133.8 447.717 133.08C447.13 132.333 446.344 131.707 445.357 131.2C444.37 130.667 443.237 130.213 441.957 129.84C440.704 129.44 439.41 129.027 438.077 128.6C436.77 128.173 435.477 127.693 434.197 127.16C432.944 126.6 431.824 125.907 430.837 125.08C429.85 124.253 429.05 123.24 428.437 122.04C427.85 120.813 427.557 119.333 427.557 117.6C427.557 116.053 427.877 114.573 428.517 113.16C429.157 111.72 430.09 110.467 431.317 109.4C432.544 108.307 434.05 107.44 435.837 106.8C437.624 106.16 439.664 105.84 441.957 105.84C444.624 105.84 447.01 106.267 449.117 107.12C451.25 107.947 453.09 109.093 454.637 110.56L453.037 113.16ZM471.566 106.48V147H464.446V106.48H471.566ZM473.086 93.76C473.086 94.4533 472.94 95.1067 472.646 95.72C472.38 96.3067 472.006 96.84 471.526 97.32C471.073 97.7733 470.526 98.1333 469.886 98.4C469.273 98.6667 468.62 98.8 467.926 98.8C467.233 98.8 466.58 98.6667 465.966 98.4C465.38 98.1333 464.86 97.7733 464.406 97.32C463.953 96.84 463.593 96.3067 463.326 95.72C463.06 95.1067 462.926 94.4533 462.926 93.76C462.926 93.0667 463.06 92.4133 463.326 91.8C463.593 91.16 463.953 90.6133 464.406 90.16C464.86 89.68 465.38 89.3067 465.966 89.04C466.58 88.7733 467.233 88.64 467.926 88.64C468.62 88.64 469.273 88.7733 469.886 89.04C470.526 89.3067 471.073 89.68 471.526 90.16C472.006 90.6133 472.38 91.16 472.646 91.8C472.94 92.4133 473.086 93.0667 473.086 93.76ZM497.385 127.2C498.825 127.2 500.092 127 501.185 126.6C502.278 126.2 503.198 125.64 503.945 124.92C504.692 124.2 505.252 123.347 505.625 122.36C505.998 121.347 506.185 120.24 506.185 119.04C506.185 116.56 505.425 114.587 503.905 113.12C502.412 111.653 500.238 110.92 497.385 110.92C494.505 110.92 492.305 111.653 490.785 113.12C489.292 114.587 488.545 116.56 488.545 119.04C488.545 120.24 488.732 121.347 489.105 122.36C489.505 123.347 490.078 124.2 490.825 124.92C491.572 125.64 492.492 126.2 493.585 126.6C494.678 127 495.945 127.2 497.385 127.2ZM510.225 149.2C510.225 148.213 509.945 147.413 509.385 146.8C508.825 146.187 508.065 145.707 507.105 145.36C506.172 145.013 505.078 144.773 503.825 144.64C502.572 144.48 501.238 144.36 499.825 144.28C498.438 144.2 497.025 144.12 495.585 144.04C494.145 143.96 492.758 143.827 491.425 143.64C489.932 144.333 488.705 145.213 487.745 146.28C486.812 147.32 486.345 148.547 486.345 149.96C486.345 150.867 486.572 151.707 487.025 152.48C487.505 153.28 488.225 153.96 489.185 154.52C490.145 155.107 491.345 155.56 492.785 155.88C494.252 156.227 495.972 156.4 497.945 156.4C499.865 156.4 501.585 156.227 503.105 155.88C504.625 155.533 505.905 155.04 506.945 154.4C508.012 153.76 508.825 153 509.385 152.12C509.945 151.24 510.225 150.267 510.225 149.2ZM517.465 108.08V110.72C517.465 111.6 516.905 112.16 515.785 112.4L511.185 113C512.092 114.76 512.545 116.707 512.545 118.84C512.545 120.813 512.158 122.613 511.385 124.24C510.638 125.84 509.598 127.213 508.265 128.36C506.932 129.507 505.332 130.387 503.465 131C501.598 131.613 499.572 131.92 497.385 131.92C495.492 131.92 493.705 131.693 492.025 131.24C491.172 131.773 490.518 132.347 490.065 132.96C489.612 133.547 489.385 134.147 489.385 134.76C489.385 135.72 489.772 136.453 490.545 136.96C491.345 137.44 492.385 137.787 493.665 138C494.945 138.213 496.398 138.347 498.025 138.4C499.678 138.453 501.358 138.547 503.065 138.68C504.798 138.787 506.478 138.987 508.105 139.28C509.758 139.573 511.225 140.053 512.505 140.72C513.785 141.387 514.812 142.307 515.585 143.48C516.385 144.653 516.785 146.173 516.785 148.04C516.785 149.773 516.345 151.453 515.465 153.08C514.612 154.707 513.372 156.147 511.745 157.4C510.118 158.68 508.118 159.693 505.745 160.44C503.398 161.213 500.745 161.6 497.785 161.6C494.825 161.6 492.238 161.307 490.025 160.72C487.812 160.133 485.972 159.347 484.505 158.36C483.038 157.373 481.932 156.227 481.185 154.92C480.465 153.64 480.105 152.293 480.105 150.88C480.105 148.88 480.732 147.187 481.985 145.8C483.238 144.413 484.958 143.307 487.145 142.48C485.945 141.947 484.985 141.24 484.265 140.36C483.572 139.453 483.225 138.24 483.225 136.72C483.225 136.133 483.332 135.533 483.545 134.92C483.758 134.28 484.078 133.653 484.505 133.04C484.958 132.4 485.505 131.8 486.145 131.24C486.785 130.68 487.532 130.187 488.385 129.76C486.385 128.64 484.825 127.16 483.705 125.32C482.585 123.453 482.025 121.293 482.025 118.84C482.025 116.867 482.398 115.08 483.145 113.48C483.918 111.853 484.985 110.48 486.345 109.36C487.705 108.213 489.318 107.333 491.185 106.72C493.078 106.107 495.145 105.8 497.385 105.8C499.145 105.8 500.785 106 502.305 106.4C503.825 106.773 505.212 107.333 506.465 108.08H517.465ZM531.548 112.36C532.428 111.373 533.361 110.48 534.348 109.68C535.334 108.88 536.374 108.2 537.468 107.64C538.588 107.053 539.761 106.613 540.988 106.32C542.241 106 543.588 105.84 545.028 105.84C547.241 105.84 549.188 106.213 550.868 106.96C552.574 107.68 553.988 108.72 555.108 110.08C556.254 111.413 557.121 113.027 557.708 114.92C558.294 116.813 558.588 118.907 558.588 121.2V147H551.428V121.2C551.428 118.133 550.721 115.76 549.308 114.08C547.921 112.373 545.801 111.52 542.948 111.52C540.841 111.52 538.868 112.027 537.028 113.04C535.214 114.053 533.534 115.427 531.988 117.16V147H524.828V106.48H529.108C530.121 106.48 530.748 106.973 530.988 107.96L531.548 112.36ZM616.306 116.12C614.972 114.333 613.532 113.093 611.986 112.4C610.439 111.68 608.706 111.32 606.786 111.32C603.026 111.32 600.132 112.667 598.106 115.36C596.079 118.053 595.066 121.893 595.066 126.88C595.066 129.52 595.292 131.787 595.746 133.68C596.199 135.547 596.866 137.093 597.746 138.32C598.626 139.52 599.706 140.4 600.986 140.96C602.266 141.52 603.719 141.8 605.346 141.8C607.692 141.8 609.732 141.267 611.466 140.2C613.226 139.133 614.839 137.627 616.306 135.68V116.12ZM623.426 88.08V147H619.186C618.172 147 617.532 146.507 617.266 145.52L616.626 140.6C614.892 142.68 612.919 144.36 610.706 145.64C608.492 146.92 605.932 147.56 603.026 147.56C600.706 147.56 598.599 147.12 596.706 146.24C594.812 145.333 593.199 144.013 591.866 142.28C590.532 140.547 589.506 138.387 588.786 135.8C588.066 133.213 587.706 130.24 587.706 126.88C587.706 123.893 588.106 121.12 588.906 118.56C589.706 115.973 590.852 113.733 592.346 111.84C593.839 109.947 595.666 108.467 597.826 107.4C600.012 106.307 602.466 105.76 605.186 105.76C607.666 105.76 609.786 106.187 611.546 107.04C613.332 107.867 614.919 109.027 616.306 110.52V88.08H623.426ZM661.791 122.32C661.791 120.667 661.551 119.16 661.071 117.8C660.618 116.413 659.938 115.227 659.031 114.24C658.151 113.227 657.071 112.453 655.791 111.92C654.511 111.36 653.058 111.08 651.431 111.08C648.018 111.08 645.311 112.08 643.311 114.08C641.338 116.053 640.111 118.8 639.631 122.32H661.791ZM667.551 141.32C666.671 142.387 665.618 143.32 664.391 144.12C663.165 144.893 661.845 145.533 660.431 146.04C659.045 146.547 657.605 146.92 656.111 147.16C654.618 147.427 653.138 147.56 651.671 147.56C648.871 147.56 646.285 147.093 643.911 146.16C641.565 145.2 639.525 143.813 637.791 142C636.085 140.16 634.751 137.893 633.791 135.2C632.831 132.507 632.351 129.413 632.351 125.92C632.351 123.093 632.778 120.453 633.631 118C634.511 115.547 635.765 113.427 637.391 111.64C639.018 109.827 641.005 108.413 643.351 107.4C645.698 106.36 648.338 105.84 651.271 105.84C653.698 105.84 655.938 106.253 657.991 107.08C660.071 107.88 661.858 109.053 663.351 110.6C664.871 112.12 666.058 114.013 666.911 116.28C667.765 118.52 668.191 121.08 668.191 123.96C668.191 125.08 668.071 125.827 667.831 126.2C667.591 126.573 667.138 126.76 666.471 126.76H639.391C639.471 129.32 639.818 131.547 640.431 133.44C641.071 135.333 641.951 136.92 643.071 138.2C644.191 139.453 645.525 140.4 647.071 141.04C648.618 141.653 650.351 141.96 652.271 141.96C654.058 141.96 655.591 141.76 656.871 141.36C658.178 140.933 659.298 140.48 660.231 140C661.165 139.52 661.938 139.08 662.551 138.68C663.191 138.253 663.738 138.04 664.191 138.04C664.778 138.04 665.231 138.267 665.551 138.72L667.551 141.32ZM710.798 106.48L694.278 147H687.878L671.358 106.48H677.158C677.744 106.48 678.224 106.627 678.598 106.92C678.971 107.213 679.224 107.56 679.358 107.96L689.638 134.04C689.958 135.027 690.238 135.987 690.478 136.92C690.718 137.853 690.944 138.787 691.158 139.72C691.371 138.787 691.598 137.853 691.838 136.92C692.078 135.987 692.371 135.027 692.718 134.04L703.118 107.96C703.278 107.533 703.544 107.187 703.918 106.92C704.291 106.627 704.731 106.48 705.238 106.48H710.798ZM740.146 113.16C739.826 113.747 739.333 114.04 738.666 114.04C738.266 114.04 737.813 113.893 737.306 113.6C736.8 113.307 736.173 112.987 735.426 112.64C734.706 112.267 733.84 111.933 732.826 111.64C731.813 111.32 730.613 111.16 729.226 111.16C728.026 111.16 726.946 111.32 725.986 111.64C725.026 111.933 724.2 112.347 723.506 112.88C722.84 113.413 722.32 114.04 721.946 114.76C721.6 115.453 721.426 116.213 721.426 117.04C721.426 118.08 721.72 118.947 722.306 119.64C722.92 120.333 723.72 120.933 724.706 121.44C725.693 121.947 726.813 122.4 728.066 122.8C729.32 123.173 730.6 123.587 731.906 124.04C733.24 124.467 734.533 124.947 735.786 125.48C737.04 126.013 738.16 126.68 739.146 127.48C740.133 128.28 740.92 129.267 741.506 130.44C742.12 131.587 742.426 132.973 742.426 134.6C742.426 136.467 742.093 138.2 741.426 139.8C740.76 141.373 739.773 142.747 738.466 143.92C737.16 145.067 735.56 145.973 733.666 146.64C731.773 147.307 729.586 147.64 727.106 147.64C724.28 147.64 721.72 147.187 719.426 146.28C717.133 145.347 715.186 144.16 713.586 142.72L715.266 140C715.48 139.653 715.733 139.387 716.026 139.2C716.32 139.013 716.693 138.92 717.146 138.92C717.626 138.92 718.133 139.107 718.666 139.48C719.2 139.853 719.84 140.267 720.586 140.72C721.36 141.173 722.293 141.587 723.386 141.96C724.48 142.333 725.84 142.52 727.466 142.52C728.853 142.52 730.066 142.347 731.106 142C732.146 141.627 733.013 141.133 733.706 140.52C734.4 139.907 734.906 139.2 735.226 138.4C735.573 137.6 735.746 136.747 735.746 135.84C735.746 134.72 735.44 133.8 734.826 133.08C734.24 132.333 733.453 131.707 732.466 131.2C731.48 130.667 730.346 130.213 729.066 129.84C727.813 129.44 726.52 129.027 725.186 128.6C723.88 128.173 722.586 127.693 721.306 127.16C720.053 126.6 718.933 125.907 717.946 125.08C716.96 124.253 716.16 123.24 715.546 122.04C714.96 120.813 714.666 119.333 714.666 117.6C714.666 116.053 714.986 114.573 715.626 113.16C716.266 111.72 717.2 110.467 718.426 109.4C719.653 108.307 721.16 107.44 722.946 106.8C724.733 106.16 726.773 105.84 729.066 105.84C731.733 105.84 734.12 106.267 736.226 107.12C738.36 107.947 740.2 109.093 741.746 110.56L740.146 113.16ZM793.584 128.76C790.304 128.867 787.504 129.133 785.184 129.56C782.891 129.96 781.011 130.493 779.544 131.16C778.104 131.827 777.051 132.613 776.384 133.52C775.744 134.427 775.424 135.44 775.424 136.56C775.424 137.627 775.598 138.547 775.944 139.32C776.291 140.093 776.758 140.733 777.344 141.24C777.958 141.72 778.664 142.08 779.464 142.32C780.291 142.533 781.171 142.64 782.104 142.64C783.358 142.64 784.504 142.52 785.544 142.28C786.584 142.013 787.558 141.64 788.464 141.16C789.398 140.68 790.278 140.107 791.104 139.44C791.958 138.773 792.784 138.013 793.584 137.16V128.76ZM770.584 112.2C772.824 110.04 775.238 108.427 777.824 107.36C780.411 106.293 783.278 105.76 786.424 105.76C788.691 105.76 790.704 106.133 792.464 106.88C794.224 107.627 795.704 108.667 796.904 110C798.104 111.333 799.011 112.947 799.624 114.84C800.238 116.733 800.544 118.813 800.544 121.08V147H797.384C796.691 147 796.158 146.893 795.784 146.68C795.411 146.44 795.118 145.987 794.904 145.32L794.104 141.48C793.038 142.467 791.998 143.347 790.984 144.12C789.971 144.867 788.904 145.507 787.784 146.04C786.664 146.547 785.464 146.933 784.184 147.2C782.931 147.493 781.531 147.64 779.984 147.64C778.411 147.64 776.931 147.427 775.544 147C774.158 146.547 772.944 145.88 771.904 145C770.891 144.12 770.078 143.013 769.464 141.68C768.878 140.32 768.584 138.72 768.584 136.88C768.584 135.28 769.024 133.747 769.904 132.28C770.784 130.787 772.211 129.467 774.184 128.32C776.158 127.173 778.731 126.24 781.904 125.52C785.078 124.773 788.971 124.347 793.584 124.24V121.08C793.584 117.933 792.904 115.56 791.544 113.96C790.184 112.333 788.198 111.52 785.584 111.52C783.824 111.52 782.344 111.747 781.144 112.2C779.971 112.627 778.944 113.12 778.064 113.68C777.211 114.213 776.464 114.707 775.824 115.16C775.211 115.587 774.598 115.8 773.984 115.8C773.504 115.8 773.091 115.68 772.744 115.44C772.398 115.173 772.104 114.853 771.864 114.48L770.584 112.2ZM818.11 112.36C818.99 111.373 819.923 110.48 820.91 109.68C821.897 108.88 822.937 108.2 824.03 107.64C825.15 107.053 826.323 106.613 827.55 106.32C828.803 106 830.15 105.84 831.59 105.84C833.803 105.84 835.75 106.213 837.43 106.96C839.137 107.68 840.55 108.72 841.67 110.08C842.817 111.413 843.683 113.027 844.27 114.92C844.857 116.813 845.15 118.907 845.15 121.2V147H837.99V121.2C837.99 118.133 837.283 115.76 835.87 114.08C834.483 112.373 832.363 111.52 829.51 111.52C827.403 111.52 825.43 112.027 823.59 113.04C821.777 114.053 820.097 115.427 818.55 117.16V147H811.39V106.48H815.67C816.683 106.48 817.31 106.973 817.55 107.96L818.11 112.36ZM882.399 116.12C881.066 114.333 879.626 113.093 878.079 112.4C876.533 111.68 874.799 111.32 872.879 111.32C869.119 111.32 866.226 112.667 864.199 115.36C862.173 118.053 861.159 121.893 861.159 126.88C861.159 129.52 861.386 131.787 861.839 133.68C862.293 135.547 862.959 137.093 863.839 138.32C864.719 139.52 865.799 140.4 867.079 140.96C868.359 141.52 869.813 141.8 871.439 141.8C873.786 141.8 875.826 141.267 877.559 140.2C879.319 139.133 880.933 137.627 882.399 135.68V116.12ZM889.519 88.08V147H885.279C884.266 147 883.626 146.507 883.359 145.52L882.719 140.6C880.986 142.68 879.013 144.36 876.799 145.64C874.586 146.92 872.026 147.56 869.119 147.56C866.799 147.56 864.693 147.12 862.799 146.24C860.906 145.333 859.293 144.013 857.959 142.28C856.626 140.547 855.599 138.387 854.879 135.8C854.159 133.213 853.799 130.24 853.799 126.88C853.799 123.893 854.199 121.12 854.999 118.56C855.799 115.973 856.946 113.733 858.439 111.84C859.933 109.947 861.759 108.467 863.919 107.4C866.106 106.307 868.559 105.76 871.279 105.76C873.759 105.76 875.879 106.187 877.639 107.04C879.426 107.867 881.013 109.027 882.399 110.52V88.08H889.519ZM933.674 147.64C930.474 147.64 928.007 146.747 926.274 144.96C924.567 143.173 923.714 140.6 923.714 137.24V112.44H918.834C918.407 112.44 918.047 112.32 917.754 112.08C917.46 111.813 917.314 111.413 917.314 110.88V108.04L923.954 107.2L925.594 94.68C925.674 94.28 925.847 93.96 926.114 93.72C926.407 93.4533 926.78 93.32 927.234 93.32H930.834V107.28H942.554V112.44H930.834V136.76C930.834 138.467 931.247 139.733 932.074 140.56C932.9 141.387 933.967 141.8 935.274 141.8C936.02 141.8 936.66 141.707 937.194 141.52C937.754 141.307 938.234 141.08 938.634 140.84C939.034 140.6 939.367 140.387 939.634 140.2C939.927 139.987 940.18 139.88 940.394 139.88C940.767 139.88 941.1 140.107 941.394 140.56L943.474 143.96C942.247 145.107 940.767 146.013 939.034 146.68C937.3 147.32 935.514 147.64 933.674 147.64ZM976.791 122.32C976.791 120.667 976.551 119.16 976.071 117.8C975.618 116.413 974.938 115.227 974.031 114.24C973.151 113.227 972.071 112.453 970.791 111.92C969.511 111.36 968.058 111.08 966.431 111.08C963.018 111.08 960.311 112.08 958.311 114.08C956.338 116.053 955.111 118.8 954.631 122.32H976.791ZM982.551 141.32C981.671 142.387 980.618 143.32 979.391 144.12C978.165 144.893 976.845 145.533 975.431 146.04C974.045 146.547 972.605 146.92 971.111 147.16C969.618 147.427 968.138 147.56 966.671 147.56C963.871 147.56 961.285 147.093 958.911 146.16C956.565 145.2 954.525 143.813 952.791 142C951.085 140.16 949.751 137.893 948.791 135.2C947.831 132.507 947.351 129.413 947.351 125.92C947.351 123.093 947.778 120.453 948.631 118C949.511 115.547 950.765 113.427 952.391 111.64C954.018 109.827 956.005 108.413 958.351 107.4C960.698 106.36 963.338 105.84 966.271 105.84C968.698 105.84 970.938 106.253 972.991 107.08C975.071 107.88 976.858 109.053 978.351 110.6C979.871 112.12 981.058 114.013 981.911 116.28C982.765 118.52 983.191 121.08 983.191 123.96C983.191 125.08 983.071 125.827 982.831 126.2C982.591 126.573 982.138 126.76 981.471 126.76H954.391C954.471 129.32 954.818 131.547 955.431 133.44C956.071 135.333 956.951 136.92 958.071 138.2C959.191 139.453 960.525 140.4 962.071 141.04C963.618 141.653 965.351 141.96 967.271 141.96C969.058 141.96 970.591 141.76 971.871 141.36C973.178 140.933 974.298 140.48 975.231 140C976.165 139.52 976.938 139.08 977.551 138.68C978.191 138.253 978.738 138.04 979.191 138.04C979.778 138.04 980.231 138.267 980.551 138.72L982.551 141.32ZM1020.14 113.68C1019.92 113.973 1019.71 114.2 1019.5 114.36C1019.28 114.52 1018.99 114.6 1018.62 114.6C1018.22 114.6 1017.78 114.44 1017.3 114.12C1016.82 113.773 1016.22 113.4 1015.5 113C1014.8 112.6 1013.94 112.24 1012.9 111.92C1011.88 111.573 1010.63 111.4 1009.14 111.4C1007.14 111.4 1005.38 111.76 1003.86 112.48C1002.34 113.173 1001.06 114.187 1000.02 115.52C999.004 116.853 998.23 118.467 997.697 120.36C997.19 122.253 996.937 124.373 996.937 126.72C996.937 129.173 997.217 131.36 997.777 133.28C998.337 135.173 999.124 136.773 1000.14 138.08C1001.18 139.36 1002.42 140.347 1003.86 141.04C1005.32 141.707 1006.96 142.04 1008.78 142.04C1010.51 142.04 1011.94 141.84 1013.06 141.44C1014.18 141.013 1015.1 140.547 1015.82 140.04C1016.56 139.533 1017.18 139.08 1017.66 138.68C1018.16 138.253 1018.66 138.04 1019.14 138.04C1019.72 138.04 1020.18 138.267 1020.5 138.72L1022.5 141.32C1021.62 142.413 1020.62 143.347 1019.5 144.12C1018.38 144.893 1017.16 145.547 1015.86 146.08C1014.58 146.587 1013.23 146.96 1011.82 147.2C1010.4 147.44 1008.96 147.56 1007.5 147.56C1004.96 147.56 1002.6 147.093 1000.42 146.16C998.257 145.227 996.377 143.88 994.777 142.12C993.177 140.333 991.924 138.147 991.017 135.56C990.11 132.973 989.657 130.027 989.657 126.72C989.657 123.707 990.07 120.92 990.897 118.36C991.75 115.8 992.977 113.6 994.577 111.76C996.204 109.893 998.19 108.44 1000.54 107.4C1002.91 106.36 1005.63 105.84 1008.7 105.84C1011.55 105.84 1014.06 106.307 1016.22 107.24C1018.4 108.147 1020.34 109.44 1022.02 111.12L1020.14 113.68ZM1037.3 111.88C1039.03 110.04 1040.95 108.573 1043.06 107.48C1045.17 106.387 1047.59 105.84 1050.34 105.84C1052.55 105.84 1054.5 106.213 1056.18 106.96C1057.89 107.68 1059.3 108.72 1060.42 110.08C1061.57 111.413 1062.43 113.027 1063.02 114.92C1063.61 116.813 1063.9 118.907 1063.9 121.2V147H1056.74V121.2C1056.74 118.133 1056.03 115.76 1054.62 114.08C1053.23 112.373 1051.11 111.52 1048.26 111.52C1046.15 111.52 1044.18 112.027 1042.34 113.04C1040.53 114.053 1038.85 115.427 1037.3 117.16V147H1030.14V88.08H1037.3V111.88ZM1081.47 112.36C1082.35 111.373 1083.28 110.48 1084.27 109.68C1085.26 108.88 1086.3 108.2 1087.39 107.64C1088.51 107.053 1089.68 106.613 1090.91 106.32C1092.16 106 1093.51 105.84 1094.95 105.84C1097.16 105.84 1099.11 106.213 1100.79 106.96C1102.5 107.68 1103.91 108.72 1105.03 110.08C1106.18 111.413 1107.04 113.027 1107.63 114.92C1108.22 116.813 1108.51 118.907 1108.51 121.2V147H1101.35V121.2C1101.35 118.133 1100.64 115.76 1099.23 114.08C1097.84 112.373 1095.72 111.52 1092.87 111.52C1090.76 111.52 1088.79 112.027 1086.95 113.04C1085.14 114.053 1083.46 115.427 1081.91 117.16V147H1074.75V106.48H1079.03C1080.04 106.48 1080.67 106.973 1080.91 107.96L1081.47 112.36ZM1136.44 105.84C1139.4 105.84 1142.07 106.333 1144.44 107.32C1146.81 108.307 1148.84 109.707 1150.52 111.52C1152.2 113.333 1153.48 115.533 1154.36 118.12C1155.27 120.68 1155.72 123.547 1155.72 126.72C1155.72 129.92 1155.27 132.8 1154.36 135.36C1153.48 137.92 1152.2 140.107 1150.52 141.92C1148.84 143.733 1146.81 145.133 1144.44 146.12C1142.07 147.08 1139.4 147.56 1136.44 147.56C1133.45 147.56 1130.76 147.08 1128.36 146.12C1125.99 145.133 1123.96 143.733 1122.28 141.92C1120.6 140.107 1119.31 137.92 1118.4 135.36C1117.52 132.8 1117.08 129.92 1117.08 126.72C1117.08 123.547 1117.52 120.68 1118.4 118.12C1119.31 115.533 1120.6 113.333 1122.28 111.52C1123.96 109.707 1125.99 108.307 1128.36 107.32C1130.76 106.333 1133.45 105.84 1136.44 105.84ZM1136.44 142C1140.44 142 1143.43 140.667 1145.4 138C1147.37 135.307 1148.36 131.56 1148.36 126.76C1148.36 121.933 1147.37 118.173 1145.4 115.48C1143.43 112.787 1140.44 111.44 1136.44 111.44C1134.41 111.44 1132.64 111.787 1131.12 112.48C1129.63 113.173 1128.37 114.173 1127.36 115.48C1126.37 116.787 1125.63 118.4 1125.12 120.32C1124.64 122.213 1124.4 124.36 1124.4 126.76C1124.4 131.56 1125.39 135.307 1127.36 138C1129.36 140.667 1132.39 142 1136.44 142ZM1172.11 88.08V147H1164.99V88.08H1172.11ZM1200.74 105.84C1203.7 105.84 1206.36 106.333 1208.74 107.32C1211.11 108.307 1213.14 109.707 1214.82 111.52C1216.5 113.333 1217.78 115.533 1218.66 118.12C1219.56 120.68 1220.02 123.547 1220.02 126.72C1220.02 129.92 1219.56 132.8 1218.66 135.36C1217.78 137.92 1216.5 140.107 1214.82 141.92C1213.14 143.733 1211.11 145.133 1208.74 146.12C1206.36 147.08 1203.7 147.56 1200.74 147.56C1197.75 147.56 1195.06 147.08 1192.66 146.12C1190.28 145.133 1188.26 143.733 1186.58 141.92C1184.9 140.107 1183.6 137.92 1182.7 135.36C1181.82 132.8 1181.38 129.92 1181.38 126.72C1181.38 123.547 1181.82 120.68 1182.7 118.12C1183.6 115.533 1184.9 113.333 1186.58 111.52C1188.26 109.707 1190.28 108.307 1192.66 107.32C1195.06 106.333 1197.75 105.84 1200.74 105.84ZM1200.74 142C1204.74 142 1207.72 140.667 1209.7 138C1211.67 135.307 1212.66 131.56 1212.66 126.76C1212.66 121.933 1211.67 118.173 1209.7 115.48C1207.72 112.787 1204.74 111.44 1200.74 111.44C1198.71 111.44 1196.94 111.787 1195.42 112.48C1193.92 113.173 1192.67 114.173 1191.66 115.48C1190.67 116.787 1189.92 118.4 1189.42 120.32C1188.94 122.213 1188.7 124.36 1188.7 126.76C1188.7 131.56 1189.68 135.307 1191.66 138C1193.66 140.667 1196.68 142 1200.74 142ZM1242.93 127.2C1244.37 127.2 1245.64 127 1246.73 126.6C1247.83 126.2 1248.75 125.64 1249.49 124.92C1250.24 124.2 1250.8 123.347 1251.17 122.36C1251.55 121.347 1251.73 120.24 1251.73 119.04C1251.73 116.56 1250.97 114.587 1249.45 113.12C1247.96 111.653 1245.79 110.92 1242.93 110.92C1240.05 110.92 1237.85 111.653 1236.33 113.12C1234.84 114.587 1234.09 116.56 1234.09 119.04C1234.09 120.24 1234.28 121.347 1234.65 122.36C1235.05 123.347 1235.63 124.2 1236.37 124.92C1237.12 125.64 1238.04 126.2 1239.13 126.6C1240.23 127 1241.49 127.2 1242.93 127.2ZM1255.77 149.2C1255.77 148.213 1255.49 147.413 1254.93 146.8C1254.37 146.187 1253.61 145.707 1252.65 145.36C1251.72 145.013 1250.63 144.773 1249.37 144.64C1248.12 144.48 1246.79 144.36 1245.37 144.28C1243.99 144.2 1242.57 144.12 1241.13 144.04C1239.69 143.96 1238.31 143.827 1236.97 143.64C1235.48 144.333 1234.25 145.213 1233.29 146.28C1232.36 147.32 1231.89 148.547 1231.89 149.96C1231.89 150.867 1232.12 151.707 1232.57 152.48C1233.05 153.28 1233.77 153.96 1234.73 154.52C1235.69 155.107 1236.89 155.56 1238.33 155.88C1239.8 156.227 1241.52 156.4 1243.49 156.4C1245.41 156.4 1247.13 156.227 1248.65 155.88C1250.17 155.533 1251.45 155.04 1252.49 154.4C1253.56 153.76 1254.37 153 1254.93 152.12C1255.49 151.24 1255.77 150.267 1255.77 149.2ZM1263.01 108.08V110.72C1263.01 111.6 1262.45 112.16 1261.33 112.4L1256.73 113C1257.64 114.76 1258.09 116.707 1258.09 118.84C1258.09 120.813 1257.71 122.613 1256.93 124.24C1256.19 125.84 1255.15 127.213 1253.81 128.36C1252.48 129.507 1250.88 130.387 1249.01 131C1247.15 131.613 1245.12 131.92 1242.93 131.92C1241.04 131.92 1239.25 131.693 1237.57 131.24C1236.72 131.773 1236.07 132.347 1235.61 132.96C1235.16 133.547 1234.93 134.147 1234.93 134.76C1234.93 135.72 1235.32 136.453 1236.09 136.96C1236.89 137.44 1237.93 137.787 1239.21 138C1240.49 138.213 1241.95 138.347 1243.57 138.4C1245.23 138.453 1246.91 138.547 1248.61 138.68C1250.35 138.787 1252.03 138.987 1253.65 139.28C1255.31 139.573 1256.77 140.053 1258.05 140.72C1259.33 141.387 1260.36 142.307 1261.13 143.48C1261.93 144.653 1262.33 146.173 1262.33 148.04C1262.33 149.773 1261.89 151.453 1261.01 153.08C1260.16 154.707 1258.92 156.147 1257.29 157.4C1255.67 158.68 1253.67 159.693 1251.29 160.44C1248.95 161.213 1246.29 161.6 1243.33 161.6C1240.37 161.6 1237.79 161.307 1235.57 160.72C1233.36 160.133 1231.52 159.347 1230.05 158.36C1228.59 157.373 1227.48 156.227 1226.73 154.92C1226.01 153.64 1225.65 152.293 1225.65 150.88C1225.65 148.88 1226.28 147.187 1227.53 145.8C1228.79 144.413 1230.51 143.307 1232.69 142.48C1231.49 141.947 1230.53 141.24 1229.81 140.36C1229.12 139.453 1228.77 138.24 1228.77 136.72C1228.77 136.133 1228.88 135.533 1229.09 134.92C1229.31 134.28 1229.63 133.653 1230.05 133.04C1230.51 132.4 1231.05 131.8 1231.69 131.24C1232.33 130.68 1233.08 130.187 1233.93 129.76C1231.93 128.64 1230.37 127.16 1229.25 125.32C1228.13 123.453 1227.57 121.293 1227.57 118.84C1227.57 116.867 1227.95 115.08 1228.69 113.48C1229.47 111.853 1230.53 110.48 1231.89 109.36C1233.25 108.213 1234.87 107.333 1236.73 106.72C1238.63 106.107 1240.69 105.8 1242.93 105.8C1244.69 105.8 1246.33 106 1247.85 106.4C1249.37 106.773 1250.76 107.333 1252.01 108.08H1263.01ZM1305.33 106.48L1282.73 158.96C1282.49 159.493 1282.19 159.92 1281.81 160.24C1281.47 160.56 1280.92 160.72 1280.17 160.72H1274.89L1282.29 144.64L1265.57 106.48H1271.73C1272.35 106.48 1272.83 106.64 1273.17 106.96C1273.55 107.253 1273.8 107.587 1273.93 107.96L1284.77 133.48C1285.2 134.6 1285.56 135.773 1285.85 137C1286.23 135.747 1286.63 134.56 1287.05 133.44L1297.57 107.96C1297.73 107.533 1298 107.187 1298.37 106.92C1298.77 106.627 1299.21 106.48 1299.69 106.48H1305.33Z" fill="#37393A"/>
<path d="M94.8 220.88C96.5333 219.04 98.4533 217.573 100.56 216.48C102.667 215.387 105.093 214.84 107.84 214.84C110.053 214.84 112 215.213 113.68 215.96C115.387 216.68 116.8 217.72 117.92 219.08C119.067 220.413 119.933 222.027 120.52 223.92C121.107 225.813 121.4 227.907 121.4 230.2V256H114.24V230.2C114.24 227.133 113.533 224.76 112.12 223.08C110.733 221.373 108.613 220.52 105.76 220.52C103.653 220.52 101.68 221.027 99.84 222.04C98.0267 223.053 96.3467 224.427 94.8 226.16V256H87.64V197.08H94.8V220.88ZM154.209 237.76C150.929 237.867 148.129 238.133 145.809 238.56C143.516 238.96 141.636 239.493 140.169 240.16C138.729 240.827 137.676 241.613 137.009 242.52C136.369 243.427 136.049 244.44 136.049 245.56C136.049 246.627 136.223 247.547 136.569 248.32C136.916 249.093 137.383 249.733 137.969 250.24C138.583 250.72 139.289 251.08 140.089 251.32C140.916 251.533 141.796 251.64 142.729 251.64C143.983 251.64 145.129 251.52 146.169 251.28C147.209 251.013 148.183 250.64 149.089 250.16C150.023 249.68 150.903 249.107 151.729 248.44C152.583 247.773 153.409 247.013 154.209 246.16V237.76ZM131.209 221.2C133.449 219.04 135.863 217.427 138.449 216.36C141.036 215.293 143.903 214.76 147.049 214.76C149.316 214.76 151.329 215.133 153.089 215.88C154.849 216.627 156.329 217.667 157.529 219C158.729 220.333 159.636 221.947 160.249 223.84C160.863 225.733 161.169 227.813 161.169 230.08V256H158.009C157.316 256 156.783 255.893 156.409 255.68C156.036 255.44 155.743 254.987 155.529 254.32L154.729 250.48C153.663 251.467 152.623 252.347 151.609 253.12C150.596 253.867 149.529 254.507 148.409 255.04C147.289 255.547 146.089 255.933 144.809 256.2C143.556 256.493 142.156 256.64 140.609 256.64C139.036 256.64 137.556 256.427 136.169 256C134.783 255.547 133.569 254.88 132.529 254C131.516 253.12 130.703 252.013 130.089 250.68C129.503 249.32 129.209 247.72 129.209 245.88C129.209 244.28 129.649 242.747 130.529 241.28C131.409 239.787 132.836 238.467 134.809 237.32C136.783 236.173 139.356 235.24 142.529 234.52C145.703 233.773 149.596 233.347 154.209 233.24V230.08C154.209 226.933 153.529 224.56 152.169 222.96C150.809 221.333 148.823 220.52 146.209 220.52C144.449 220.52 142.969 220.747 141.769 221.2C140.596 221.627 139.569 222.12 138.689 222.68C137.836 223.213 137.089 223.707 136.449 224.16C135.836 224.587 135.223 224.8 134.609 224.8C134.129 224.8 133.716 224.68 133.369 224.44C133.023 224.173 132.729 223.853 132.489 223.48L131.209 221.2ZM205.876 215.48L189.356 256H182.956L166.436 215.48H172.236C172.822 215.48 173.302 215.627 173.676 215.92C174.049 216.213 174.302 216.56 174.436 216.96L184.716 243.04C185.036 244.027 185.316 244.987 185.556 245.92C185.796 246.853 186.022 247.787 186.236 248.72C186.449 247.787 186.676 246.853 186.916 245.92C187.156 244.987 187.449 244.027 187.796 243.04L198.196 216.96C198.356 216.533 198.622 216.187 198.996 215.92C199.369 215.627 199.809 215.48 200.316 215.48H205.876ZM238.432 231.32C238.432 229.667 238.192 228.16 237.712 226.8C237.259 225.413 236.579 224.227 235.672 223.24C234.792 222.227 233.712 221.453 232.432 220.92C231.152 220.36 229.699 220.08 228.072 220.08C224.659 220.08 221.952 221.08 219.952 223.08C217.979 225.053 216.752 227.8 216.272 231.32H238.432ZM244.192 250.32C243.312 251.387 242.259 252.32 241.032 253.12C239.805 253.893 238.485 254.533 237.072 255.04C235.685 255.547 234.245 255.92 232.752 256.16C231.259 256.427 229.779 256.56 228.312 256.56C225.512 256.56 222.925 256.093 220.552 255.16C218.205 254.2 216.165 252.813 214.432 251C212.725 249.16 211.392 246.893 210.432 244.2C209.472 241.507 208.992 238.413 208.992 234.92C208.992 232.093 209.419 229.453 210.272 227C211.152 224.547 212.405 222.427 214.032 220.64C215.659 218.827 217.645 217.413 219.992 216.4C222.339 215.36 224.979 214.84 227.912 214.84C230.339 214.84 232.579 215.253 234.632 216.08C236.712 216.88 238.499 218.053 239.992 219.6C241.512 221.12 242.699 223.013 243.552 225.28C244.405 227.52 244.832 230.08 244.832 232.96C244.832 234.08 244.712 234.827 244.472 235.2C244.232 235.573 243.779 235.76 243.112 235.76H216.032C216.112 238.32 216.459 240.547 217.072 242.44C217.712 244.333 218.592 245.92 219.712 247.2C220.832 248.453 222.165 249.4 223.712 250.04C225.259 250.653 226.992 250.96 228.912 250.96C230.699 250.96 232.232 250.76 233.512 250.36C234.819 249.933 235.939 249.48 236.872 249C237.805 248.52 238.579 248.08 239.192 247.68C239.832 247.253 240.379 247.04 240.832 247.04C241.419 247.04 241.872 247.267 242.192 247.72L244.192 250.32ZM296.006 237.76C292.726 237.867 289.926 238.133 287.606 238.56C285.313 238.96 283.433 239.493 281.966 240.16C280.526 240.827 279.473 241.613 278.806 242.52C278.166 243.427 277.846 244.44 277.846 245.56C277.846 246.627 278.02 247.547 278.366 248.32C278.713 249.093 279.18 249.733 279.766 250.24C280.38 250.72 281.086 251.08 281.886 251.32C282.713 251.533 283.593 251.64 284.526 251.64C285.78 251.64 286.926 251.52 287.966 251.28C289.006 251.013 289.98 250.64 290.886 250.16C291.82 249.68 292.7 249.107 293.526 248.44C294.38 247.773 295.206 247.013 296.006 246.16V237.76ZM273.006 221.2C275.246 219.04 277.66 217.427 280.246 216.36C282.833 215.293 285.7 214.76 288.846 214.76C291.113 214.76 293.126 215.133 294.886 215.88C296.646 216.627 298.126 217.667 299.326 219C300.526 220.333 301.433 221.947 302.046 223.84C302.66 225.733 302.966 227.813 302.966 230.08V256H299.806C299.113 256 298.58 255.893 298.206 255.68C297.833 255.44 297.54 254.987 297.326 254.32L296.526 250.48C295.46 251.467 294.42 252.347 293.406 253.12C292.393 253.867 291.326 254.507 290.206 255.04C289.086 255.547 287.886 255.933 286.606 256.2C285.353 256.493 283.953 256.64 282.406 256.64C280.833 256.64 279.353 256.427 277.966 256C276.58 255.547 275.366 254.88 274.326 254C273.313 253.12 272.5 252.013 271.886 250.68C271.3 249.32 271.006 247.72 271.006 245.88C271.006 244.28 271.446 242.747 272.326 241.28C273.206 239.787 274.633 238.467 276.606 237.32C278.58 236.173 281.153 235.24 284.326 234.52C287.5 233.773 291.393 233.347 296.006 233.24V230.08C296.006 226.933 295.326 224.56 293.966 222.96C292.606 221.333 290.62 220.52 288.006 220.52C286.246 220.52 284.766 220.747 283.566 221.2C282.393 221.627 281.366 222.12 280.486 222.68C279.633 223.213 278.886 223.707 278.246 224.16C277.633 224.587 277.02 224.8 276.406 224.8C275.926 224.8 275.513 224.68 275.166 224.44C274.82 224.173 274.526 223.853 274.286 223.48L273.006 221.2ZM341.641 197.08V256H334.521V197.08H341.641ZM370.267 214.84C373.227 214.84 375.894 215.333 378.267 216.32C380.64 217.307 382.667 218.707 384.347 220.52C386.027 222.333 387.307 224.533 388.187 227.12C389.094 229.68 389.547 232.547 389.547 235.72C389.547 238.92 389.094 241.8 388.187 244.36C387.307 246.92 386.027 249.107 384.347 250.92C382.667 252.733 380.64 254.133 378.267 255.12C375.894 256.08 373.227 256.56 370.267 256.56C367.28 256.56 364.587 256.08 362.187 255.12C359.814 254.133 357.787 252.733 356.107 250.92C354.427 249.107 353.134 246.92 352.227 244.36C351.347 241.8 350.907 238.92 350.907 235.72C350.907 232.547 351.347 229.68 352.227 227.12C353.134 224.533 354.427 222.333 356.107 220.52C357.787 218.707 359.814 217.307 362.187 216.32C364.587 215.333 367.28 214.84 370.267 214.84ZM370.267 251C374.267 251 377.254 249.667 379.227 247C381.2 244.307 382.187 240.56 382.187 235.76C382.187 230.933 381.2 227.173 379.227 224.48C377.254 221.787 374.267 220.44 370.267 220.44C368.24 220.44 366.467 220.787 364.947 221.48C363.454 222.173 362.2 223.173 361.187 224.48C360.2 225.787 359.454 227.4 358.947 229.32C358.467 231.213 358.227 233.36 358.227 235.76C358.227 240.56 359.214 244.307 361.187 247C363.187 249.667 366.214 251 370.267 251ZM415.658 214.84C418.618 214.84 421.284 215.333 423.658 216.32C426.031 217.307 428.058 218.707 429.738 220.52C431.418 222.333 432.698 224.533 433.578 227.12C434.484 229.68 434.938 232.547 434.938 235.72C434.938 238.92 434.484 241.8 433.578 244.36C432.698 246.92 431.418 249.107 429.738 250.92C428.058 252.733 426.031 254.133 423.658 255.12C421.284 256.08 418.618 256.56 415.658 256.56C412.671 256.56 409.978 256.08 407.578 255.12C405.204 254.133 403.178 252.733 401.498 250.92C399.818 249.107 398.524 246.92 397.618 244.36C396.738 241.8 396.298 238.92 396.298 235.72C396.298 232.547 396.738 229.68 397.618 227.12C398.524 224.533 399.818 222.333 401.498 220.52C403.178 218.707 405.204 217.307 407.578 216.32C409.978 215.333 412.671 214.84 415.658 214.84ZM415.658 251C419.658 251 422.644 249.667 424.618 247C426.591 244.307 427.578 240.56 427.578 235.76C427.578 230.933 426.591 227.173 424.618 224.48C422.644 221.787 419.658 220.44 415.658 220.44C413.631 220.44 411.858 220.787 410.338 221.48C408.844 222.173 407.591 223.173 406.578 224.48C405.591 225.787 404.844 227.4 404.338 229.32C403.858 231.213 403.618 233.36 403.618 235.76C403.618 240.56 404.604 244.307 406.578 247C408.578 249.667 411.604 251 415.658 251ZM451.128 197.08V231.76H452.968C453.501 231.76 453.941 231.693 454.288 231.56C454.661 231.4 455.048 231.093 455.448 230.64L468.248 216.92C468.621 216.467 469.008 216.12 469.408 215.88C469.835 215.613 470.395 215.48 471.088 215.48H477.528L462.608 231.36C461.888 232.267 461.115 232.973 460.288 233.48C460.768 233.8 461.195 234.173 461.568 234.6C461.968 235 462.341 235.467 462.688 236L478.528 256H472.168C471.555 256 471.021 255.907 470.568 255.72C470.141 255.507 469.768 255.133 469.448 254.6L456.128 238C455.728 237.44 455.328 237.08 454.928 236.92C454.555 236.733 453.968 236.64 453.168 236.64H451.128V256H443.968V197.08H451.128ZM483.393 251.6C483.393 250.907 483.513 250.253 483.753 249.64C484.02 249.027 484.366 248.493 484.793 248.04C485.246 247.587 485.78 247.227 486.393 246.96C487.006 246.693 487.66 246.56 488.353 246.56C489.046 246.56 489.7 246.693 490.313 246.96C490.926 247.227 491.46 247.587 491.913 248.04C492.366 248.493 492.726 249.027 492.993 249.64C493.26 250.253 493.393 250.907 493.393 251.6C493.393 252.32 493.26 252.987 492.993 253.6C492.726 254.187 492.366 254.707 491.913 255.16C491.46 255.613 490.926 255.96 490.313 256.2C489.7 256.467 489.046 256.6 488.353 256.6C487.66 256.6 487.006 256.467 486.393 256.2C485.78 255.96 485.246 255.613 484.793 255.16C484.366 254.707 484.02 254.187 483.753 253.6C483.513 252.987 483.393 252.32 483.393 251.6Z" fill="#37393A"/>
<path d="M390.08 365.64C386.88 365.64 384.413 364.747 382.68 362.96C380.973 361.173 380.12 358.6 380.12 355.24V330.44H375.24C374.813 330.44 374.453 330.32 374.16 330.08C373.867 329.813 373.72 329.413 373.72 328.88V326.04L380.36 325.2L382 312.68C382.08 312.28 382.253 311.96 382.52 311.72C382.813 311.453 383.187 311.32 383.64 311.32H387.24V325.28H398.96V330.44H387.24V354.76C387.24 356.467 387.653 357.733 388.48 358.56C389.307 359.387 390.373 359.8 391.68 359.8C392.427 359.8 393.067 359.707 393.6 359.52C394.16 359.307 394.64 359.08 395.04 358.84C395.44 358.6 395.773 358.387 396.04 358.2C396.333 357.987 396.587 357.88 396.8 357.88C397.173 357.88 397.507 358.107 397.8 358.56L399.88 361.96C398.653 363.107 397.173 364.013 395.44 364.68C393.707 365.32 391.92 365.64 390.08 365.64ZM413.472 329.88C415.205 328.04 417.125 326.573 419.232 325.48C421.339 324.387 423.765 323.84 426.512 323.84C428.725 323.84 430.672 324.213 432.352 324.96C434.059 325.68 435.472 326.72 436.592 328.08C437.739 329.413 438.605 331.027 439.192 332.92C439.779 334.813 440.072 336.907 440.072 339.2V365H432.912V339.2C432.912 336.133 432.205 333.76 430.792 332.08C429.405 330.373 427.285 329.52 424.432 329.52C422.325 329.52 420.352 330.027 418.512 331.04C416.699 332.053 415.019 333.427 413.472 335.16V365H406.312V306.08H413.472V329.88ZM472.881 346.76C469.601 346.867 466.801 347.133 464.481 347.56C462.188 347.96 460.308 348.493 458.841 349.16C457.401 349.827 456.348 350.613 455.681 351.52C455.041 352.427 454.721 353.44 454.721 354.56C454.721 355.627 454.895 356.547 455.241 357.32C455.588 358.093 456.055 358.733 456.641 359.24C457.255 359.72 457.961 360.08 458.761 360.32C459.588 360.533 460.468 360.64 461.401 360.64C462.655 360.64 463.801 360.52 464.841 360.28C465.881 360.013 466.855 359.64 467.761 359.16C468.695 358.68 469.575 358.107 470.401 357.44C471.255 356.773 472.081 356.013 472.881 355.16V346.76ZM449.881 330.2C452.121 328.04 454.535 326.427 457.121 325.36C459.708 324.293 462.575 323.76 465.721 323.76C467.988 323.76 470.001 324.133 471.761 324.88C473.521 325.627 475.001 326.667 476.201 328C477.401 329.333 478.308 330.947 478.921 332.84C479.535 334.733 479.841 336.813 479.841 339.08V365H476.681C475.988 365 475.455 364.893 475.081 364.68C474.708 364.44 474.415 363.987 474.201 363.32L473.401 359.48C472.335 360.467 471.295 361.347 470.281 362.12C469.268 362.867 468.201 363.507 467.081 364.04C465.961 364.547 464.761 364.933 463.481 365.2C462.228 365.493 460.828 365.64 459.281 365.64C457.708 365.64 456.228 365.427 454.841 365C453.455 364.547 452.241 363.88 451.201 363C450.188 362.12 449.375 361.013 448.761 359.68C448.175 358.32 447.881 356.72 447.881 354.88C447.881 353.28 448.321 351.747 449.201 350.28C450.081 348.787 451.508 347.467 453.481 346.32C455.455 345.173 458.028 344.24 461.201 343.52C464.375 342.773 468.268 342.347 472.881 342.24V339.08C472.881 335.933 472.201 333.56 470.841 331.96C469.481 330.333 467.495 329.52 464.881 329.52C463.121 329.52 461.641 329.747 460.441 330.2C459.268 330.627 458.241 331.12 457.361 331.68C456.508 332.213 455.761 332.707 455.121 333.16C454.508 333.587 453.895 333.8 453.281 333.8C452.801 333.8 452.388 333.68 452.041 333.44C451.695 333.173 451.401 332.853 451.161 332.48L449.881 330.2ZM497.407 330.36C498.287 329.373 499.22 328.48 500.207 327.68C501.194 326.88 502.234 326.2 503.327 325.64C504.447 325.053 505.62 324.613 506.847 324.32C508.1 324 509.447 323.84 510.887 323.84C513.1 323.84 515.047 324.213 516.727 324.96C518.434 325.68 519.847 326.72 520.967 328.08C522.114 329.413 522.98 331.027 523.567 332.92C524.154 334.813 524.447 336.907 524.447 339.2V365H517.287V339.2C517.287 336.133 516.58 333.76 515.167 332.08C513.78 330.373 511.66 329.52 508.807 329.52C506.7 329.52 504.727 330.027 502.887 331.04C501.074 332.053 499.394 333.427 497.847 335.16V365H490.687V324.48H494.967C495.98 324.48 496.607 324.973 496.847 325.96L497.407 330.36ZM542.456 306.08V340.76H544.296C544.83 340.76 545.27 340.693 545.616 340.56C545.99 340.4 546.376 340.093 546.776 339.64L559.576 325.92C559.95 325.467 560.336 325.12 560.736 324.88C561.163 324.613 561.723 324.48 562.416 324.48H568.856L553.936 340.36C553.216 341.267 552.443 341.973 551.616 342.48C552.096 342.8 552.523 343.173 552.896 343.6C553.296 344 553.67 344.467 554.016 345L569.856 365H563.496C562.883 365 562.35 364.907 561.896 364.72C561.47 364.507 561.096 364.133 560.776 363.6L547.456 347C547.056 346.44 546.656 346.08 546.256 345.92C545.883 345.733 545.296 345.64 544.496 345.64H542.456V365H535.296V306.08H542.456ZM599.521 331.16C599.201 331.747 598.708 332.04 598.041 332.04C597.641 332.04 597.188 331.893 596.681 331.6C596.175 331.307 595.548 330.987 594.801 330.64C594.081 330.267 593.215 329.933 592.201 329.64C591.188 329.32 589.988 329.16 588.601 329.16C587.401 329.16 586.321 329.32 585.361 329.64C584.401 329.933 583.575 330.347 582.881 330.88C582.215 331.413 581.695 332.04 581.321 332.76C580.975 333.453 580.801 334.213 580.801 335.04C580.801 336.08 581.095 336.947 581.681 337.64C582.295 338.333 583.095 338.933 584.081 339.44C585.068 339.947 586.188 340.4 587.441 340.8C588.695 341.173 589.975 341.587 591.281 342.04C592.615 342.467 593.908 342.947 595.161 343.48C596.415 344.013 597.535 344.68 598.521 345.48C599.508 346.28 600.295 347.267 600.881 348.44C601.495 349.587 601.801 350.973 601.801 352.6C601.801 354.467 601.468 356.2 600.801 357.8C600.135 359.373 599.148 360.747 597.841 361.92C596.535 363.067 594.935 363.973 593.041 364.64C591.148 365.307 588.961 365.64 586.481 365.64C583.655 365.64 581.095 365.187 578.801 364.28C576.508 363.347 574.561 362.16 572.961 360.72L574.641 358C574.855 357.653 575.108 357.387 575.401 357.2C575.695 357.013 576.068 356.92 576.521 356.92C577.001 356.92 577.508 357.107 578.041 357.48C578.575 357.853 579.215 358.267 579.961 358.72C580.735 359.173 581.668 359.587 582.761 359.96C583.855 360.333 585.215 360.52 586.841 360.52C588.228 360.52 589.441 360.347 590.481 360C591.521 359.627 592.388 359.133 593.081 358.52C593.775 357.907 594.281 357.2 594.601 356.4C594.948 355.6 595.121 354.747 595.121 353.84C595.121 352.72 594.815 351.8 594.201 351.08C593.615 350.333 592.828 349.707 591.841 349.2C590.855 348.667 589.721 348.213 588.441 347.84C587.188 347.44 585.895 347.027 584.561 346.6C583.255 346.173 581.961 345.693 580.681 345.16C579.428 344.6 578.308 343.907 577.321 343.08C576.335 342.253 575.535 341.24 574.921 340.04C574.335 338.813 574.041 337.333 574.041 335.6C574.041 334.053 574.361 332.573 575.001 331.16C575.641 329.72 576.575 328.467 577.801 327.4C579.028 326.307 580.535 325.44 582.321 324.8C584.108 324.16 586.148 323.84 588.441 323.84C591.108 323.84 593.495 324.267 595.601 325.12C597.735 325.947 599.575 327.093 601.121 328.56L599.521 331.16ZM609.331 360.6C609.331 359.907 609.451 359.253 609.691 358.64C609.957 358.027 610.304 357.493 610.731 357.04C611.184 356.587 611.717 356.227 612.331 355.96C612.944 355.693 613.597 355.56 614.291 355.56C614.984 355.56 615.637 355.693 616.251 355.96C616.864 356.227 617.397 356.587 617.851 357.04C618.304 357.493 618.664 358.027 618.931 358.64C619.197 359.253 619.331 359.907 619.331 360.6C619.331 361.32 619.197 361.987 618.931 362.6C618.664 363.187 618.304 363.707 617.851 364.16C617.397 364.613 616.864 364.96 616.251 365.2C615.637 365.467 614.984 365.6 614.291 365.6C613.597 365.6 612.944 365.467 612.331 365.2C611.717 364.96 611.184 364.613 610.731 364.16C610.304 363.707 609.957 363.187 609.691 362.6C609.451 361.987 609.331 361.32 609.331 360.6Z" fill="#9CD08F"/>
</svg>
