<svg width="615" height="260" viewBox="0 0 615 260" fill="none" xmlns="http://www.w3.org/2000/svg">
<path d="M26.3333 46.1333L17.4 46.9333V45.6C24.4667 42 29.8 36.9333 29.8 26.6667V17.4667C29.8 5.33333 23.6667 0.666662 13 0.666662H1V98H13C24.8667 98 31.8 93.3333 31.8 81.2V65.8667C31.8 56.6667 30.3333 49.0667 26.3333 46.1333ZM12.0667 9.73333C17.8 9.73333 19.8 12.1333 19.8 20.8V34.6667C19.8 39.3333 18.6 42.5333 13.5333 44.8L11 45.8667V9.73333H12.0667ZM21.8 77.8667C21.8 86.5333 19.2667 88.9333 12.0667 88.9333H11V50.1333C12.0667 49.3333 13.2667 48.8 14.7333 48.8C19.4 48.8 21.8 51.6 21.8 57.6V77.8667ZM49.5547 53.7333H65.5547V32.4C65.5547 20.8 61.688 16.6667 54.3547 16.6667C46.3547 16.6667 40.2214 21.6 40.2214 34.8V83.7333C40.2214 95.2 44.3547 99.3333 52.488 99.3333C61.4214 99.3333 65.688 89.7333 65.4214 77.0667L65.0214 61.0667H63.1547L62.7547 76.6667C62.488 85.2 60.7547 90.2667 56.7547 90.2667C53.0214 90.2667 49.5547 88.8 49.5547 79.2V53.7333ZM53.4214 25.7333C56.088 25.7333 57.5547 27.0667 57.5547 36.8V51.8667H49.5547V33.4667C49.5547 28.6667 50.2214 25.7333 53.4214 25.7333ZM96.2422 29.3333C96.2422 26.8 94.1089 25.7333 89.0422 25.7333C85.0422 25.7333 84.2422 28.6667 84.2422 33.4667V79.2C84.2422 88.8 87.0422 90.2667 90.1089 90.2667C93.1755 90.2667 94.5089 85.2 94.7755 76.6667L95.1755 60.9333H97.0422L97.4422 77.0667C97.7089 89.7333 93.8422 99.3333 85.8422 99.3333C78.6422 99.3333 74.9089 95.2 74.9089 83.7333V34.8C74.9089 21.6 81.1755 16.6667 88.5089 16.6667C95.4422 16.6667 98.7755 20.8 98.7755 29.2C98.7755 32.6667 98.3755 41.6 96.1089 53.4667H85.9755C93.9755 37.8667 96.2422 32.8 96.2422 29.3333ZM120.42 99.3333C112.02 99.3333 107.487 95.2 107.487 83.7333V34.6667C107.487 21.6 114.154 16.6667 122.02 16.6667C130.554 16.6667 134.954 20.8 134.954 32.2667V81.3333C134.954 94.4 128.287 99.3333 120.42 99.3333ZM120.42 25.7333C117.487 25.7333 116.82 28.6667 116.82 33.3333V79.2C116.82 88.8 119.22 90.2667 122.02 90.2667C124.954 90.2667 125.62 87.3333 125.62 82.6667V36.8C125.62 27.2 123.087 25.7333 120.42 25.7333ZM168.151 40L169.484 40.2667C172.284 20 176.417 16.6667 181.217 16.6667C185.751 16.6667 189.084 20.8 189.084 27.4667V98H179.751V32.6667C179.751 27.8667 179.217 25.7333 177.217 25.7333C174.151 25.7333 171.351 35.2 171.351 47.3333V98H162.017V32.6667C162.017 27.8667 161.484 25.7333 159.484 25.7333C156.417 25.7333 153.617 35.2 153.617 47.3333V98H144.284V18H153.617V19.4667L150.417 39.7333L151.751 40C154.551 20 158.684 16.6667 163.484 16.6667C167.751 16.6667 170.951 20.2667 170.017 26.9333L168.151 40ZM196.024 7.46666H210.158V0.666662H196.024V7.46666ZM207.758 18V98H198.424V18H207.758ZM226.391 18V19.4667L223.191 39.7333L224.524 40C227.324 20 231.857 16.6667 236.924 16.6667C241.857 16.6667 245.457 20.8 245.457 27.4667V98H236.124V32.6667C236.124 27.8667 235.457 25.7333 232.924 25.7333C229.191 25.7333 226.391 34.9333 226.391 47.3333V98H217.057V18H226.391ZM287.592 33.3333V18H268.392C260.525 18 253.858 22.9333 253.858 36V66.8C253.858 73.6 255.592 77.8667 258.792 80.2667C256.525 83.0667 252.658 86.4 252.658 90.9333C252.658 94.4 254.792 96.1333 257.858 96.9333V97.7333C254.258 99.3333 251.325 102.4 251.325 107.2C251.325 111.2 254.525 115.333 262.525 115.333C273.592 115.333 286.392 104.267 286.392 97.2C286.392 91.7333 282.525 88.9333 274.258 88.9333H260.125C257.592 88.9333 256.792 88.2667 256.792 87.0667C256.792 85.7333 258.658 83.4667 260.925 81.3333C262.525 82.1333 264.525 82.4 266.792 82.4C274.658 82.4 281.325 77.6 281.325 65.0667V36.2667C281.325 27.7333 276.258 22.8 268.925 21.8667V20.2667C275.192 20.4 279.858 22.2667 287.592 33.3333ZM271.992 38.1333V66.8C271.992 71.4667 271.325 74.4 268.392 74.4C265.592 74.4 263.192 72.9333 263.192 63.3333V34.6667C263.192 30 263.858 27.0667 266.792 27.0667C269.458 27.0667 271.992 28.5333 271.992 38.1333ZM279.858 103.067C279.858 105.733 277.325 106.8 271.192 106.8C260.792 106.8 258.792 104.533 258.792 101.867C258.792 100.4 259.458 99.0667 261.592 98H274.258C278.792 98 279.858 99.8667 279.858 103.067ZM34.6 228.533L34.2 205.733H32.3333L31.9333 229.067C31.8 233.467 30.8667 234.267 29.6667 234.267C28.2 234.267 26.8667 233.467 26.8667 226.267V171.6C26.8667 164.8 23 160.667 15.2667 160.667C6.86667 160.667 0.333333 170.4 0.333333 178.8C0.333333 184.933 1.13333 192.533 3.8 198.933H16.6C5.66667 187.867 3.4 182.933 3.4 177.333C3.4 172.667 5.13333 169.733 12.0667 169.733C16.4667 169.733 17.5333 170.8 17.5333 175.067V199.733C7 209.6 1.4 213.867 1.4 224.667V233.867C1.4 240.267 4.06667 243.333 9.13333 243.333C14.2 243.333 17.5333 240.133 19.5333 220.267L20.8667 220.533C19.2667 239.467 21.6667 243.333 27.1333 243.333C33.4 243.333 34.7333 236.933 34.6 228.533ZM13 233.6C11.6667 233.6 10.7333 232.8 10.7333 230.4V217.067C10.7333 211.467 11.6667 208.133 17.5333 202.533V213.2C17.5333 225.467 15.9333 233.6 13 233.6ZM70.7292 243.333C79.1292 243.333 86.1958 238.4 86.1958 226.933C86.1958 211.467 68.4625 173.6 68.4625 158.533C68.4625 155.067 69.5292 152.4 73.9292 152.4C79.5292 152.4 81.6625 153.467 81.6625 157.067C81.6625 160.667 79.9292 165.467 73.9292 180H82.7292C84.1958 170.933 84.1958 160.8 84.1958 155.733C84.1958 147.467 80.8625 143.333 73.9292 143.333C65.5292 143.333 58.4625 148.267 58.4625 160.133C58.4625 179.333 76.1958 210.533 76.1958 228.133C76.1958 231.6 75.1292 234.267 70.7292 234.267C64.1958 234.267 61.6625 233.2 61.6625 229.333C61.6625 225.067 64.1958 216.8 70.1958 205.333H60.5958C59.3958 212.667 59.1292 222.4 59.1292 230.933C59.1292 239.2 62.8625 243.333 70.7292 243.333ZM106.006 243.333C97.6063 243.333 93.0729 239.2 93.0729 227.733V178.667C93.0729 165.6 99.7396 160.667 107.606 160.667C116.14 160.667 120.54 164.8 120.54 176.267V225.333C120.54 238.4 113.873 243.333 106.006 243.333ZM106.006 169.733C103.073 169.733 102.406 172.667 102.406 177.333V223.2C102.406 232.8 104.806 234.267 107.606 234.267C110.54 234.267 111.206 231.333 111.206 226.667V180.8C111.206 171.2 108.673 169.733 106.006 169.733ZM147.736 154.4C152.003 154.4 155.47 155.2 157.87 156.267V144.667H156.136C147.603 144.667 138.803 152.133 134.536 162H126.27V168.8H132.536C132.136 170.533 132.003 172.4 132.003 174.133V242H141.336V168.8H153.07V162H141.336V158.133C141.336 155.2 143.87 154.4 147.736 154.4ZM166.532 168.8V223.2C166.532 232.8 168.932 234.267 171.198 234.267C174.398 234.267 175.465 230.933 175.732 222L176.132 204.933H177.998L178.398 222.4C178.665 234.267 175.065 243.333 167.465 243.333C160.665 243.333 157.198 239.2 157.198 227.733V168.8H151.065V162H157.198V148.8C160.265 148.133 164.265 146.533 166.398 143.333L167.865 143.733L165.065 160.933L165.732 162H178.132V168.8H166.532ZM220.302 162L218.035 216.8H216.568L213.502 190.133L209.235 162H203.502L197.368 216.8H195.902L194.568 190.133L190.568 162H180.435L193.768 242H197.502L203.368 190.667H204.835L213.768 242H217.502L231.235 162H220.302ZM268.155 228.533L267.755 205.733H265.888L265.488 229.067C265.355 233.467 264.421 234.267 263.221 234.267C261.755 234.267 260.421 233.467 260.421 226.267V171.6C260.421 164.8 256.555 160.667 248.821 160.667C240.421 160.667 233.888 170.4 233.888 178.8C233.888 184.933 234.688 192.533 237.355 198.933H250.155C239.221 187.867 236.955 182.933 236.955 177.333C236.955 172.667 238.688 169.733 245.621 169.733C250.021 169.733 251.088 170.8 251.088 175.067V199.733C240.555 209.6 234.955 213.867 234.955 224.667V233.867C234.955 240.267 237.621 243.333 242.688 243.333C247.755 243.333 251.088 240.133 253.088 220.267L254.421 220.533C252.821 239.467 255.221 243.333 260.688 243.333C266.955 243.333 268.288 236.933 268.155 228.533ZM246.555 233.6C245.221 233.6 244.288 232.8 244.288 230.4V217.067C244.288 211.467 245.221 208.133 251.088 202.533V213.2C251.088 225.467 249.488 233.6 246.555 233.6ZM293.097 170.533C288.831 170.533 284.164 177.6 284.164 191.067V242H274.831V162H284.031V163.467L281.097 183.733L282.431 184C285.231 164 288.564 160.667 293.097 160.667C297.097 160.667 299.097 165.067 299.097 173.867C299.097 177.333 298.697 186.267 296.431 198.133H286.297C293.897 182.133 296.697 176.4 296.697 174C296.697 171.6 295.497 170.533 293.097 170.533ZM314.398 197.733H330.398V176.4C330.398 164.8 326.532 160.667 319.198 160.667C311.198 160.667 305.065 165.6 305.065 178.8V227.733C305.065 239.2 309.198 243.333 317.332 243.333C326.265 243.333 330.532 233.733 330.265 221.067L329.865 205.067H327.998L327.598 220.667C327.332 229.2 325.598 234.267 321.598 234.267C317.865 234.267 314.398 232.8 314.398 223.2V197.733ZM318.265 169.733C320.932 169.733 322.398 171.067 322.398 180.8V195.867H314.398V177.467C314.398 172.667 315.065 169.733 318.265 169.733ZM368.539 233.333V192.133H378.006V189.2H368.539V153.333H381.606V144.667H358.539V242H382.939V233.333H368.539ZM398.891 162V163.467L395.691 183.733L397.024 184C399.824 164 404.357 160.667 409.424 160.667C414.357 160.667 417.957 164.8 417.957 171.467V242H408.624V176.667C408.624 171.867 407.957 169.733 405.424 169.733C401.691 169.733 398.891 178.933 398.891 191.333V242H389.557V162H398.891ZM460.092 177.333V162H440.892C433.025 162 426.358 166.933 426.358 180V210.8C426.358 217.6 428.092 221.867 431.292 224.267C429.025 227.067 425.158 230.4 425.158 234.933C425.158 238.4 427.292 240.133 430.358 240.933V241.733C426.758 243.333 423.825 246.4 423.825 251.2C423.825 255.2 427.025 259.333 435.025 259.333C446.092 259.333 458.892 248.267 458.892 241.2C458.892 235.733 455.025 232.933 446.758 232.933H432.625C430.092 232.933 429.292 232.267 429.292 231.067C429.292 229.733 431.158 227.467 433.425 225.333C435.025 226.133 437.025 226.4 439.292 226.4C447.158 226.4 453.825 221.6 453.825 209.067V180.267C453.825 171.733 448.758 166.8 441.425 165.867V164.267C447.692 164.4 452.358 166.267 460.092 177.333ZM444.492 182.133V210.8C444.492 215.467 443.825 218.4 440.892 218.4C438.092 218.4 435.692 216.933 435.692 207.333V178.667C435.692 174 436.358 171.067 439.292 171.067C441.958 171.067 444.492 172.533 444.492 182.133ZM452.358 247.067C452.358 249.733 449.825 250.8 443.692 250.8C433.292 250.8 431.292 248.533 431.292 245.867C431.292 244.4 431.958 243.067 434.092 242H446.758C451.292 242 452.358 243.867 452.358 247.067ZM462.392 151.467H476.525V144.667H462.392V151.467ZM474.125 162V242H464.792V162H474.125ZM492.758 162V163.467L489.558 183.733L490.891 184C493.691 164 498.224 160.667 503.291 160.667C508.224 160.667 511.824 164.8 511.824 171.467V242H502.491V176.667C502.491 171.867 501.824 169.733 499.291 169.733C495.558 169.733 492.758 178.933 492.758 191.333V242H483.424V162H492.758ZM530.492 197.733H546.492V176.4C546.492 164.8 542.626 160.667 535.292 160.667C527.292 160.667 521.159 165.6 521.159 178.8V227.733C521.159 239.2 525.292 243.333 533.426 243.333C542.359 243.333 546.626 233.733 546.359 221.067L545.959 205.067H544.092L543.692 220.667C543.426 229.2 541.692 234.267 537.692 234.267C533.959 234.267 530.492 232.8 530.492 223.2V197.733ZM534.359 169.733C537.026 169.733 538.492 171.067 538.492 180.8V195.867H530.492V177.467C530.492 172.667 531.159 169.733 534.359 169.733ZM565.18 197.733H581.18V176.4C581.18 164.8 577.313 160.667 569.98 160.667C561.98 160.667 555.846 165.6 555.846 178.8V227.733C555.846 239.2 559.98 243.333 568.113 243.333C577.046 243.333 581.313 233.733 581.046 221.067L580.646 205.067H578.78L578.38 220.667C578.113 229.2 576.38 234.267 572.38 234.267C568.646 234.267 565.18 232.8 565.18 223.2V197.733ZM569.046 169.733C571.713 169.733 573.18 171.067 573.18 180.8V195.867H565.18V177.467C565.18 172.667 565.846 169.733 569.046 169.733ZM608.801 170.533C604.534 170.533 599.867 177.6 599.867 191.067V242H590.534V162H599.734V163.467L596.801 183.733L598.134 184C600.934 164 604.267 160.667 608.801 160.667C612.801 160.667 614.801 165.067 614.801 173.867C614.801 177.333 614.401 186.267 612.134 198.133H602.001C609.601 182.133 612.401 176.4 612.401 174C612.401 171.6 611.201 170.533 608.801 170.533Z" fill="#EE86FF"/>
</svg>
