<svg width="584" height="189" viewBox="0 0 584 189" fill="none" xmlns="http://www.w3.org/2000/svg">
<path d="M6.39127 79.3043C6.39127 89.732 3.79683 104.445 8.0821 114.087C8.7472 115.583 11.2009 126.747 10.7391 118.435C10.3794 111.96 8.56519 105.65 8.56519 98.7488C8.56519 85.4834 11.1837 57.0437 28.6135 74.4734C38.9099 84.7699 36.8261 99.3424 36.8261 112.879C36.8261 119.025 36.8261 105.097 36.8261 103.217C36.8261 97.058 36.8261 90.8985 36.8261 84.7391C36.8261 70.6963 38.5079 66.2609 54.2174 66.2609C73.8776 66.2609 69.4347 104.713 69.4347 118.435" stroke="#9CD08F" stroke-width="10" stroke-linecap="round"/>
<path d="M93.3477 70.6086C93.3477 82.7942 88.2949 122.783 109.652 122.783C120.134 122.783 117.549 107.067 118.952 99.3526C119.932 93.9575 120.011 61.7904 123.662 78.2173C126.495 90.9664 128.13 103.114 128.13 116.382C128.13 124.938 131.233 140.802 127.647 148.87C118.855 168.653 93.1041 177.212 73.7825 183.652" stroke="#9CD08F" stroke-width="10" stroke-linecap="round"/>
<path d="M193.348 5.39136C193.348 27.2155 191.261 54.5013 200.353 74.9566C203.972 83.0993 206.391 92.7943 206.391 101.889C206.391 117.001 201.635 71.4674 204.338 56.5991C206.622 44.0384 220.398 46.6957 229.821 46.6957C250.955 46.6957 247.696 78.1451 247.696 93.4348C247.696 110.944 221.069 106.209 210.739 101.044" stroke="#9CD08F" stroke-width="10" stroke-linecap="round"/>
<path d="M271.609 16.2609C271.609 41.1069 274.872 71.4287 285.135 94.5217C286.698 98.037 294.612 112.129 298.179 105.391C301.694 98.7515 308.467 92.642 310.739 85.8261" stroke="#9CD08F" stroke-width="10" stroke-linecap="round"/>
<path d="M343.348 46.6956C343.348 58.494 338.674 85.5181 347.212 95.0048C356.537 105.365 372.142 106.066 381.995 96.2125C392.306 85.9012 379.528 62.1643 374.266 53.2174C367.213 41.2277 357.556 41.7654 347.695 46.6956" stroke="#9CD08F" stroke-width="10" stroke-linecap="round"/>
<path d="M428.13 27.1304C413.073 27.1304 407.127 28.2184 404.338 43.5555C401.93 56.7983 403.056 74.8311 415.087 82.5652C419.92 85.6719 441.174 90.4613 441.174 80.3912C441.174 64.5384 443.586 49.6944 441.295 33.6521C439.984 24.477 440.377 30.8444 438.517 33.169C434.482 38.2133 442.48 44.7899 445.522 49.3526C454.566 62.9189 453.643 77.8471 458.082 92.8309C463.64 111.588 450.53 123.33 438.517 135.343C420.714 153.146 407.384 173.176 382.478 181.478" stroke="#9CD08F" stroke-width="10" stroke-linecap="round"/>
<path d="M517.261 18.4348C517.261 24.0493 519.888 26.3151 521.609 31.4783" stroke="#9CD08F" stroke-width="10" stroke-linecap="round"/>
<path d="M541.174 11.9131C541.174 18.8041 543.348 25.0316 543.348 31.4783" stroke="#9CD08F" stroke-width="10" stroke-linecap="round"/>
<path d="M506.391 77.1304C519.522 78.4435 534.508 86.3812 547.695 79.7874C564.293 71.4886 570.278 60.2265 578.13 44.5217" stroke="#9CD08F" stroke-width="10" stroke-linecap="round"/>
</svg>
